STARTFONT 2.1
COMMENT 
COMMENT This file has been produced by ttf2bdf written by Subhabrata Biswas
COMMENT 
COMMENT For comments, questions, bug reports, send a mail to
COMMENT                                           subhabrata.biswas@usa.net
COMMENT 
FONT -*-Raleway Light-Medium-R-Normal--12-90-96-96-c-7--fontspecific
SIZE 9 96 96
FONTBOUNDINGBOX 18 17 -3 -3
STARTPROPERTIES 15
FOUNDRY "Misc"
FAMILY_NAME "Raleway Light"
WEIGHT_NAME "Medium"
SLANT "R"
SETWIDTH_NAME "Normal"
PIXEL_SIZE 8
POINT_SIZE 90
RESOLUTION_X 96
RESOLUTION_Y 96
SPACING "C"
CHARSET_ENCODING "fontspecific"
FONT_ASCENT 14
FONT_DESCENT 3
DEFAULT_CHAR 1
COPYRIGHT "You may wish to put your copyright here"
ENDPROPERTIES
CHARS 255
STARTCHAR C0001
ENCODING 1
SWIDTH 583 0
DWIDTH 7 0
BBX 6 9 1 -1
BITMAP
FC
C4
A4
A4
94
8C
8C
FC
00
ENDCHAR
STARTCHAR C0002
ENCODING 2
SWIDTH 583 0
DWIDTH 7 0
BBX 6 9 1 -1
BITMAP
FC
C4
A4
A4
94
8C
8C
FC
00
ENDCHAR
STARTCHAR C0003
ENCODING 3
SWIDTH 583 0
DWIDTH 7 0
BBX 6 9 1 -1
BITMAP
FC
C4
A4
A4
94
8C
8C
FC
00
ENDCHAR
STARTCHAR C0004
ENCODING 4
SWIDTH 583 0
DWIDTH 7 0
BBX 6 9 1 -1
BITMAP
FC
C4
A4
A4
94
8C
8C
FC
00
ENDCHAR
STARTCHAR C0005
ENCODING 5
SWIDTH 583 0
DWIDTH 7 0
BBX 6 9 1 -1
BITMAP
FC
C4
A4
A4
94
8C
8C
FC
00
ENDCHAR
STARTCHAR C0006
ENCODING 6
SWIDTH 583 0
DWIDTH 7 0
BBX 6 9 1 -1
BITMAP
FC
C4
A4
A4
94
8C
8C
FC
00
ENDCHAR
STARTCHAR C0007
ENCODING 7
SWIDTH 583 0
DWIDTH 7 0
BBX 6 9 1 -1
BITMAP
FC
C4
A4
A4
94
8C
8C
FC
00
ENDCHAR
STARTCHAR C0008
ENCODING 8
SWIDTH 583 0
DWIDTH 7 0
BBX 6 9 1 -1
BITMAP
FC
C4
A4
A4
94
8C
8C
FC
00
ENDCHAR
STARTCHAR C0009
ENCODING 9
SWIDTH 583 0
DWIDTH 7 0
BBX 6 9 1 -1
BITMAP
FC
C4
A4
A4
94
8C
8C
FC
00
ENDCHAR
STARTCHAR C0010
ENCODING 10
SWIDTH 583 0
DWIDTH 7 0
BBX 6 9 1 -1
BITMAP
FC
C4
A4
A4
94
8C
8C
FC
00
ENDCHAR
STARTCHAR C0011
ENCODING 11
SWIDTH 583 0
DWIDTH 7 0
BBX 6 9 1 -1
BITMAP
FC
C4
A4
A4
94
8C
8C
FC
00
ENDCHAR
STARTCHAR C0012
ENCODING 12
SWIDTH 583 0
DWIDTH 7 0
BBX 6 9 1 -1
BITMAP
FC
C4
A4
A4
94
8C
8C
FC
00
ENDCHAR
STARTCHAR C0013
ENCODING 13
SWIDTH 0 0
DWIDTH 0 0
BBX 1 1 0 -1
BITMAP
00
ENDCHAR
STARTCHAR C0014
ENCODING 14
SWIDTH 583 0
DWIDTH 7 0
BBX 6 9 1 -1
BITMAP
FC
C4
A4
A4
94
8C
8C
FC
00
ENDCHAR
STARTCHAR C0015
ENCODING 15
SWIDTH 583 0
DWIDTH 7 0
BBX 6 9 1 -1
BITMAP
FC
C4
A4
A4
94
8C
8C
FC
00
ENDCHAR
STARTCHAR C0016
ENCODING 16
SWIDTH 583 0
DWIDTH 7 0
BBX 6 9 1 -1
BITMAP
FC
C4
A4
A4
94
8C
8C
FC
00
ENDCHAR
STARTCHAR C0017
ENCODING 17
SWIDTH 583 0
DWIDTH 7 0
BBX 6 9 1 -1
BITMAP
FC
C4
A4
A4
94
8C
8C
FC
00
ENDCHAR
STARTCHAR C0018
ENCODING 18
SWIDTH 583 0
DWIDTH 7 0
BBX 6 9 1 -1
BITMAP
FC
C4
A4
A4
94
8C
8C
FC
00
ENDCHAR
STARTCHAR C0019
ENCODING 19
SWIDTH 583 0
DWIDTH 7 0
BBX 6 9 1 -1
BITMAP
FC
C4
A4
A4
94
8C
8C
FC
00
ENDCHAR
STARTCHAR C0020
ENCODING 20
SWIDTH 583 0
DWIDTH 7 0
BBX 6 9 1 -1
BITMAP
FC
C4
A4
A4
94
8C
8C
FC
00
ENDCHAR
STARTCHAR C0021
ENCODING 21
SWIDTH 583 0
DWIDTH 7 0
BBX 6 9 1 -1
BITMAP
FC
C4
A4
A4
94
8C
8C
FC
00
ENDCHAR
STARTCHAR C0022
ENCODING 22
SWIDTH 583 0
DWIDTH 7 0
BBX 6 9 1 -1
BITMAP
FC
C4
A4
A4
94
8C
8C
FC
00
ENDCHAR
STARTCHAR C0023
ENCODING 23
SWIDTH 583 0
DWIDTH 7 0
BBX 6 9 1 -1
BITMAP
FC
C4
A4
A4
94
8C
8C
FC
00
ENDCHAR
STARTCHAR C0024
ENCODING 24
SWIDTH 583 0
DWIDTH 7 0
BBX 6 9 1 -1
BITMAP
FC
C4
A4
A4
94
8C
8C
FC
00
ENDCHAR
STARTCHAR C0025
ENCODING 25
SWIDTH 583 0
DWIDTH 7 0
BBX 6 9 1 -1
BITMAP
FC
C4
A4
A4
94
8C
8C
FC
00
ENDCHAR
STARTCHAR C0026
ENCODING 26
SWIDTH 583 0
DWIDTH 7 0
BBX 6 9 1 -1
BITMAP
FC
C4
A4
A4
94
8C
8C
FC
00
ENDCHAR
STARTCHAR C0027
ENCODING 27
SWIDTH 583 0
DWIDTH 7 0
BBX 6 9 1 -1
BITMAP
FC
C4
A4
A4
94
8C
8C
FC
00
ENDCHAR
STARTCHAR C0028
ENCODING 28
SWIDTH 583 0
DWIDTH 7 0
BBX 6 9 1 -1
BITMAP
FC
C4
A4
A4
94
8C
8C
FC
00
ENDCHAR
STARTCHAR C0029
ENCODING 29
SWIDTH 583 0
DWIDTH 7 0
BBX 6 9 1 -1
BITMAP
FC
C4
A4
A4
94
8C
8C
FC
00
ENDCHAR
STARTCHAR C0030
ENCODING 30
SWIDTH 583 0
DWIDTH 7 0
BBX 6 9 1 -1
BITMAP
FC
C4
A4
A4
94
8C
8C
FC
00
ENDCHAR
STARTCHAR C0031
ENCODING 31
SWIDTH 583 0
DWIDTH 7 0
BBX 6 9 1 -1
BITMAP
FC
C4
A4
A4
94
8C
8C
FC
00
ENDCHAR
STARTCHAR C0032- 
ENCODING 32
SWIDTH 250 0
DWIDTH 3 0
BBX 1 1 0 -1
BITMAP
00
ENDCHAR
STARTCHAR C0033-!
ENCODING 33
SWIDTH 250 0
DWIDTH 3 0
BBX 1 9 1 0
BITMAP
80
80
80
80
80
80
00
00
80
ENDCHAR
STARTCHAR C0034-"
ENCODING 34
SWIDTH 250 0
DWIDTH 3 0
BBX 1 2 1 7
BITMAP
00
00
ENDCHAR
STARTCHAR C0035-#
ENCODING 35
SWIDTH 666 0
DWIDTH 8 0
BBX 8 9 0 0
BITMAP
12
12
3E
24
24
24
7C
48
48
ENDCHAR
STARTCHAR C0036-$
ENCODING 36
SWIDTH 583 0
DWIDTH 7 0
BBX 7 11 0 -1
BITMAP
00
3C
50
50
50
38
16
12
12
7C
00
ENDCHAR
STARTCHAR C0037-%
ENCODING 37
SWIDTH 666 0
DWIDTH 8 0
BBX 7 9 1 0
BITMAP
E2
A4
E8
10
10
20
4E
92
0E
ENDCHAR
STARTCHAR C0038-&
ENCODING 38
SWIDTH 666 0
DWIDTH 8 0
BBX 7 9 1 0
BITMAP
70
90
90
60
60
94
8C
88
74
ENDCHAR
STARTCHAR C0039-'
ENCODING 39
SWIDTH 166 0
DWIDTH 2 0
BBX 1 2 1 7
BITMAP
80
80
ENDCHAR
STARTCHAR C0040-(
ENCODING 40
SWIDTH 250 0
DWIDTH 3 0
BBX 2 9 1 0
BITMAP
40
80
80
80
80
80
80
80
40
ENDCHAR
STARTCHAR C0041-)
ENCODING 41
SWIDTH 250 0
DWIDTH 3 0
BBX 3 9 0 0
BITMAP
80
40
40
20
20
20
40
40
80
ENDCHAR
STARTCHAR C0042-*
ENCODING 42
SWIDTH 333 0
DWIDTH 4 0
BBX 2 2 1 7
BITMAP
00
80
ENDCHAR
STARTCHAR C0043-+
ENCODING 43
SWIDTH 416 0
DWIDTH 5 0
BBX 3 4 1 3
BITMAP
40
40
E0
40
ENDCHAR
STARTCHAR C0044-,
ENCODING 44
SWIDTH 250 0
DWIDTH 3 0
BBX 1 2 1 -1
BITMAP
80
80
ENDCHAR
STARTCHAR C0045--
ENCODING 45
SWIDTH 416 0
DWIDTH 5 0
BBX 3 1 1 3
BITMAP
E0
ENDCHAR
STARTCHAR C0046-.
ENCODING 46
SWIDTH 166 0
DWIDTH 2 0
BBX 1 1 1 0
BITMAP
80
ENDCHAR
STARTCHAR C0047-/
ENCODING 47
SWIDTH 583 0
DWIDTH 7 0
BBX 7 9 0 0
BITMAP
04
04
08
08
10
20
20
40
80
ENDCHAR
STARTCHAR C0048-0
ENCODING 48
SWIDTH 583 0
DWIDTH 7 0
BBX 6 7 1 0
BITMAP
70
88
84
84
84
88
70
ENDCHAR
STARTCHAR C0049-1
ENCODING 49
SWIDTH 416 0
DWIDTH 5 0
BBX 4 7 1 0
BITMAP
40
C0
40
40
40
40
F0
ENDCHAR
STARTCHAR C0050-2
ENCODING 50
SWIDTH 500 0
DWIDTH 6 0
BBX 5 7 1 0
BITMAP
F0
10
10
20
40
80
F8
ENDCHAR
STARTCHAR C0051-3
ENCODING 51
SWIDTH 500 0
DWIDTH 6 0
BBX 6 9 0 -2
BITMAP
78
04
04
08
18
04
04
04
78
ENDCHAR
STARTCHAR C0052-4
ENCODING 52
SWIDTH 500 0
DWIDTH 6 0
BBX 6 9 0 -2
BITMAP
08
08
18
28
48
48
FC
08
08
ENDCHAR
STARTCHAR C0053-5
ENCODING 53
SWIDTH 583 0
DWIDTH 7 0
BBX 6 9 0 -2
BITMAP
7C
40
40
78
04
04
04
84
78
ENDCHAR
STARTCHAR C0054-6
ENCODING 54
SWIDTH 583 0
DWIDTH 7 0
BBX 6 9 1 0
BITMAP
78
80
80
F0
88
84
84
88
70
ENDCHAR
STARTCHAR C0055-7
ENCODING 55
SWIDTH 500 0
DWIDTH 6 0
BBX 6 9 0 -2
BITMAP
FC
04
08
08
10
10
20
20
40
ENDCHAR
STARTCHAR C0056-8
ENCODING 56
SWIDTH 583 0
DWIDTH 7 0
BBX 5 9 1 0
BITMAP
70
88
88
88
70
88
88
88
70
ENDCHAR
STARTCHAR C0057-9
ENCODING 57
SWIDTH 583 0
DWIDTH 7 0
BBX 6 9 0 -2
BITMAP
38
44
84
84
44
3C
04
44
38
ENDCHAR
STARTCHAR C0058-:
ENCODING 58
SWIDTH 166 0
DWIDTH 2 0
BBX 1 7 1 0
BITMAP
80
00
00
00
00
00
80
ENDCHAR
STARTCHAR C0059-;
ENCODING 59
SWIDTH 166 0
DWIDTH 2 0
BBX 1 8 1 -1
BITMAP
80
00
00
00
00
00
80
80
ENDCHAR
STARTCHAR C0060-<
ENCODING 60
SWIDTH 500 0
DWIDTH 6 0
BBX 5 6 0 0
BITMAP
08
30
40
40
30
08
ENDCHAR
STARTCHAR C0061-=
ENCODING 61
SWIDTH 416 0
DWIDTH 5 0
BBX 3 1 1 3
BITMAP
40
ENDCHAR
STARTCHAR C0062->
ENCODING 62
SWIDTH 500 0
DWIDTH 6 0
BBX 5 6 1 0
BITMAP
80
60
10
10
60
80
ENDCHAR
STARTCHAR C0063-?
ENCODING 63
SWIDTH 500 0
DWIDTH 6 0
BBX 5 9 0 0
BITMAP
70
88
08
08
10
20
20
00
20
ENDCHAR
STARTCHAR C0064-@
ENCODING 64
SWIDTH 833 0
DWIDTH 10 0
BBX 8 9 1 -2
BITMAP
7C
83
BD
85
BD
A5
BF
80
7C
ENDCHAR
STARTCHAR C0065-A
ENCODING 65
SWIDTH 666 0
DWIDTH 8 0
BBX 8 9 0 0
BITMAP
00
18
18
24
24
3C
42
42
81
ENDCHAR
STARTCHAR C0066-B
ENCODING 66
SWIDTH 666 0
DWIDTH 8 0
BBX 6 9 1 0
BITMAP
F8
84
84
84
F8
84
84
84
FC
ENDCHAR
STARTCHAR C0067-C
ENCODING 67
SWIDTH 666 0
DWIDTH 8 0
BBX 7 9 1 0
BITMAP
7C
82
80
80
80
80
80
82
7C
ENDCHAR
STARTCHAR C0068-D
ENCODING 68
SWIDTH 750 0
DWIDTH 9 0
BBX 7 9 1 0
BITMAP
F8
84
82
82
82
82
82
84
F8
ENDCHAR
STARTCHAR C0069-E
ENCODING 69
SWIDTH 583 0
DWIDTH 7 0
BBX 6 9 1 0
BITMAP
FC
80
80
80
F8
80
80
80
FC
ENDCHAR
STARTCHAR C0070-F
ENCODING 70
SWIDTH 583 0
DWIDTH 7 0
BBX 6 9 1 0
BITMAP
FC
80
80
80
F8
80
80
80
80
ENDCHAR
STARTCHAR C0071-G
ENCODING 71
SWIDTH 750 0
DWIDTH 9 0
BBX 7 9 1 0
BITMAP
7C
82
80
80
8E
82
82
82
7E
ENDCHAR
STARTCHAR C0072-H
ENCODING 72
SWIDTH 750 0
DWIDTH 9 0
BBX 7 9 1 0
BITMAP
82
82
82
82
FE
82
82
82
82
ENDCHAR
STARTCHAR C0073-I
ENCODING 73
SWIDTH 250 0
DWIDTH 3 0
BBX 1 9 1 0
BITMAP
80
80
80
80
80
80
80
80
80
ENDCHAR
STARTCHAR C0074-J
ENCODING 74
SWIDTH 500 0
DWIDTH 6 0
BBX 5 9 0 0
BITMAP
08
08
08
08
08
08
08
08
F0
ENDCHAR
STARTCHAR C0075-K
ENCODING 75
SWIDTH 666 0
DWIDTH 8 0
BBX 7 9 1 0
BITMAP
84
88
90
A0
E0
90
88
84
84
ENDCHAR
STARTCHAR C0076-L
ENCODING 76
SWIDTH 583 0
DWIDTH 7 0
BBX 6 9 1 0
BITMAP
80
80
80
80
80
80
80
80
FC
ENDCHAR
STARTCHAR C0077-M
ENCODING 77
SWIDTH 916 0
DWIDTH 11 0
BBX 8 9 1 0
BITMAP
80
C1
C3
A3
A5
95
89
81
80
ENDCHAR
STARTCHAR C0078-N
ENCODING 78
SWIDTH 750 0
DWIDTH 9 0
BBX 7 9 1 0
BITMAP
80
C2
A2
A2
92
8A
86
86
82
ENDCHAR
STARTCHAR C0079-O
ENCODING 79
SWIDTH 750 0
DWIDTH 9 0
BBX 8 9 1 0
BITMAP
7C
82
82
81
81
81
82
82
7C
ENDCHAR
STARTCHAR C0080-P
ENCODING 80
SWIDTH 583 0
DWIDTH 7 0
BBX 6 9 1 0
BITMAP
F8
84
84
84
84
F8
80
80
80
ENDCHAR
STARTCHAR C0081-Q
ENCODING 81
SWIDTH 750 0
DWIDTH 9 0
BBX 8 9 1 0
BITMAP
7C
82
82
81
81
81
82
84
7A
ENDCHAR
STARTCHAR C0082-R
ENCODING 82
SWIDTH 666 0
DWIDTH 8 0
BBX 6 9 1 0
BITMAP
F8
84
84
84
84
F8
88
88
84
ENDCHAR
STARTCHAR C0083-S
ENCODING 83
SWIDTH 583 0
DWIDTH 7 0
BBX 7 9 0 0
BITMAP
3C
40
40
40
38
06
02
02
7C
ENDCHAR
STARTCHAR C0084-T
ENCODING 84
SWIDTH 583 0
DWIDTH 7 0
BBX 7 9 0 0
BITMAP
FE
10
10
10
10
10
10
10
10
ENDCHAR
STARTCHAR C0085-U
ENCODING 85
SWIDTH 750 0
DWIDTH 9 0
BBX 7 9 1 0
BITMAP
82
82
82
82
82
82
82
42
3C
ENDCHAR
STARTCHAR C0086-V
ENCODING 86
SWIDTH 666 0
DWIDTH 8 0
BBX 8 9 0 0
BITMAP
81
41
42
42
24
24
14
18
08
ENDCHAR
STARTCHAR C0087-W
ENCODING 87
SWIDTH 1083 0
DWIDTH 13 0
BBX 12 9 0 0
BITMAP
8910
4510
4610
4220
2220
2540
1540
1940
0880
ENDCHAR
STARTCHAR C0088-X
ENCODING 88
SWIDTH 666 0
DWIDTH 8 0
BBX 7 9 0 0
BITMAP
82
42
24
28
10
18
24
44
82
ENDCHAR
STARTCHAR C0089-Y
ENCODING 89
SWIDTH 666 0
DWIDTH 8 0
BBX 8 9 0 0
BITMAP
82
42
24
24
18
10
10
10
00
ENDCHAR
STARTCHAR C0090-Z
ENCODING 90
SWIDTH 666 0
DWIDTH 8 0
BBX 7 9 0 0
BITMAP
FE
02
04
08
10
20
20
40
FE
ENDCHAR
STARTCHAR C0091-[
ENCODING 91
SWIDTH 250 0
DWIDTH 3 0
BBX 1 9 1 0
BITMAP
80
80
80
80
80
80
80
80
80
ENDCHAR
STARTCHAR C0092-\
ENCODING 92
SWIDTH 583 0
DWIDTH 7 0
BBX 6 9 0 0
BITMAP
80
40
20
20
10
10
08
04
04
ENDCHAR
STARTCHAR C0093-]
ENCODING 93
SWIDTH 250 0
DWIDTH 3 0
BBX 1 9 1 0
BITMAP
80
80
80
80
80
80
80
80
80
ENDCHAR
STARTCHAR C0094-^
ENCODING 94
SWIDTH 500 0
DWIDTH 6 0
BBX 5 5 1 4
BITMAP
20
60
90
90
08
ENDCHAR
STARTCHAR C0095-_
ENCODING 95
SWIDTH 500 0
DWIDTH 6 0
BBX 4 1 1 -1
BITMAP
F0
ENDCHAR
STARTCHAR C0096-`
ENCODING 96
SWIDTH 250 0
DWIDTH 3 0
BBX 1 2 1 8
BITMAP
00
80
ENDCHAR
STARTCHAR C0097-a
ENCODING 97
SWIDTH 500 0
DWIDTH 6 0
BBX 6 7 0 0
BITMAP
78
04
04
7C
84
84
7C
ENDCHAR
STARTCHAR C0098-b
ENCODING 98
SWIDTH 583 0
DWIDTH 7 0
BBX 6 10 1 0
BITMAP
80
80
80
F0
88
84
84
84
88
70
ENDCHAR
STARTCHAR C0099-c
ENCODING 99
SWIDTH 583 0
DWIDTH 7 0
BBX 6 7 0 0
BITMAP
38
44
80
80
80
44
38
ENDCHAR
STARTCHAR C0100-d
ENCODING 100
SWIDTH 583 0
DWIDTH 7 0
BBX 7 10 0 0
BITMAP
00
02
02
3A
44
82
82
82
44
3A
ENDCHAR
STARTCHAR C0101-e
ENCODING 101
SWIDTH 583 0
DWIDTH 7 0
BBX 7 7 0 0
BITMAP
38
44
82
FE
80
44
38
ENDCHAR
STARTCHAR C0102-f
ENCODING 102
SWIDTH 333 0
DWIDTH 4 0
BBX 4 10 0 0
BITMAP
30
40
40
60
40
40
40
40
40
40
ENDCHAR
STARTCHAR C0103-g
ENCODING 103
SWIDTH 583 0
DWIDTH 7 0
BBX 6 10 0 -3
BITMAP
38
44
84
84
84
44
3C
04
04
78
ENDCHAR
STARTCHAR C0104-h
ENCODING 104
SWIDTH 583 0
DWIDTH 7 0
BBX 5 10 1 0
BITMAP
80
80
80
F0
88
88
88
88
88
88
ENDCHAR
STARTCHAR C0105-i
ENCODING 105
SWIDTH 166 0
DWIDTH 2 0
BBX 1 9 1 0
BITMAP
80
00
80
80
80
80
80
80
80
ENDCHAR
STARTCHAR C0106-j
ENCODING 106
SWIDTH 250 0
DWIDTH 3 0
BBX 3 11 -1 -2
BITMAP
20
00
20
20
20
20
20
20
20
20
C0
ENDCHAR
STARTCHAR C0107-k
ENCODING 107
SWIDTH 500 0
DWIDTH 6 0
BBX 5 10 1 0
BITMAP
80
80
80
88
90
A0
E0
90
90
88
ENDCHAR
STARTCHAR C0108-l
ENCODING 108
SWIDTH 250 0
DWIDTH 3 0
BBX 2 10 1 0
BITMAP
80
80
80
80
80
80
80
80
80
C0
ENDCHAR
STARTCHAR C0109-m
ENCODING 109
SWIDTH 916 0
DWIDTH 11 0
BBX 9 7 1 0
BITMAP
F300
8C80
8880
8880
8880
8880
8880
ENDCHAR
STARTCHAR C0110-n
ENCODING 110
SWIDTH 583 0
DWIDTH 7 0
BBX 5 7 1 0
BITMAP
F0
88
88
88
88
88
88
ENDCHAR
STARTCHAR C0111-o
ENCODING 111
SWIDTH 583 0
DWIDTH 7 0
BBX 7 7 0 0
BITMAP
38
44
82
82
82
44
38
ENDCHAR
STARTCHAR C0112-p
ENCODING 112
SWIDTH 583 0
DWIDTH 7 0
BBX 6 10 1 -3
BITMAP
70
88
84
84
84
88
F8
80
80
80
ENDCHAR
STARTCHAR C0113-q
ENCODING 113
SWIDTH 583 0
DWIDTH 7 0
BBX 6 10 0 -3
BITMAP
38
44
84
84
84
44
3C
04
04
00
ENDCHAR
STARTCHAR C0114-r
ENCODING 114
SWIDTH 333 0
DWIDTH 4 0
BBX 3 7 1 0
BITMAP
E0
80
80
80
80
80
80
ENDCHAR
STARTCHAR C0115-s
ENCODING 115
SWIDTH 500 0
DWIDTH 6 0
BBX 5 7 0 0
BITMAP
78
40
40
30
08
08
78
ENDCHAR
STARTCHAR C0116-t
ENCODING 116
SWIDTH 333 0
DWIDTH 4 0
BBX 4 9 0 0
BITMAP
40
40
40
40
40
40
40
40
70
ENDCHAR
STARTCHAR C0117-u
ENCODING 117
SWIDTH 583 0
DWIDTH 7 0
BBX 5 7 1 0
BITMAP
08
88
88
88
88
88
70
ENDCHAR
STARTCHAR C0118-v
ENCODING 118
SWIDTH 500 0
DWIDTH 6 0
BBX 6 7 0 0
BITMAP
84
44
48
48
28
30
10
ENDCHAR
STARTCHAR C0119-w
ENCODING 119
SWIDTH 833 0
DWIDTH 10 0
BBX 9 7 0 0
BITMAP
9400
4C80
4880
4900
2D00
3500
1200
ENDCHAR
STARTCHAR C0120-x
ENCODING 120
SWIDTH 500 0
DWIDTH 6 0
BBX 6 7 0 0
BITMAP
84
48
30
20
30
48
84
ENDCHAR
STARTCHAR C0121-y
ENCODING 121
SWIDTH 500 0
DWIDTH 6 0
BBX 6 10 0 -3
BITMAP
84
44
48
48
28
30
10
10
20
60
ENDCHAR
STARTCHAR C0122-z
ENCODING 122
SWIDTH 500 0
DWIDTH 6 0
BBX 5 7 0 0
BITMAP
78
08
10
20
20
40
F0
ENDCHAR
STARTCHAR C0123-{
ENCODING 123
SWIDTH 250 0
DWIDTH 3 0
BBX 1 9 1 0
BITMAP
80
80
80
80
80
80
80
80
80
ENDCHAR
STARTCHAR C0124-|
ENCODING 124
SWIDTH 250 0
DWIDTH 3 0
BBX 1 11 1 -2
BITMAP
80
80
80
80
80
80
80
80
80
80
80
ENDCHAR
STARTCHAR C0125-}
ENCODING 125
SWIDTH 250 0
DWIDTH 3 0
BBX 1 9 1 0
BITMAP
80
80
80
80
80
80
80
80
80
ENDCHAR
STARTCHAR C0126-~
ENCODING 126
SWIDTH 500 0
DWIDTH 6 0
BBX 4 2 1 3
BITMAP
C0
30
ENDCHAR
STARTCHAR C0127
ENCODING 127
SWIDTH 583 0
DWIDTH 7 0
BBX 6 9 1 -1
BITMAP
FC
C4
A4
A4
94
8C
8C
FC
00
ENDCHAR
STARTCHAR C0128
ENCODING 128
SWIDTH 833 0
DWIDTH 10 0
BBX 9 9 0 0
BITMAP
0F00
3080
2000
3C00
4000
3800
2000
1080
0F00
ENDCHAR
STARTCHAR C0129
ENCODING 129
SWIDTH 583 0
DWIDTH 7 0
BBX 6 9 1 -1
BITMAP
FC
C4
A4
A4
94
8C
8C
FC
00
ENDCHAR
STARTCHAR C0130
ENCODING 130
SWIDTH 250 0
DWIDTH 3 0
BBX 1 2 1 -1
BITMAP
80
80
ENDCHAR
STARTCHAR C0131
ENCODING 131
SWIDTH 500 0
DWIDTH 6 0
BBX 6 11 0 -2
BITMAP
1C
10
10
38
10
10
10
10
10
10
E0
ENDCHAR
STARTCHAR C0132
ENCODING 132
SWIDTH 333 0
DWIDTH 4 0
BBX 2 2 1 -1
BITMAP
C0
C0
ENDCHAR
STARTCHAR C0133
ENCODING 133
SWIDTH 416 0
DWIDTH 5 0
BBX 3 1 1 0
BITMAP
40
ENDCHAR
STARTCHAR C0134
ENCODING 134
SWIDTH 416 0
DWIDTH 5 0
BBX 4 11 0 -2
BITMAP
20
20
20
20
20
F0
20
20
20
20
20
ENDCHAR
STARTCHAR C0135
ENCODING 135
SWIDTH 416 0
DWIDTH 5 0
BBX 3 11 1 -2
BITMAP
40
40
40
40
40
E0
40
E0
40
40
40
ENDCHAR
STARTCHAR C0136
ENCODING 136
SWIDTH 333 0
DWIDTH 4 0
BBX 2 2 1 8
BITMAP
80
40
ENDCHAR
STARTCHAR C0137
ENCODING 137
SWIDTH 1000 0
DWIDTH 12 0
BBX 11 9 1 0
BITMAP
E200
A400
E800
0800
1000
2000
4EE0
9320
0EE0
ENDCHAR
STARTCHAR C0138
ENCODING 138
SWIDTH 583 0
DWIDTH 7 0
BBX 7 12 0 0
BITMAP
08
10
00
3C
40
40
40
38
06
02
02
7C
ENDCHAR
STARTCHAR C0139
ENCODING 139
SWIDTH 333 0
DWIDTH 4 0
BBX 3 4 0 1
BITMAP
20
40
40
20
ENDCHAR
STARTCHAR C0140
ENCODING 140
SWIDTH 1166 0
DWIDTH 14 0
BBX 13 9 1 0
BITMAP
7DF0
8300
8300
8100
81F0
8100
8300
8300
7DF8
ENDCHAR
STARTCHAR C0141
ENCODING 141
SWIDTH 583 0
DWIDTH 7 0
BBX 6 9 1 -1
BITMAP
FC
C4
A4
A4
94
8C
8C
FC
00
ENDCHAR
STARTCHAR C0142
ENCODING 142
SWIDTH 666 0
DWIDTH 8 0
BBX 7 12 0 0
BITMAP
08
10
00
FE
02
04
08
10
20
20
40
FE
ENDCHAR
STARTCHAR C0143
ENCODING 143
SWIDTH 583 0
DWIDTH 7 0
BBX 6 9 1 -1
BITMAP
FC
C4
A4
A4
94
8C
8C
FC
00
ENDCHAR
STARTCHAR C0144
ENCODING 144
SWIDTH 583 0
DWIDTH 7 0
BBX 6 9 1 -1
BITMAP
FC
C4
A4
A4
94
8C
8C
FC
00
ENDCHAR
STARTCHAR C0145
ENCODING 145
SWIDTH 166 0
DWIDTH 2 0
BBX 1 2 1 7
BITMAP
80
80
ENDCHAR
STARTCHAR C0146
ENCODING 146
SWIDTH 166 0
DWIDTH 2 0
BBX 1 2 1 7
BITMAP
80
80
ENDCHAR
STARTCHAR C0147
ENCODING 147
SWIDTH 250 0
DWIDTH 3 0
BBX 1 2 1 7
BITMAP
00
00
ENDCHAR
STARTCHAR C0148
ENCODING 148
SWIDTH 250 0
DWIDTH 3 0
BBX 2 2 1 7
BITMAP
40
40
ENDCHAR
STARTCHAR C0149
ENCODING 149
SWIDTH 333 0
DWIDTH 4 0
BBX 2 2 1 3
BITMAP
C0
C0
ENDCHAR
STARTCHAR C0150
ENCODING 150
SWIDTH 583 0
DWIDTH 7 0
BBX 5 1 1 3
BITMAP
F8
ENDCHAR
STARTCHAR C0151
ENCODING 151
SWIDTH 916 0
DWIDTH 11 0
BBX 9 1 1 3
BITMAP
FF80
ENDCHAR
STARTCHAR C0152
ENCODING 152
SWIDTH 416 0
DWIDTH 5 0
BBX 3 2 1 8
BITMAP
80
60
ENDCHAR
STARTCHAR C0153
ENCODING 153
SWIDTH 666 0
DWIDTH 8 0
BBX 6 3 1 6
BITMAP
50
54
08
ENDCHAR
STARTCHAR C0154
ENCODING 154
SWIDTH 500 0
DWIDTH 6 0
BBX 5 10 0 0
BITMAP
10
20
00
78
40
40
30
08
08
78
ENDCHAR
STARTCHAR C0155
ENCODING 155
SWIDTH 333 0
DWIDTH 4 0
BBX 3 4 1 1
BITMAP
80
40
40
80
ENDCHAR
STARTCHAR C0156
ENCODING 156
SWIDTH 1000 0
DWIDTH 12 0
BBX 12 7 0 0
BITMAP
39E0
4610
8210
83F0
8200
4610
39E0
ENDCHAR
STARTCHAR C0157
ENCODING 157
SWIDTH 583 0
DWIDTH 7 0
BBX 6 9 1 -1
BITMAP
FC
C4
A4
A4
94
8C
8C
FC
00
ENDCHAR
STARTCHAR C0158
ENCODING 158
SWIDTH 500 0
DWIDTH 6 0
BBX 5 10 0 0
BITMAP
10
20
00
78
08
10
20
20
40
F0
ENDCHAR
STARTCHAR C0159
ENCODING 159
SWIDTH 666 0
DWIDTH 8 0
BBX 8 11 0 0
BITMAP
08
00
82
42
24
24
18
10
10
10
00
ENDCHAR
STARTCHAR C0160
ENCODING 160
SWIDTH 250 0
DWIDTH 3 0
BBX 1 1 0 -1
BITMAP
00
ENDCHAR
STARTCHAR C0161
ENCODING 161
SWIDTH 250 0
DWIDTH 3 0
BBX 1 8 1 0
BITMAP
80
00
80
80
80
80
80
80
ENDCHAR
STARTCHAR C0162
ENCODING 162
SWIDTH 583 0
DWIDTH 7 0
BBX 5 9 1 -1
BITMAP
20
70
A8
A0
A0
A0
A8
70
20
ENDCHAR
STARTCHAR C0163
ENCODING 163
SWIDTH 500 0
DWIDTH 6 0
BBX 4 9 1 0
BITMAP
70
80
80
80
60
40
40
80
F0
ENDCHAR
STARTCHAR C0164
ENCODING 164
SWIDTH 500 0
DWIDTH 6 0
BBX 5 4 1 2
BITMAP
F0
90
88
F0
ENDCHAR
STARTCHAR C0165
ENCODING 165
SWIDTH 666 0
DWIDTH 8 0
BBX 8 9 0 0
BITMAP
81
42
24
24
18
10
18
10
00
ENDCHAR
STARTCHAR C0166
ENCODING 166
SWIDTH 250 0
DWIDTH 3 0
BBX 1 11 1 -2
BITMAP
80
80
80
80
80
00
80
80
80
80
80
ENDCHAR
STARTCHAR C0167
ENCODING 167
SWIDTH 500 0
DWIDTH 6 0
BBX 4 10 1 -1
BITMAP
E0
80
80
E0
90
90
70
10
10
F0
ENDCHAR
STARTCHAR C0168
ENCODING 168
SWIDTH 333 0
DWIDTH 4 0
BBX 2 1 1 8
BITMAP
40
ENDCHAR
STARTCHAR C0169
ENCODING 169
SWIDTH 833 0
DWIDTH 10 0
BBX 8 9 1 0
BITMAP
7C
83
BD
C1
C1
C1
BD
81
7E
ENDCHAR
STARTCHAR C0170
ENCODING 170
SWIDTH 416 0
DWIDTH 5 0
BBX 3 5 1 4
BITMAP
E0
20
E0
A0
C0
ENDCHAR
STARTCHAR C0171
ENCODING 171
SWIDTH 583 0
DWIDTH 7 0
BBX 6 4 0 1
BITMAP
24
58
58
24
ENDCHAR
STARTCHAR C0172
ENCODING 172
SWIDTH 583 0
DWIDTH 7 0
BBX 5 3 1 1
BITMAP
F8
08
00
ENDCHAR
STARTCHAR C0173
ENCODING 173
SWIDTH 583 0
DWIDTH 7 0
BBX 5 1 1 3
BITMAP
F8
ENDCHAR
STARTCHAR C0174
ENCODING 174
SWIDTH 833 0
DWIDTH 10 0
BBX 8 9 1 0
BITMAP
7C
83
BD
A5
B5
A9
A5
81
7E
ENDCHAR
STARTCHAR C0175
ENCODING 175
SWIDTH 416 0
DWIDTH 5 0
BBX 3 1 1 8
BITMAP
E0
ENDCHAR
STARTCHAR C0176
ENCODING 176
SWIDTH 250 0
DWIDTH 3 0
BBX 2 2 1 7
BITMAP
80
80
ENDCHAR
STARTCHAR C0177
ENCODING 177
SWIDTH 500 0
DWIDTH 6 0
BBX 4 6 1 0
BITMAP
00
F0
40
00
00
F0
ENDCHAR
STARTCHAR C0178
ENCODING 178
SWIDTH 416 0
DWIDTH 5 0
BBX 4 5 0 5
BITMAP
70
10
30
40
E0
ENDCHAR
STARTCHAR C0179
ENCODING 179
SWIDTH 416 0
DWIDTH 5 0
BBX 4 5 0 5
BITMAP
70
10
10
10
70
ENDCHAR
STARTCHAR C0180
ENCODING 180
SWIDTH 250 0
DWIDTH 3 0
BBX 1 2 1 8
BITMAP
80
00
ENDCHAR
STARTCHAR C0181
ENCODING 181
SWIDTH 583 0
DWIDTH 7 0
BBX 5 10 1 -3
BITMAP
80
88
88
88
88
88
F0
80
80
80
ENDCHAR
STARTCHAR C0182
ENCODING 182
SWIDTH 583 0
DWIDTH 7 0
BBX 6 10 0 -1
BITMAP
3C
54
94
94
54
3C
14
14
14
04
ENDCHAR
STARTCHAR C0183
ENCODING 183
SWIDTH 166 0
DWIDTH 2 0
BBX 1 1 1 3
BITMAP
80
ENDCHAR
STARTCHAR C0184
ENCODING 184
SWIDTH 250 0
DWIDTH 3 0
BBX 3 2 0 -2
BITMAP
20
60
ENDCHAR
STARTCHAR C0185
ENCODING 185
SWIDTH 250 0
DWIDTH 3 0
BBX 3 5 0 5
BITMAP
40
40
40
40
40
ENDCHAR
STARTCHAR C0186
ENCODING 186
SWIDTH 416 0
DWIDTH 5 0
BBX 4 5 1 4
BITMAP
E0
90
90
90
E0
ENDCHAR
STARTCHAR C0187
ENCODING 187
SWIDTH 583 0
DWIDTH 7 0
BBX 5 4 1 1
BITMAP
A0
58
58
A0
ENDCHAR
STARTCHAR C0188
ENCODING 188
SWIDTH 750 0
DWIDTH 9 0
BBX 9 9 0 0
BITMAP
4000
4200
4400
4800
7000
1100
2280
4780
8000
ENDCHAR
STARTCHAR C0189
ENCODING 189
SWIDTH 750 0
DWIDTH 9 0
BBX 9 9 0 0
BITMAP
4100
4200
4400
4800
6B80
1080
2100
4200
0700
ENDCHAR
STARTCHAR C0190
ENCODING 190
SWIDTH 916 0
DWIDTH 11 0
BBX 10 9 0 0
BITMAP
7000
1080
1100
1200
7400
0480
0940
13C0
2000
ENDCHAR
STARTCHAR C0191
ENCODING 191
SWIDTH 500 0
DWIDTH 6 0
BBX 5 10 0 -3
BITMAP
10
00
10
10
20
40
80
80
88
70
ENDCHAR
STARTCHAR C0192
ENCODING 192
SWIDTH 666 0
DWIDTH 8 0
BBX 8 12 0 0
BITMAP
00
10
00
00
18
18
24
24
3C
42
42
81
ENDCHAR
STARTCHAR C0193
ENCODING 193
SWIDTH 666 0
DWIDTH 8 0
BBX 8 12 0 0
BITMAP
08
00
00
00
18
18
24
24
3C
42
42
81
ENDCHAR
STARTCHAR C0194
ENCODING 194
SWIDTH 666 0
DWIDTH 8 0
BBX 8 12 0 0
BITMAP
10
08
00
00
18
18
24
24
3C
42
42
81
ENDCHAR
STARTCHAR C0195
ENCODING 195
SWIDTH 666 0
DWIDTH 8 0
BBX 8 12 0 0
BITMAP
34
18
00
00
18
18
24
24
3C
42
42
81
ENDCHAR
STARTCHAR C0196
ENCODING 196
SWIDTH 666 0
DWIDTH 8 0
BBX 8 11 0 0
BITMAP
08
00
00
18
18
24
24
3C
42
42
81
ENDCHAR
STARTCHAR C0197
ENCODING 197
SWIDTH 666 0
DWIDTH 8 0
BBX 8 13 0 0
BITMAP
18
14
1C
00
00
18
18
24
24
3C
42
42
81
ENDCHAR
STARTCHAR C0198
ENCODING 198
SWIDTH 1000 0
DWIDTH 12 0
BBX 11 9 0 0
BITMAP
07E0
0C00
1400
1400
27C0
3C00
4400
8400
87E0
ENDCHAR
STARTCHAR C0199
ENCODING 199
SWIDTH 666 0
DWIDTH 8 0
BBX 7 11 1 -2
BITMAP
7C
82
80
80
80
80
80
82
7C
08
18
ENDCHAR
STARTCHAR C0200
ENCODING 200
SWIDTH 583 0
DWIDTH 7 0
BBX 6 12 1 0
BITMAP
00
20
00
FC
80
80
80
F8
80
80
80
FC
ENDCHAR
STARTCHAR C0201
ENCODING 201
SWIDTH 583 0
DWIDTH 7 0
BBX 6 12 1 0
BITMAP
10
00
00
FC
80
80
80
F8
80
80
80
FC
ENDCHAR
STARTCHAR C0202
ENCODING 202
SWIDTH 583 0
DWIDTH 7 0
BBX 6 12 1 0
BITMAP
20
10
00
FC
80
80
80
F8
80
80
80
FC
ENDCHAR
STARTCHAR C0203
ENCODING 203
SWIDTH 583 0
DWIDTH 7 0
BBX 6 11 1 0
BITMAP
10
00
FC
80
80
80
F8
80
80
80
FC
ENDCHAR
STARTCHAR C0204
ENCODING 204
SWIDTH 250 0
DWIDTH 3 0
BBX 1 12 1 0
BITMAP
00
80
00
80
80
80
80
80
80
80
80
80
ENDCHAR
STARTCHAR C0205
ENCODING 205
SWIDTH 250 0
DWIDTH 3 0
BBX 2 12 1 0
BITMAP
40
00
00
80
80
80
80
80
80
80
80
80
ENDCHAR
STARTCHAR C0206
ENCODING 206
SWIDTH 250 0
DWIDTH 3 0
BBX 2 12 1 0
BITMAP
80
40
00
80
80
80
80
80
80
80
80
80
ENDCHAR
STARTCHAR C0207
ENCODING 207
SWIDTH 250 0
DWIDTH 3 0
BBX 2 11 1 0
BITMAP
40
00
80
80
80
80
80
80
80
80
80
ENDCHAR
STARTCHAR C0208
ENCODING 208
SWIDTH 750 0
DWIDTH 9 0
BBX 8 9 0 0
BITMAP
7C
42
41
41
F1
41
41
42
7C
ENDCHAR
STARTCHAR C0209
ENCODING 209
SWIDTH 750 0
DWIDTH 9 0
BBX 7 12 1 0
BITMAP
34
18
00
80
C2
A2
A2
92
8A
86
86
82
ENDCHAR
STARTCHAR C0210
ENCODING 210
SWIDTH 750 0
DWIDTH 9 0
BBX 8 12 1 0
BITMAP
00
10
00
7C
82
82
81
81
81
82
82
7C
ENDCHAR
STARTCHAR C0211
ENCODING 211
SWIDTH 750 0
DWIDTH 9 0
BBX 8 12 1 0
BITMAP
08
00
00
7C
82
82
81
81
81
82
82
7C
ENDCHAR
STARTCHAR C0212
ENCODING 212
SWIDTH 750 0
DWIDTH 9 0
BBX 8 12 1 0
BITMAP
10
08
00
7C
82
82
81
81
81
82
82
7C
ENDCHAR
STARTCHAR C0213
ENCODING 213
SWIDTH 750 0
DWIDTH 9 0
BBX 8 12 1 0
BITMAP
34
18
00
7C
82
82
81
81
81
82
82
7C
ENDCHAR
STARTCHAR C0214
ENCODING 214
SWIDTH 750 0
DWIDTH 9 0
BBX 8 11 1 0
BITMAP
08
00
7C
82
82
81
81
81
82
82
7C
ENDCHAR
STARTCHAR C0215
ENCODING 215
SWIDTH 416 0
DWIDTH 5 0
BBX 4 4 1 1
BITMAP
90
60
60
90
ENDCHAR
STARTCHAR C0216
ENCODING 216
SWIDTH 750 0
DWIDTH 9 0
BBX 8 9 1 0
BITMAP
7C
84
8A
89
91
A1
A2
42
BC
ENDCHAR
STARTCHAR C0217
ENCODING 217
SWIDTH 750 0
DWIDTH 9 0
BBX 7 12 1 0
BITMAP
00
10
00
82
82
82
82
82
82
82
42
3C
ENDCHAR
STARTCHAR C0218
ENCODING 218
SWIDTH 750 0
DWIDTH 9 0
BBX 7 12 1 0
BITMAP
08
00
00
82
82
82
82
82
82
82
42
3C
ENDCHAR
STARTCHAR C0219
ENCODING 219
SWIDTH 750 0
DWIDTH 9 0
BBX 7 12 1 0
BITMAP
10
08
00
82
82
82
82
82
82
82
42
3C
ENDCHAR
STARTCHAR C0220
ENCODING 220
SWIDTH 750 0
DWIDTH 9 0
BBX 7 11 1 0
BITMAP
08
00
82
82
82
82
82
82
82
42
3C
ENDCHAR
STARTCHAR C0221
ENCODING 221
SWIDTH 666 0
DWIDTH 8 0
BBX 8 12 0 0
BITMAP
08
00
00
82
42
24
24
18
10
10
10
00
ENDCHAR
STARTCHAR C0222
ENCODING 222
SWIDTH 583 0
DWIDTH 7 0
BBX 6 9 1 0
BITMAP
80
80
F8
84
84
84
F8
80
80
ENDCHAR
STARTCHAR C0223
ENCODING 223
SWIDTH 583 0
DWIDTH 7 0
BBX 5 9 1 0
BITMAP
70
88
88
90
B0
88
88
88
B0
ENDCHAR
STARTCHAR C0224
ENCODING 224
SWIDTH 500 0
DWIDTH 6 0
BBX 6 10 0 0
BITMAP
00
10
00
78
04
04
7C
84
84
7C
ENDCHAR
STARTCHAR C0225
ENCODING 225
SWIDTH 500 0
DWIDTH 6 0
BBX 6 10 0 0
BITMAP
10
00
00
78
04
04
7C
84
84
7C
ENDCHAR
STARTCHAR C0226
ENCODING 226
SWIDTH 500 0
DWIDTH 6 0
BBX 6 10 0 0
BITMAP
20
10
00
78
04
04
7C
84
84
7C
ENDCHAR
STARTCHAR C0227
ENCODING 227
SWIDTH 500 0
DWIDTH 6 0
BBX 6 10 0 0
BITMAP
68
30
00
78
04
04
7C
84
84
7C
ENDCHAR
STARTCHAR C0228
ENCODING 228
SWIDTH 500 0
DWIDTH 6 0
BBX 6 9 0 0
BITMAP
10
00
78
04
04
7C
84
84
7C
ENDCHAR
STARTCHAR C0229
ENCODING 229
SWIDTH 500 0
DWIDTH 6 0
BBX 6 11 0 0
BITMAP
30
28
38
00
78
04
04
7C
84
84
7C
ENDCHAR
STARTCHAR C0230
ENCODING 230
SWIDTH 916 0
DWIDTH 11 0
BBX 11 7 0 0
BITMAP
7B80
0440
0420
7BE0
8400
8400
7BC0
ENDCHAR
STARTCHAR C0231
ENCODING 231
SWIDTH 583 0
DWIDTH 7 0
BBX 6 9 0 -2
BITMAP
38
44
80
80
80
44
38
08
18
ENDCHAR
STARTCHAR C0232
ENCODING 232
SWIDTH 583 0
DWIDTH 7 0
BBX 7 10 0 0
BITMAP
00
10
00
38
44
82
FE
80
44
38
ENDCHAR
STARTCHAR C0233
ENCODING 233
SWIDTH 583 0
DWIDTH 7 0
BBX 7 10 0 0
BITMAP
08
00
00
38
44
82
FE
80
44
38
ENDCHAR
STARTCHAR C0234
ENCODING 234
SWIDTH 583 0
DWIDTH 7 0
BBX 7 10 0 0
BITMAP
10
08
00
38
44
82
FE
80
44
38
ENDCHAR
STARTCHAR C0235
ENCODING 235
SWIDTH 583 0
DWIDTH 7 0
BBX 7 9 0 0
BITMAP
08
00
38
44
82
FE
80
44
38
ENDCHAR
STARTCHAR C0236
ENCODING 236
SWIDTH 166 0
DWIDTH 2 0
BBX 1 10 1 0
BITMAP
00
80
00
80
80
80
80
80
80
80
ENDCHAR
STARTCHAR C0237
ENCODING 237
SWIDTH 166 0
DWIDTH 2 0
BBX 1 10 1 0
BITMAP
80
00
00
80
80
80
80
80
80
80
ENDCHAR
STARTCHAR C0238
ENCODING 238
SWIDTH 166 0
DWIDTH 2 0
BBX 2 10 0 0
BITMAP
80
40
00
40
40
40
40
40
40
40
ENDCHAR
STARTCHAR C0239
ENCODING 239
SWIDTH 166 0
DWIDTH 2 0
BBX 2 9 0 0
BITMAP
40
00
40
40
40
40
40
40
40
ENDCHAR
STARTCHAR C0240
ENCODING 240
SWIDTH 583 0
DWIDTH 7 0
BBX 6 9 1 0
BITMAP
28
30
08
74
8C
84
84
88
70
ENDCHAR
STARTCHAR C0241
ENCODING 241
SWIDTH 583 0
DWIDTH 7 0
BBX 5 10 1 0
BITMAP
68
30
00
F0
88
88
88
88
88
88
ENDCHAR
STARTCHAR C0242
ENCODING 242
SWIDTH 583 0
DWIDTH 7 0
BBX 7 10 0 0
BITMAP
00
10
00
38
44
82
82
82
44
38
ENDCHAR
STARTCHAR C0243
ENCODING 243
SWIDTH 583 0
DWIDTH 7 0
BBX 7 10 0 0
BITMAP
08
00
00
38
44
82
82
82
44
38
ENDCHAR
STARTCHAR C0244
ENCODING 244
SWIDTH 583 0
DWIDTH 7 0
BBX 7 10 0 0
BITMAP
10
08
00
38
44
82
82
82
44
38
ENDCHAR
STARTCHAR C0245
ENCODING 245
SWIDTH 583 0
DWIDTH 7 0
BBX 7 10 0 0
BITMAP
34
18
00
38
44
82
82
82
44
38
ENDCHAR
STARTCHAR C0246
ENCODING 246
SWIDTH 583 0
DWIDTH 7 0
BBX 7 9 0 0
BITMAP
08
00
38
44
82
82
82
44
38
ENDCHAR
STARTCHAR C0247
ENCODING 247
SWIDTH 500 0
DWIDTH 6 0
BBX 5 5 1 1
BITMAP
20
00
F8
00
20
ENDCHAR
STARTCHAR C0248
ENCODING 248
SWIDTH 583 0
DWIDTH 7 0
BBX 7 7 0 0
BITMAP
3C
4C
8A
92
A2
64
78
ENDCHAR
STARTCHAR C0249
ENCODING 249
SWIDTH 583 0
DWIDTH 7 0
BBX 5 10 1 0
BITMAP
00
20
00
08
88
88
88
88
88
70
ENDCHAR
STARTCHAR C0250
ENCODING 250
SWIDTH 583 0
DWIDTH 7 0
BBX 5 10 1 0
BITMAP
10
00
00
08
88
88
88
88
88
70
ENDCHAR
STARTCHAR C0251
ENCODING 251
SWIDTH 583 0
DWIDTH 7 0
BBX 5 10 1 0
BITMAP
20
10
00
08
88
88
88
88
88
70
ENDCHAR
STARTCHAR C0252
ENCODING 252
SWIDTH 583 0
DWIDTH 7 0
BBX 5 9 1 0
BITMAP
10
00
08
88
88
88
88
88
70
ENDCHAR
STARTCHAR C0253
ENCODING 253
SWIDTH 500 0
DWIDTH 6 0
BBX 6 13 0 -3
BITMAP
08
00
00
84
44
48
48
28
30
10
10
20
60
ENDCHAR
STARTCHAR C0254
ENCODING 254
SWIDTH 583 0
DWIDTH 7 0
BBX 6 12 1 -3
BITMAP
80
80
F0
88
84
84
84
88
F0
80
80
80
ENDCHAR
STARTCHAR C0255
ENCODING 255
SWIDTH 500 0
DWIDTH 6 0
BBX 6 12 0 -3
BITMAP
08
00
84
44
48
48
28
30
10
10
20
60
ENDCHAR
ENDFONT

