STARTFONT 2.1
COMMENT 
COMMENT This file has been produced by ttf2bdf written by Subhabrata Biswas
COMMENT 
COMMENT For comments, questions, bug reports, send a mail to
COMMENT                                           subhabrata.biswas@usa.net
COMMENT 
FONT -*-Raleway-Bold-R-Normal--24-180-96-96-c-14--fontspecific
SIZE 18 96 96
FONTBOUNDINGBOX 37 34 -5 -5
STARTPROPERTIES 15
FOUNDRY "Misc"
FAMILY_NAME "Raleway"
WEIGHT_NAME "Bold"
SLANT "R"
SETWIDTH_NAME "Normal"
PIXEL_SIZE 17
POINT_SIZE 180
RESOLUTION_X 96
RESOLUTION_Y 96
SPACING "C"
CHARSET_ENCODING "fontspecific"
FONT_ASCENT 28
FONT_DESCENT 6
DEFAULT_CHAR 1
COPYRIGHT "You may wish to put your copyright here"
ENDPROPERTIES
CHARS 255
STARTCHAR C0001
ENCODING 1
SWIDTH 625 0
DWIDTH 15 0
BBX 15 19 1 -2
BITMAP
1000
7FE2
5BFC
5814
4C08
4C08
4608
6308
6308
6188
6088
60C8
7068
7028
7038
7018
7FF4
6008
0000
ENDCHAR
STARTCHAR C0002
ENCODING 2
SWIDTH 625 0
DWIDTH 15 0
BBX 15 19 1 -2
BITMAP
1000
7FE2
5BFC
5814
4C08
4C08
4608
6308
6308
6188
6088
60C8
7068
7028
7038
7018
7FF4
6008
0000
ENDCHAR
STARTCHAR C0003
ENCODING 3
SWIDTH 625 0
DWIDTH 15 0
BBX 15 19 1 -2
BITMAP
1000
7FE2
5BFC
5814
4C08
4C08
4608
6308
6308
6188
6088
60C8
7068
7028
7038
7018
7FF4
6008
0000
ENDCHAR
STARTCHAR C0004
ENCODING 4
SWIDTH 625 0
DWIDTH 15 0
BBX 15 19 1 -2
BITMAP
1000
7FE2
5BFC
5814
4C08
4C08
4608
6308
6308
6188
6088
60C8
7068
7028
7038
7018
7FF4
6008
0000
ENDCHAR
STARTCHAR C0005
ENCODING 5
SWIDTH 625 0
DWIDTH 15 0
BBX 15 19 1 -2
BITMAP
1000
7FE2
5BFC
5814
4C08
4C08
4608
6308
6308
6188
6088
60C8
7068
7028
7038
7018
7FF4
6008
0000
ENDCHAR
STARTCHAR C0006
ENCODING 6
SWIDTH 625 0
DWIDTH 15 0
BBX 15 19 1 -2
BITMAP
1000
7FE2
5BFC
5814
4C08
4C08
4608
6308
6308
6188
6088
60C8
7068
7028
7038
7018
7FF4
6008
0000
ENDCHAR
STARTCHAR C0007
ENCODING 7
SWIDTH 625 0
DWIDTH 15 0
BBX 15 19 1 -2
BITMAP
1000
7FE2
5BFC
5814
4C08
4C08
4608
6308
6308
6188
6088
60C8
7068
7028
7038
7018
7FF4
6008
0000
ENDCHAR
STARTCHAR C0008
ENCODING 8
SWIDTH 625 0
DWIDTH 15 0
BBX 15 19 1 -2
BITMAP
1000
7FE2
5BFC
5814
4C08
4C08
4608
6308
6308
6188
6088
60C8
7068
7028
7038
7018
7FF4
6008
0000
ENDCHAR
STARTCHAR C0009
ENCODING 9
SWIDTH 625 0
DWIDTH 15 0
BBX 15 19 1 -2
BITMAP
1000
7FE2
5BFC
5814
4C08
4C08
4608
6308
6308
6188
6088
60C8
7068
7028
7038
7018
7FF4
6008
0000
ENDCHAR
STARTCHAR C0010
ENCODING 10
SWIDTH 625 0
DWIDTH 15 0
BBX 15 19 1 -2
BITMAP
1000
7FE2
5BFC
5814
4C08
4C08
4608
6308
6308
6188
6088
60C8
7068
7028
7038
7018
7FF4
6008
0000
ENDCHAR
STARTCHAR C0011
ENCODING 11
SWIDTH 625 0
DWIDTH 15 0
BBX 15 19 1 -2
BITMAP
1000
7FE2
5BFC
5814
4C08
4C08
4608
6308
6308
6188
6088
60C8
7068
7028
7038
7018
7FF4
6008
0000
ENDCHAR
STARTCHAR C0012
ENCODING 12
SWIDTH 625 0
DWIDTH 15 0
BBX 15 19 1 -2
BITMAP
1000
7FE2
5BFC
5814
4C08
4C08
4608
6308
6308
6188
6088
60C8
7068
7028
7038
7018
7FF4
6008
0000
ENDCHAR
STARTCHAR C0013
ENCODING 13
SWIDTH 0 0
DWIDTH 0 0
BBX 1 1 0 -1
BITMAP
00
ENDCHAR
STARTCHAR C0014
ENCODING 14
SWIDTH 625 0
DWIDTH 15 0
BBX 15 19 1 -2
BITMAP
1000
7FE2
5BFC
5814
4C08
4C08
4608
6308
6308
6188
6088
60C8
7068
7028
7038
7018
7FF4
6008
0000
ENDCHAR
STARTCHAR C0015
ENCODING 15
SWIDTH 625 0
DWIDTH 15 0
BBX 15 19 1 -2
BITMAP
1000
7FE2
5BFC
5814
4C08
4C08
4608
6308
6308
6188
6088
60C8
7068
7028
7038
7018
7FF4
6008
0000
ENDCHAR
STARTCHAR C0016
ENCODING 16
SWIDTH 625 0
DWIDTH 15 0
BBX 15 19 1 -2
BITMAP
1000
7FE2
5BFC
5814
4C08
4C08
4608
6308
6308
6188
6088
60C8
7068
7028
7038
7018
7FF4
6008
0000
ENDCHAR
STARTCHAR C0017
ENCODING 17
SWIDTH 625 0
DWIDTH 15 0
BBX 15 19 1 -2
BITMAP
1000
7FE2
5BFC
5814
4C08
4C08
4608
6308
6308
6188
6088
60C8
7068
7028
7038
7018
7FF4
6008
0000
ENDCHAR
STARTCHAR C0018
ENCODING 18
SWIDTH 625 0
DWIDTH 15 0
BBX 15 19 1 -2
BITMAP
1000
7FE2
5BFC
5814
4C08
4C08
4608
6308
6308
6188
6088
60C8
7068
7028
7038
7018
7FF4
6008
0000
ENDCHAR
STARTCHAR C0019
ENCODING 19
SWIDTH 625 0
DWIDTH 15 0
BBX 15 19 1 -2
BITMAP
1000
7FE2
5BFC
5814
4C08
4C08
4608
6308
6308
6188
6088
60C8
7068
7028
7038
7018
7FF4
6008
0000
ENDCHAR
STARTCHAR C0020
ENCODING 20
SWIDTH 625 0
DWIDTH 15 0
BBX 15 19 1 -2
BITMAP
1000
7FE2
5BFC
5814
4C08
4C08
4608
6308
6308
6188
6088
60C8
7068
7028
7038
7018
7FF4
6008
0000
ENDCHAR
STARTCHAR C0021
ENCODING 21
SWIDTH 625 0
DWIDTH 15 0
BBX 15 19 1 -2
BITMAP
1000
7FE2
5BFC
5814
4C08
4C08
4608
6308
6308
6188
6088
60C8
7068
7028
7038
7018
7FF4
6008
0000
ENDCHAR
STARTCHAR C0022
ENCODING 22
SWIDTH 625 0
DWIDTH 15 0
BBX 15 19 1 -2
BITMAP
1000
7FE2
5BFC
5814
4C08
4C08
4608
6308
6308
6188
6088
60C8
7068
7028
7038
7018
7FF4
6008
0000
ENDCHAR
STARTCHAR C0023
ENCODING 23
SWIDTH 625 0
DWIDTH 15 0
BBX 15 19 1 -2
BITMAP
1000
7FE2
5BFC
5814
4C08
4C08
4608
6308
6308
6188
6088
60C8
7068
7028
7038
7018
7FF4
6008
0000
ENDCHAR
STARTCHAR C0024
ENCODING 24
SWIDTH 625 0
DWIDTH 15 0
BBX 15 19 1 -2
BITMAP
1000
7FE2
5BFC
5814
4C08
4C08
4608
6308
6308
6188
6088
60C8
7068
7028
7038
7018
7FF4
6008
0000
ENDCHAR
STARTCHAR C0025
ENCODING 25
SWIDTH 625 0
DWIDTH 15 0
BBX 15 19 1 -2
BITMAP
1000
7FE2
5BFC
5814
4C08
4C08
4608
6308
6308
6188
6088
60C8
7068
7028
7038
7018
7FF4
6008
0000
ENDCHAR
STARTCHAR C0026
ENCODING 26
SWIDTH 625 0
DWIDTH 15 0
BBX 15 19 1 -2
BITMAP
1000
7FE2
5BFC
5814
4C08
4C08
4608
6308
6308
6188
6088
60C8
7068
7028
7038
7018
7FF4
6008
0000
ENDCHAR
STARTCHAR C0027
ENCODING 27
SWIDTH 625 0
DWIDTH 15 0
BBX 15 19 1 -2
BITMAP
1000
7FE2
5BFC
5814
4C08
4C08
4608
6308
6308
6188
6088
60C8
7068
7028
7038
7018
7FF4
6008
0000
ENDCHAR
STARTCHAR C0028
ENCODING 28
SWIDTH 625 0
DWIDTH 15 0
BBX 15 19 1 -2
BITMAP
1000
7FE2
5BFC
5814
4C08
4C08
4608
6308
6308
6188
6088
60C8
7068
7028
7038
7018
7FF4
6008
0000
ENDCHAR
STARTCHAR C0029
ENCODING 29
SWIDTH 625 0
DWIDTH 15 0
BBX 15 19 1 -2
BITMAP
1000
7FE2
5BFC
5814
4C08
4C08
4608
6308
6308
6188
6088
60C8
7068
7028
7038
7018
7FF4
6008
0000
ENDCHAR
STARTCHAR C0030
ENCODING 30
SWIDTH 625 0
DWIDTH 15 0
BBX 15 19 1 -2
BITMAP
1000
7FE2
5BFC
5814
4C08
4C08
4608
6308
6308
6188
6088
60C8
7068
7028
7038
7018
7FF4
6008
0000
ENDCHAR
STARTCHAR C0031
ENCODING 31
SWIDTH 625 0
DWIDTH 15 0
BBX 15 19 1 -2
BITMAP
1000
7FE2
5BFC
5814
4C08
4C08
4608
6308
6308
6188
6088
60C8
7068
7028
7038
7018
7FF4
6008
0000
ENDCHAR
STARTCHAR C0032- 
ENCODING 32
SWIDTH 250 0
DWIDTH 6 0
BBX 1 1 0 -1
BITMAP
00
ENDCHAR
STARTCHAR C0033-!
ENCODING 33
SWIDTH 291 0
DWIDTH 7 0
BBX 3 17 2 0
BITMAP
E0
E0
E0
E0
E0
E0
E0
E0
E0
E0
E0
00
00
E0
E0
E0
E0
ENDCHAR
STARTCHAR C0034-"
ENCODING 34
SWIDTH 375 0
DWIDTH 9 0
BBX 7 5 1 12
BITMAP
EE
EE
EE
EE
EE
ENDCHAR
STARTCHAR C0035-#
ENCODING 35
SWIDTH 708 0
DWIDTH 17 0
BBX 15 17 1 0
BITMAP
031C
0718
0738
0638
0638
7FFE
7FFE
0C70
0C70
1C60
FFFC
FFFC
18E0
38C0
38C0
31C0
31C0
ENDCHAR
STARTCHAR C0036-$
ENCODING 36
SWIDTH 625 0
DWIDTH 15 0
BBX 13 22 1 -3
BITMAP
0300
0300
0FC0
3FF0
7FF0
7270
7200
F200
7E00
7F80
3FF0
0FF8
02F8
0278
4238
F278
FFF8
7FF0
1FC0
0300
0300
0300
ENDCHAR
STARTCHAR C0037-%
ENCODING 37
SWIDTH 791 0
DWIDTH 19 0
BBX 17 17 1 0
BITMAP
3C0200
7E0600
C70E00
C31C00
C71800
7E3000
3C6000
00C000
008000
018000
031E00
063F00
0C7180
186180
387380
703F00
201E00
ENDCHAR
STARTCHAR C0038-&
ENCODING 38
SWIDTH 708 0
DWIDTH 17 0
BBX 16 17 1 0
BITMAP
1F00
3FC0
7BC0
71C0
71C0
7BC0
3F80
1F1C
3F1C
7F9C
F3DC
E1F8
E0F8
F078
7FFC
3FFE
1F1F
ENDCHAR
STARTCHAR C0039-'
ENCODING 39
SWIDTH 250 0
DWIDTH 6 0
BBX 3 5 1 12
BITMAP
E0
E0
E0
E0
E0
ENDCHAR
STARTCHAR C0040-(
ENCODING 40
SWIDTH 291 0
DWIDTH 7 0
BBX 6 19 1 -1
BITMAP
18
1C
38
70
70
70
E0
E0
E0
E0
E0
E0
E0
70
70
70
38
3C
10
ENDCHAR
STARTCHAR C0041-)
ENCODING 41
SWIDTH 291 0
DWIDTH 7 0
BBX 6 19 1 -1
BITMAP
40
E0
E0
70
70
38
38
38
1C
1C
1C
38
38
38
78
70
F0
E0
40
ENDCHAR
STARTCHAR C0042-*
ENCODING 42
SWIDTH 333 0
DWIDTH 8 0
BBX 6 6 1 11
BITMAP
30
34
FC
30
78
48
ENDCHAR
STARTCHAR C0043-+
ENCODING 43
SWIDTH 416 0
DWIDTH 10 0
BBX 8 8 1 5
BITMAP
18
18
18
FF
FF
FF
18
18
ENDCHAR
STARTCHAR C0044-,
ENCODING 44
SWIDTH 250 0
DWIDTH 6 0
BBX 3 6 1 -3
BITMAP
E0
E0
E0
60
60
40
ENDCHAR
STARTCHAR C0045--
ENCODING 45
SWIDTH 416 0
DWIDTH 10 0
BBX 8 3 1 5
BITMAP
FF
FF
FF
ENDCHAR
STARTCHAR C0046-.
ENCODING 46
SWIDTH 208 0
DWIDTH 5 0
BBX 3 3 1 0
BITMAP
E0
E0
E0
ENDCHAR
STARTCHAR C0047-/
ENCODING 47
SWIDTH 708 0
DWIDTH 17 0
BBX 15 17 1 0
BITMAP
001E
003C
0038
0078
00F0
00E0
01E0
03C0
0380
0700
0F00
1E00
1C00
3C00
7800
7000
F000
ENDCHAR
STARTCHAR C0048-0
ENCODING 48
SWIDTH 625 0
DWIDTH 15 0
BBX 13 14 1 0
BITMAP
0F80
3FC0
3FE0
78F0
7070
F070
E078
E078
F070
7070
78F0
3FE0
3FC0
0F80
ENDCHAR
STARTCHAR C0049-1
ENCODING 49
SWIDTH 500 0
DWIDTH 12 0
BBX 10 14 1 0
BITMAP
1E00
3E00
FE00
FE00
CE00
0E00
0E00
0E00
0E00
0E00
0E00
7FC0
7FC0
7FC0
ENDCHAR
STARTCHAR C0050-2
ENCODING 50
SWIDTH 583 0
DWIDTH 14 0
BBX 11 14 1 0
BITMAP
1F80
7FC0
FFE0
61E0
00E0
01E0
03C0
0F80
3F00
7C00
7800
FFE0
FFE0
FFE0
ENDCHAR
STARTCHAR C0051-3
ENCODING 51
SWIDTH 541 0
DWIDTH 13 0
BBX 11 18 1 -4
BITMAP
1F80
7FC0
FFE0
61E0
00E0
00E0
01E0
0FC0
0F80
03C0
00E0
00E0
00E0
40E0
61E0
FFE0
FFC0
3F00
ENDCHAR
STARTCHAR C0052-4
ENCODING 52
SWIDTH 583 0
DWIDTH 14 0
BBX 13 17 0 -3
BITMAP
00E0
01E0
01E0
03E0
07E0
0EE0
1EE0
1CE0
38E0
70E0
FFF8
FFF8
FFF8
00E0
00E0
01E0
01E0
ENDCHAR
STARTCHAR C0053-5
ENCODING 53
SWIDTH 541 0
DWIDTH 13 0
BBX 12 18 1 -4
BITMAP
3FE0
3FE0
3FE0
7000
7000
7000
7F00
7FC0
FFE0
E1E0
00E0
00F0
00F0
40E0
E1E0
FFC0
7FC0
1F00
ENDCHAR
STARTCHAR C0054-6
ENCODING 54
SWIDTH 625 0
DWIDTH 15 0
BBX 13 17 1 0
BITMAP
0F80
1FE0
3FF0
7860
7000
6000
E780
FFE0
FFF0
F070
E078
E038
6070
7070
7FF0
3FE0
0F80
ENDCHAR
STARTCHAR C0055-7
ENCODING 55
SWIDTH 541 0
DWIDTH 13 0
BBX 12 17 1 -3
BITMAP
FFF0
FFF0
FFE0
01E0
01C0
03C0
0380
0780
0700
0F00
0E00
1E00
1C00
3C00
3800
7800
7000
ENDCHAR
STARTCHAR C0056-8
ENCODING 56
SWIDTH 583 0
DWIDTH 14 0
BBX 12 17 1 0
BITMAP
0F80
3FC0
7FE0
70F0
7070
7070
78E0
3FE0
3FC0
79F0
F070
E070
E070
F0F0
7FF0
3FE0
0F80
ENDCHAR
STARTCHAR C0057-9
ENCODING 57
SWIDTH 583 0
DWIDTH 14 0
BBX 12 18 1 -4
BITMAP
1F00
3FC0
7FE0
F0E0
E070
E070
E070
E070
F0F0
7FF0
3FF0
1F70
0070
00E0
60E0
7FC0
3FC0
1F00
ENDCHAR
STARTCHAR C0058-:
ENCODING 58
SWIDTH 250 0
DWIDTH 6 0
BBX 2 13 2 0
BITMAP
C0
C0
C0
00
00
00
00
00
00
00
C0
C0
C0
ENDCHAR
STARTCHAR C0059-;
ENCODING 59
SWIDTH 250 0
DWIDTH 6 0
BBX 3 16 2 -3
BITMAP
C0
C0
C0
00
00
00
00
00
00
00
C0
E0
E0
40
C0
C0
ENDCHAR
STARTCHAR C0060-<
ENCODING 60
SWIDTH 500 0
DWIDTH 12 0
BBX 10 14 1 -1
BITMAP
0040
01C0
03C0
0FC0
1F00
7E00
F800
F800
7E00
3F00
0FC0
03C0
01C0
0040
ENDCHAR
STARTCHAR C0061-=
ENCODING 61
SWIDTH 416 0
DWIDTH 10 0
BBX 8 6 1 4
BITMAP
FF
FF
00
00
FF
FF
ENDCHAR
STARTCHAR C0062->
ENCODING 62
SWIDTH 500 0
DWIDTH 12 0
BBX 11 14 1 -1
BITMAP
8000
E000
F800
7C00
3F00
0F80
07E0
07E0
1FC0
3F00
FC00
F800
E000
8000
ENDCHAR
STARTCHAR C0063-?
ENCODING 63
SWIDTH 500 0
DWIDTH 12 0
BBX 10 17 1 0
BITMAP
3E00
7F80
FF80
E1C0
01C0
01C0
0380
0F00
1E00
3800
3800
0000
0000
0000
3800
3800
3800
ENDCHAR
STARTCHAR C0064-@
ENCODING 64
SWIDTH 833 0
DWIDTH 20 0
BBX 18 18 1 -4
BITMAP
03F000
0E1C00
180700
23F100
67F980
441880
C018C0
801840
83E840
87F840
8E0840
CC18C0
4E1CC0
67FD80
23C700
180000
0E1800
03F000
ENDCHAR
STARTCHAR C0065-A
ENCODING 65
SWIDTH 666 0
DWIDTH 16 0
BBX 16 17 0 0
BITMAP
03C0
03C0
07E0
07E0
07E0
0E70
0E70
0E70
1C38
1C38
1FFC
3FFC
381C
781E
700E
700E
F00F
ENDCHAR
STARTCHAR C0066-B
ENCODING 66
SWIDTH 666 0
DWIDTH 16 0
BBX 14 17 2 0
BITMAP
FFE0
FFF0
FFF0
E078
E078
E078
E070
FFF0
FFC0
FFF0
E078
E038
E038
E038
FFF8
FFF0
FFE0
ENDCHAR
STARTCHAR C0067-C
ENCODING 67
SWIDTH 666 0
DWIDTH 16 0
BBX 15 17 1 0
BITMAP
07E0
1FF8
3FFC
7C1C
7808
F000
E000
E000
E000
E000
E000
F008
781E
7C3E
3FFC
1FF8
07E0
ENDCHAR
STARTCHAR C0068-D
ENCODING 68
SWIDTH 708 0
DWIDTH 17 0
BBX 14 17 2 0
BITMAP
FF80
FFE0
FFF0
E078
E03C
E03C
E01C
E01C
E01C
E01C
E01C
E03C
E03C
E0F8
FFF0
FFE0
FF80
ENDCHAR
STARTCHAR C0069-E
ENCODING 69
SWIDTH 583 0
DWIDTH 14 0
BBX 12 17 2 0
BITMAP
FFE0
FFE0
FFE0
E000
E000
E000
E000
FFC0
FFC0
FFC0
E000
E000
E000
E000
FFF0
FFF0
FFF0
ENDCHAR
STARTCHAR C0070-F
ENCODING 70
SWIDTH 583 0
DWIDTH 14 0
BBX 11 17 2 0
BITMAP
FFE0
FFE0
FFE0
E000
E000
E000
E000
FFC0
FFC0
FFC0
E000
E000
E000
E000
E000
E000
E000
ENDCHAR
STARTCHAR C0071-G
ENCODING 71
SWIDTH 708 0
DWIDTH 17 0
BBX 15 17 1 0
BITMAP
07E0
1FF8
3FFC
7C3E
780C
F000
E000
E000
E000
E07E
E07E
F006
780E
7C3E
3FFE
1FF6
07C6
ENDCHAR
STARTCHAR C0072-H
ENCODING 72
SWIDTH 750 0
DWIDTH 18 0
BBX 14 17 2 0
BITMAP
E01C
E01C
E01C
E01C
E01C
E01C
E01C
FFFC
FFFC
FFFC
E01C
E01C
E01C
E01C
E01C
E01C
E01C
ENDCHAR
STARTCHAR C0073-I
ENCODING 73
SWIDTH 291 0
DWIDTH 7 0
BBX 3 17 2 0
BITMAP
E0
E0
E0
E0
E0
E0
E0
E0
E0
E0
E0
E0
E0
E0
E0
E0
E0
ENDCHAR
STARTCHAR C0074-J
ENCODING 74
SWIDTH 500 0
DWIDTH 12 0
BBX 10 17 0 0
BITMAP
01C0
01C0
01C0
01C0
01C0
01C0
01C0
01C0
01C0
01C0
01C0
01C0
03C0
03C0
7F80
FF80
7E00
ENDCHAR
STARTCHAR C0075-K
ENCODING 75
SWIDTH 666 0
DWIDTH 16 0
BBX 14 17 2 0
BITMAP
E038
E078
E0F0
E1E0
E3C0
E780
EF00
EE00
FF00
FF80
F3C0
E1C0
E1E0
E0F0
E070
E078
E03C
ENDCHAR
STARTCHAR C0076-L
ENCODING 76
SWIDTH 583 0
DWIDTH 14 0
BBX 12 17 2 0
BITMAP
E000
E000
E000
E000
E000
E000
E000
E000
E000
E000
E000
E000
E000
E000
FFF0
FFF0
FFF0
ENDCHAR
STARTCHAR C0077-M
ENCODING 77
SWIDTH 875 0
DWIDTH 21 0
BBX 17 17 2 0
BITMAP
F00780
F00780
F80F80
F80F80
FC1F80
FC1F80
FE3B80
EE3B80
EF7380
E7F380
E3E380
E3E380
E1C380
E1C380
E00380
E00380
E00380
ENDCHAR
STARTCHAR C0078-N
ENCODING 78
SWIDTH 750 0
DWIDTH 18 0
BBX 15 17 2 0
BITMAP
E01E
F01E
F01E
F81E
FC1E
FE1E
FF1E
EF1E
E79E
E3DE
E1FE
E1FE
E0FE
E07E
E03E
E01E
E01E
ENDCHAR
STARTCHAR C0079-O
ENCODING 79
SWIDTH 750 0
DWIDTH 18 0
BBX 16 17 1 0
BITMAP
07E0
1FF8
3FFC
7C3E
780E
F00F
E007
E007
E007
E007
E007
F00F
780E
7C3E
3FFC
1FF8
07E0
ENDCHAR
STARTCHAR C0080-P
ENCODING 80
SWIDTH 625 0
DWIDTH 15 0
BBX 12 17 2 0
BITMAP
FF80
FFE0
FFE0
E0F0
E070
E070
E070
E0F0
FFF0
FFE0
FF80
E000
E000
E000
E000
E000
E000
ENDCHAR
STARTCHAR C0081-Q
ENCODING 81
SWIDTH 750 0
DWIDTH 18 0
BBX 16 17 1 0
BITMAP
07E0
1FF8
3FFC
7C3E
780E
F00F
E007
E007
E007
E007
E007
F0FF
787E
7C3E
3FFC
1FFE
07E7
ENDCHAR
STARTCHAR C0082-R
ENCODING 82
SWIDTH 666 0
DWIDTH 16 0
BBX 14 17 2 0
BITMAP
FFC0
FFE0
FFF0
E070
E078
E078
E078
E070
FFF0
FFE0
FFC0
E1C0
E1E0
E0F0
E0F0
E078
E038
ENDCHAR
STARTCHAR C0083-S
ENCODING 83
SWIDTH 625 0
DWIDTH 15 0
BBX 13 17 1 0
BITMAP
0FC0
3FF0
7FF0
F070
F000
F000
F800
7F80
3FE0
0FF0
00F8
0078
4078
F078
FFF0
7FF0
1FC0
ENDCHAR
STARTCHAR C0084-T
ENCODING 84
SWIDTH 625 0
DWIDTH 15 0
BBX 15 17 0 0
BITMAP
FFFE
FFFE
FFFE
0380
0380
0380
0380
0380
0380
0380
0380
0380
0380
0380
0380
0380
0380
ENDCHAR
STARTCHAR C0085-U
ENCODING 85
SWIDTH 750 0
DWIDTH 18 0
BBX 14 17 2 0
BITMAP
E01C
E01C
E01C
E01C
E01C
E01C
E01C
E01C
E01C
E01C
E01C
E01C
F03C
7878
7FF8
3FF0
0FC0
ENDCHAR
STARTCHAR C0086-V
ENCODING 86
SWIDTH 666 0
DWIDTH 16 0
BBX 16 17 0 0
BITMAP
F007
700F
700E
781E
381C
381C
1C3C
1C38
1E38
0E78
0E70
0F70
07E0
07E0
03E0
03C0
03C0
ENDCHAR
STARTCHAR C0087-W
ENCODING 87
SWIDTH 1041 0
DWIDTH 25 0
BBX 25 17 0 0
BITMAP
F0E38380
70E38780
70738700
78770F00
38770E00
3C3F0E00
1C3E1E00
1C3E1C00
1E3E1C00
0E3E3800
0E773800
07777800
0773F000
07E3F000
03E1E000
03C1E000
01C1E000
ENDCHAR
STARTCHAR C0088-X
ENCODING 88
SWIDTH 666 0
DWIDTH 16 0
BBX 16 17 0 0
BITMAP
F00E
781E
383C
3C38
1E70
0EF0
0FE0
07C0
03C0
07C0
07E0
0EF0
1E70
1C78
383C
781C
F01E
ENDCHAR
STARTCHAR C0089-Y
ENCODING 89
SWIDTH 666 0
DWIDTH 16 0
BBX 16 17 0 0
BITMAP
F00E
701E
781C
3C3C
1C38
1E78
0E70
0FF0
07E0
07C0
03C0
03C0
03C0
03C0
03C0
03C0
03C0
ENDCHAR
STARTCHAR C0090-Z
ENCODING 90
SWIDTH 625 0
DWIDTH 15 0
BBX 13 17 1 0
BITMAP
FFF8
FFF8
FFF8
0070
00F0
01E0
03C0
0780
0700
0F00
1E00
3C00
7800
7000
FFF8
FFF8
FFF8
ENDCHAR
STARTCHAR C0091-[
ENCODING 91
SWIDTH 333 0
DWIDTH 8 0
BBX 4 19 2 -1
BITMAP
F0
F0
F0
E0
E0
E0
E0
E0
E0
E0
E0
E0
E0
E0
E0
E0
F0
F0
F0
ENDCHAR
STARTCHAR C0092-\
ENCODING 92
SWIDTH 625 0
DWIDTH 15 0
BBX 14 17 1 0
BITMAP
F000
7000
7800
3800
3C00
1E00
0E00
0F00
0700
0780
03C0
01C0
01E0
00F0
0070
0078
0038
ENDCHAR
STARTCHAR C0093-]
ENCODING 93
SWIDTH 333 0
DWIDTH 8 0
BBX 5 19 1 -1
BITMAP
F8
F8
F8
38
38
38
38
38
38
38
38
38
38
38
38
38
F8
F8
F8
ENDCHAR
STARTCHAR C0094-^
ENCODING 94
SWIDTH 583 0
DWIDTH 14 0
BBX 12 10 1 7
BITMAP
0F00
0F00
1F80
1F80
19C0
39C0
30C0
70E0
6060
E070
ENDCHAR
STARTCHAR C0095-_
ENCODING 95
SWIDTH 458 0
DWIDTH 11 0
BBX 9 3 1 -3
BITMAP
FF80
FF80
FF80
ENDCHAR
STARTCHAR C0096-`
ENCODING 96
SWIDTH 250 0
DWIDTH 6 0
BBX 4 3 1 14
BITMAP
E0
70
30
ENDCHAR
STARTCHAR C0097-a
ENCODING 97
SWIDTH 583 0
DWIDTH 14 0
BBX 12 13 1 0
BITMAP
1F00
FFC0
73E0
40E0
00E0
3FE0
7FE0
E0E0
E0E0
E0E0
F3F0
FF70
3C70
ENDCHAR
STARTCHAR C0098-b
ENCODING 98
SWIDTH 625 0
DWIDTH 15 0
BBX 14 18 1 0
BITMAP
F000
F000
F000
F000
F000
F3C0
FFF0
FFF0
F878
F038
F038
F038
F038
F038
F878
FFF0
EFE0
E7C0
ENDCHAR
STARTCHAR C0099-c
ENCODING 99
SWIDTH 583 0
DWIDTH 14 0
BBX 12 13 1 0
BITMAP
0F80
3FE0
7FF0
F0E0
E000
E000
E000
E000
E000
F0E0
7FF0
3FE0
0F80
ENDCHAR
STARTCHAR C0100-d
ENCODING 100
SWIDTH 625 0
DWIDTH 15 0
BBX 14 18 1 0
BITMAP
0038
0038
0038
0038
0038
1E38
3FB8
7FF8
F0F8
F078
E038
E038
E038
F078
F078
7FFC
3FFC
1F3C
ENDCHAR
STARTCHAR C0101-e
ENCODING 101
SWIDTH 583 0
DWIDTH 14 0
BBX 13 13 1 0
BITMAP
0F80
3FE0
79F0
F070
E078
E038
FFF8
FFF8
E000
F060
79F0
3FE0
0F80
ENDCHAR
STARTCHAR C0102-f
ENCODING 102
SWIDTH 375 0
DWIDTH 9 0
BBX 9 18 1 0
BITMAP
1F00
3F00
3F00
7800
7000
7000
FF00
FF00
7000
7000
7000
7000
7000
7000
7000
7000
7000
7000
ENDCHAR
STARTCHAR C0103-g
ENCODING 103
SWIDTH 625 0
DWIDTH 15 0
BBX 13 18 1 -5
BITMAP
1F38
3FB8
7FF8
F0F8
F078
E038
E038
E038
E078
F078
7FF8
3FB8
1F38
0078
6070
F9F0
7FE0
1F80
ENDCHAR
STARTCHAR C0104-h
ENCODING 104
SWIDTH 583 0
DWIDTH 14 0
BBX 12 18 1 0
BITMAP
F000
F000
F000
F000
F000
F3C0
FFE0
FFF0
F8F0
F070
F070
F070
F070
F070
F070
F070
F070
F070
ENDCHAR
STARTCHAR C0105-i
ENCODING 105
SWIDTH 250 0
DWIDTH 6 0
BBX 4 18 1 0
BITMAP
F0
F0
F0
00
00
F0
F0
F0
F0
F0
F0
F0
F0
F0
F0
F0
F0
F0
ENDCHAR
STARTCHAR C0106-j
ENCODING 106
SWIDTH 250 0
DWIDTH 6 0
BBX 8 23 -3 -5
BITMAP
07
07
07
00
00
07
07
07
07
07
07
07
07
07
07
07
07
07
07
0F
7E
FE
78
ENDCHAR
STARTCHAR C0107-k
ENCODING 107
SWIDTH 541 0
DWIDTH 13 0
BBX 12 18 1 0
BITMAP
F000
F000
F000
F000
F000
F0F0
F1E0
F1C0
F380
F700
FE00
FF00
FF80
F380
F1C0
F1E0
F0E0
F070
ENDCHAR
STARTCHAR C0108-l
ENCODING 108
SWIDTH 333 0
DWIDTH 8 0
BBX 7 18 1 0
BITMAP
F0
F0
F0
F0
F0
F0
F0
F0
F0
F0
F0
F0
F0
F0
F0
FC
7E
3C
ENDCHAR
STARTCHAR C0109-m
ENCODING 109
SWIDTH 916 0
DWIDTH 22 0
BBX 20 13 1 0
BITMAP
E3C3C0
EFE7E0
FFFFF0
F8F8F0
F07070
F07070
F07070
F07070
F07070
F07070
F07070
F07070
F07070
ENDCHAR
STARTCHAR C0110-n
ENCODING 110
SWIDTH 583 0
DWIDTH 14 0
BBX 12 13 1 0
BITMAP
E3C0
EFE0
FFF0
F8F0
F070
F070
F070
F070
F070
F070
F070
F070
F070
ENDCHAR
STARTCHAR C0111-o
ENCODING 111
SWIDTH 625 0
DWIDTH 15 0
BBX 13 13 1 0
BITMAP
0F80
3FE0
7FF0
F0F0
E078
E078
E038
E078
E078
F0F0
7FF0
3FE0
0F80
ENDCHAR
STARTCHAR C0112-p
ENCODING 112
SWIDTH 625 0
DWIDTH 15 0
BBX 14 18 1 -5
BITMAP
E7C0
EFE0
FFF0
F878
F038
F038
F038
F038
F038
F878
FFF0
FFF0
F3C0
F000
F000
F000
F000
F000
ENDCHAR
STARTCHAR C0113-q
ENCODING 113
SWIDTH 625 0
DWIDTH 15 0
BBX 13 18 1 -5
BITMAP
1F38
3FB8
7FF8
F0F8
F078
E038
E038
E038
E078
F0F8
7FF8
3FB8
1F38
0038
0038
0038
0038
0038
ENDCHAR
STARTCHAR C0114-r
ENCODING 114
SWIDTH 375 0
DWIDTH 9 0
BBX 8 13 1 0
BITMAP
E3
EF
EF
F8
F0
F0
F0
F0
F0
F0
F0
F0
F0
ENDCHAR
STARTCHAR C0115-s
ENCODING 115
SWIDTH 500 0
DWIDTH 12 0
BBX 11 13 0 0
BITMAP
0F80
3FE0
39E0
7040
7800
3E00
1FC0
07E0
00E0
60E0
79E0
7FC0
1F80
ENDCHAR
STARTCHAR C0116-t
ENCODING 116
SWIDTH 375 0
DWIDTH 9 0
BBX 8 17 1 0
BITMAP
70
70
70
70
FE
FE
70
70
70
70
70
70
70
78
7F
3F
3E
ENDCHAR
STARTCHAR C0117-u
ENCODING 117
SWIDTH 625 0
DWIDTH 15 0
BBX 13 13 1 0
BITMAP
F070
F070
F070
F070
F070
F070
F070
F070
F070
F0F0
7FF8
7F78
3E38
ENDCHAR
STARTCHAR C0118-v
ENCODING 118
SWIDTH 541 0
DWIDTH 13 0
BBX 13 13 0 0
BITMAP
F038
7070
7070
7870
38E0
38E0
1CE0
1CC0
1DC0
0FC0
0F80
0F80
0780
ENDCHAR
STARTCHAR C0119-w
ENCODING 119
SWIDTH 833 0
DWIDTH 20 0
BBX 20 13 0 0
BITMAP
E39C70
7198F0
71D8E0
71F8E0
38F1C0
38F1C0
1CF180
1CFB80
1DFB80
0F9F00
0F9F00
078E00
070E00
ENDCHAR
STARTCHAR C0120-x
ENCODING 120
SWIDTH 541 0
DWIDTH 13 0
BBX 13 13 0 0
BITMAP
7070
78F0
38E0
1DC0
1FC0
0F80
0700
0F80
1FC0
1DC0
38E0
70F0
F070
ENDCHAR
STARTCHAR C0121-y
ENCODING 121
SWIDTH 541 0
DWIDTH 13 0
BBX 13 18 0 -5
BITMAP
F038
7070
7070
3870
38E0
38E0
1CE0
1DC0
1FC0
0FC0
0F80
0780
0780
0700
0F00
3F00
3E00
3C00
ENDCHAR
STARTCHAR C0122-z
ENCODING 122
SWIDTH 500 0
DWIDTH 12 0
BBX 10 13 1 0
BITMAP
FFC0
FFC0
03C0
0380
0700
0E00
1C00
3C00
3800
7000
E000
FFC0
FFC0
ENDCHAR
STARTCHAR C0123-{
ENCODING 123
SWIDTH 333 0
DWIDTH 8 0
BBX 5 19 1 -1
BITMAP
78
78
78
70
70
70
70
70
F0
E0
F0
70
70
70
70
70
78
78
78
ENDCHAR
STARTCHAR C0124-|
ENCODING 124
SWIDTH 291 0
DWIDTH 7 0
BBX 3 22 2 -3
BITMAP
E0
E0
E0
E0
E0
E0
E0
E0
E0
E0
E0
E0
E0
E0
E0
E0
E0
E0
E0
E0
E0
E0
ENDCHAR
STARTCHAR C0125-}
ENCODING 125
SWIDTH 333 0
DWIDTH 8 0
BBX 6 19 1 -1
BITMAP
F0
F0
F0
30
30
30
30
38
3C
3C
3C
38
30
30
30
30
F0
F0
F0
ENDCHAR
STARTCHAR C0126-~
ENCODING 126
SWIDTH 583 0
DWIDTH 14 0
BBX 11 3 1 5
BITMAP
3C60
7FE0
C3C0
ENDCHAR
STARTCHAR C0127
ENCODING 127
SWIDTH 625 0
DWIDTH 15 0
BBX 15 19 1 -2
BITMAP
1000
7FE2
5BFC
5814
4C08
4C08
4608
6308
6308
6188
6088
60C8
7068
7028
7038
7018
7FF4
6008
0000
ENDCHAR
STARTCHAR C0128
ENCODING 128
SWIDTH 791 0
DWIDTH 19 0
BBX 17 17 1 0
BITMAP
01F800
07FE00
0FFF00
1F0F80
1E0300
3C0000
7FF000
FFE000
380000
FFE000
FFC000
3C0000
1E0300
0F0F80
0FFF00
03FE00
01F800
ENDCHAR
STARTCHAR C0129
ENCODING 129
SWIDTH 625 0
DWIDTH 15 0
BBX 15 19 1 -2
BITMAP
1000
7FE2
5BFC
5814
4C08
4C08
4608
6308
6308
6188
6088
60C8
7068
7028
7038
7018
7FF4
6008
0000
ENDCHAR
STARTCHAR C0130
ENCODING 130
SWIDTH 250 0
DWIDTH 6 0
BBX 4 7 1 -3
BITMAP
F0
F0
F0
F0
60
60
60
ENDCHAR
STARTCHAR C0131
ENCODING 131
SWIDTH 541 0
DWIDTH 13 0
BBX 11 22 1 -5
BITMAP
03E0
07E0
07E0
0F00
0E00
0E00
0E00
3FC0
3FC0
0E00
0E00
0E00
0E00
0E00
0E00
0E00
0E00
0E00
0E00
7E00
FC00
7800
ENDCHAR
STARTCHAR C0132
ENCODING 132
SWIDTH 416 0
DWIDTH 10 0
BBX 8 7 1 -3
BITMAP
F7
F7
F7
F7
63
67
66
ENDCHAR
STARTCHAR C0133
ENCODING 133
SWIDTH 583 0
DWIDTH 14 0
BBX 12 3 1 0
BITMAP
E770
E770
E770
ENDCHAR
STARTCHAR C0134
ENCODING 134
SWIDTH 458 0
DWIDTH 11 0
BBX 9 22 1 -3
BITMAP
1C00
1C00
1C00
1C00
1C00
1C00
1C00
1C00
1C00
1C00
1C00
FF80
FF80
FF80
1C00
1C00
1C00
1C00
1C00
1C00
1C00
1C00
ENDCHAR
STARTCHAR C0135
ENCODING 135
SWIDTH 458 0
DWIDTH 11 0
BBX 9 22 1 -3
BITMAP
1C00
1C00
1C00
1C00
1C00
1C00
1C00
FF80
FF80
FF80
1C00
1C00
1C00
FF80
FF80
FF80
1C00
1C00
1C00
1C00
1C00
1C00
ENDCHAR
STARTCHAR C0136
ENCODING 136
SWIDTH 375 0
DWIDTH 9 0
BBX 7 3 1 14
BITMAP
38
7C
C6
ENDCHAR
STARTCHAR C0137
ENCODING 137
SWIDTH 1166 0
DWIDTH 28 0
BBX 26 17 1 0
BITMAP
3C020000
7E070000
C70E0000
C30C0000
C7180000
7E300000
3C600000
00C00000
00C00000
01800000
031E0F00
063F1FC0
0C7198C0
1C61B8C0
387198C0
703F1FC0
201E0F00
ENDCHAR
STARTCHAR C0138
ENCODING 138
SWIDTH 625 0
DWIDTH 15 0
BBX 13 22 1 0
BITMAP
18C0
0F80
0700
0000
0000
0FC0
3FF0
7FF0
F070
F000
F000
F800
7F80
3FE0
0FF0
00F8
0078
4078
F078
FFF0
7FF0
1FC0
ENDCHAR
STARTCHAR C0139
ENCODING 139
SWIDTH 375 0
DWIDTH 9 0
BBX 6 10 1 1
BITMAP
04
0C
1C
78
E0
E0
78
3C
0C
04
ENDCHAR
STARTCHAR C0140
ENCODING 140
SWIDTH 1083 0
DWIDTH 26 0
BBX 24 17 1 0
BITMAP
07C7FF
1FF7FF
3FFFFF
7C3F00
701F00
F00F00
E00F00
E007FE
E007FE
E007FE
E00F00
F00F00
701F00
7C3F00
3FFFFF
1FF7FF
07C7FF
ENDCHAR
STARTCHAR C0141
ENCODING 141
SWIDTH 625 0
DWIDTH 15 0
BBX 15 19 1 -2
BITMAP
1000
7FE2
5BFC
5814
4C08
4C08
4608
6308
6308
6188
6088
60C8
7068
7028
7038
7018
7FF4
6008
0000
ENDCHAR
STARTCHAR C0142
ENCODING 142
SWIDTH 625 0
DWIDTH 15 0
BBX 13 21 1 0
BITMAP
18C0
0F80
0700
0000
FFF8
FFF8
FFF8
0070
00F0
01E0
03C0
0780
0700
0F00
1E00
3C00
7800
7000
FFF8
FFF8
FFF8
ENDCHAR
STARTCHAR C0143
ENCODING 143
SWIDTH 625 0
DWIDTH 15 0
BBX 15 19 1 -2
BITMAP
1000
7FE2
5BFC
5814
4C08
4C08
4608
6308
6308
6188
6088
60C8
7068
7028
7038
7018
7FF4
6008
0000
ENDCHAR
STARTCHAR C0144
ENCODING 144
SWIDTH 625 0
DWIDTH 15 0
BBX 15 19 1 -2
BITMAP
1000
7FE2
5BFC
5814
4C08
4C08
4608
6308
6308
6188
6088
60C8
7068
7028
7038
7018
7FF4
6008
0000
ENDCHAR
STARTCHAR C0145
ENCODING 145
SWIDTH 250 0
DWIDTH 6 0
BBX 4 6 1 12
BITMAP
60
60
E0
F0
F0
F0
ENDCHAR
STARTCHAR C0146
ENCODING 146
SWIDTH 250 0
DWIDTH 6 0
BBX 4 6 1 12
BITMAP
F0
F0
F0
60
60
60
ENDCHAR
STARTCHAR C0147
ENCODING 147
SWIDTH 416 0
DWIDTH 10 0
BBX 9 6 1 12
BITMAP
6300
6300
E700
F780
F780
F780
ENDCHAR
STARTCHAR C0148
ENCODING 148
SWIDTH 416 0
DWIDTH 10 0
BBX 8 6 1 12
BITMAP
E7
E7
E7
63
67
66
ENDCHAR
STARTCHAR C0149
ENCODING 149
SWIDTH 375 0
DWIDTH 9 0
BBX 5 5 2 6
BITMAP
70
F8
F8
F8
70
ENDCHAR
STARTCHAR C0150
ENCODING 150
SWIDTH 583 0
DWIDTH 14 0
BBX 12 3 1 5
BITMAP
FFF0
FFF0
FFF0
ENDCHAR
STARTCHAR C0151
ENCODING 151
SWIDTH 916 0
DWIDTH 22 0
BBX 20 3 1 5
BITMAP
FFFFF0
FFFFF0
FFFFF0
ENDCHAR
STARTCHAR C0152
ENCODING 152
SWIDTH 416 0
DWIDTH 10 0
BBX 9 3 1 14
BITMAP
7180
FF00
CE00
ENDCHAR
STARTCHAR C0153
ENCODING 153
SWIDTH 833 0
DWIDTH 20 0
BBX 17 7 1 10
BITMAP
FEE380
FEF380
18F780
18DF80
18DD80
18CD80
18C180
ENDCHAR
STARTCHAR C0154
ENCODING 154
SWIDTH 500 0
DWIDTH 12 0
BBX 11 17 0 0
BITMAP
18C0
0F80
0700
0000
0F80
3FE0
39E0
7040
7800
3E00
1FC0
07E0
00E0
60E0
79E0
7FC0
1F80
ENDCHAR
STARTCHAR C0155
ENCODING 155
SWIDTH 375 0
DWIDTH 9 0
BBX 7 10 1 1
BITMAP
80
E0
F0
38
1E
1E
3C
F0
E0
80
ENDCHAR
STARTCHAR C0156
ENCODING 156
SWIDTH 1000 0
DWIDTH 24 0
BBX 23 13 1 0
BITMAP
0F83E0
3FCFF0
7FFE78
F0FC1C
E0781C
E0781E
E03FFE
E07FFE
E07800
F0FC18
7FFE3C
3FCFF8
0F83E0
ENDCHAR
STARTCHAR C0157
ENCODING 157
SWIDTH 625 0
DWIDTH 15 0
BBX 15 19 1 -2
BITMAP
1000
7FE2
5BFC
5814
4C08
4C08
4608
6308
6308
6188
6088
60C8
7068
7028
7038
7018
7FF4
6008
0000
ENDCHAR
STARTCHAR C0158
ENCODING 158
SWIDTH 500 0
DWIDTH 12 0
BBX 10 17 1 0
BITMAP
3180
1F00
0E00
0000
FFC0
FFC0
03C0
0380
0700
0E00
1C00
3C00
3800
7000
E000
FFC0
FFC0
ENDCHAR
STARTCHAR C0159
ENCODING 159
SWIDTH 666 0
DWIDTH 16 0
BBX 16 22 0 0
BITMAP
0CE0
0CE0
0EE0
0000
0000
F00E
701E
781C
3C3C
1C38
1E78
0E70
0FF0
07E0
07C0
03C0
03C0
03C0
03C0
03C0
03C0
03C0
ENDCHAR
STARTCHAR C0160
ENCODING 160
SWIDTH 250 0
DWIDTH 6 0
BBX 1 1 0 -1
BITMAP
00
ENDCHAR
STARTCHAR C0161
ENCODING 161
SWIDTH 291 0
DWIDTH 7 0
BBX 3 18 2 0
BITMAP
E0
E0
E0
E0
00
00
00
E0
E0
E0
E0
E0
E0
E0
E0
E0
E0
E0
ENDCHAR
STARTCHAR C0162
ENCODING 162
SWIDTH 583 0
DWIDTH 14 0
BBX 12 19 1 -3
BITMAP
0200
0200
0200
0F80
3FE0
7FF0
7260
F200
E200
E200
E200
F200
7A60
7FF0
3FE0
0F80
0200
0200
0200
ENDCHAR
STARTCHAR C0163
ENCODING 163
SWIDTH 541 0
DWIDTH 13 0
BBX 11 17 1 0
BITMAP
1F00
3FC0
7FE0
70C0
7000
7000
7000
3800
FF80
FF80
1C00
1800
3800
7000
FFE0
FFE0
63E0
ENDCHAR
STARTCHAR C0164
ENCODING 164
SWIDTH 541 0
DWIDTH 13 0
BBX 11 11 1 3
BITMAP
4040
FFE0
7FC0
71C0
70C0
60C0
70C0
71C0
7FC0
FFE0
4040
ENDCHAR
STARTCHAR C0165
ENCODING 165
SWIDTH 708 0
DWIDTH 17 0
BBX 15 17 1 0
BITMAP
F01E
701C
783C
3838
3C78
1C70
0EE0
3EF8
3FF8
07C0
0380
3FF8
3FF8
0380
0380
0380
0380
ENDCHAR
STARTCHAR C0166
ENCODING 166
SWIDTH 291 0
DWIDTH 7 0
BBX 3 22 2 -3
BITMAP
E0
E0
E0
E0
E0
E0
E0
E0
E0
E0
00
00
00
E0
E0
E0
E0
E0
E0
E0
E0
E0
ENDCHAR
STARTCHAR C0167
ENCODING 167
SWIDTH 541 0
DWIDTH 13 0
BBX 11 19 1 -2
BITMAP
1E00
7F80
7FC0
F180
E000
F000
7F00
7FC0
73C0
71C0
71C0
3FC0
1FC0
01E0
01E0
71E0
FFC0
7F80
1F00
ENDCHAR
STARTCHAR C0168
ENCODING 168
SWIDTH 458 0
DWIDTH 11 0
BBX 7 3 2 15
BITMAP
CE
CE
EE
ENDCHAR
STARTCHAR C0169
ENCODING 169
SWIDTH 833 0
DWIDTH 20 0
BBX 18 17 1 0
BITMAP
03F000
0E1C00
380700
21F180
67F880
4FFCC0
CE1840
9E0040
9C0040
9E0040
CE1840
4FFCC0
67F880
21F180
180700
0E1C00
03F000
ENDCHAR
STARTCHAR C0170
ENCODING 170
SWIDTH 458 0
DWIDTH 11 0
BBX 9 9 1 8
BITMAP
3C00
7E00
4700
7F00
E700
C300
C700
FF80
7B80
ENDCHAR
STARTCHAR C0171
ENCODING 171
SWIDTH 666 0
DWIDTH 16 0
BBX 13 10 1 1
BITMAP
0408
0C18
1C38
78F0
E1C0
E1C0
78F0
3C78
0C18
0408
ENDCHAR
STARTCHAR C0172
ENCODING 172
SWIDTH 625 0
DWIDTH 15 0
BBX 12 7 1 3
BITMAP
FFF0
FFF0
FFF0
0070
0070
0070
0070
ENDCHAR
STARTCHAR C0173
ENCODING 173
SWIDTH 583 0
DWIDTH 14 0
BBX 12 3 1 5
BITMAP
FFF0
FFF0
FFF0
ENDCHAR
STARTCHAR C0174
ENCODING 174
SWIDTH 833 0
DWIDTH 20 0
BBX 18 17 1 0
BITMAP
03F000
0E1C00
380700
27F180
67F880
4618C0
C618C0
C61840
87F840
C7E040
C670C0
4630C0
663880
261D80
180300
0E1C00
03F000
ENDCHAR
STARTCHAR C0175
ENCODING 175
SWIDTH 416 0
DWIDTH 10 0
BBX 8 2 1 15
BITMAP
FF
FF
ENDCHAR
STARTCHAR C0176
ENCODING 176
SWIDTH 291 0
DWIDTH 7 0
BBX 5 5 1 12
BITMAP
70
F8
D8
F8
70
ENDCHAR
STARTCHAR C0177
ENCODING 177
SWIDTH 458 0
DWIDTH 11 0
BBX 9 13 1 0
BITMAP
1C00
1C00
1C00
FF80
FF80
FF80
1C00
1C00
1C00
0000
FF80
FF80
FF80
ENDCHAR
STARTCHAR C0178
ENCODING 178
SWIDTH 416 0
DWIDTH 10 0
BBX 8 11 1 10
BITMAP
3E
FF
43
03
03
0E
3C
70
E0
FF
FF
ENDCHAR
STARTCHAR C0179
ENCODING 179
SWIDTH 416 0
DWIDTH 10 0
BBX 8 11 1 10
BITMAP
7C
FE
07
07
3E
3E
07
03
83
FE
7C
ENDCHAR
STARTCHAR C0180
ENCODING 180
SWIDTH 250 0
DWIDTH 6 0
BBX 4 3 1 14
BITMAP
70
60
E0
ENDCHAR
STARTCHAR C0181
ENCODING 181
SWIDTH 666 0
DWIDTH 16 0
BBX 13 18 2 -5
BITMAP
E0F0
E0F0
E0F0
E0F0
E0F0
E0F0
E0F0
E0F0
E0F0
F1F0
FFF8
FF78
EE78
E000
E000
E000
E000
E000
ENDCHAR
STARTCHAR C0182
ENCODING 182
SWIDTH 666 0
DWIDTH 16 0
BBX 14 19 1 -2
BITMAP
1FFC
3FFC
7F70
E770
E770
E770
E770
E770
E770
7F70
7FF0
1FF0
0770
0770
0770
0770
0770
0770
0770
ENDCHAR
STARTCHAR C0183
ENCODING 183
SWIDTH 208 0
DWIDTH 5 0
BBX 3 4 1 6
BITMAP
E0
E0
E0
E0
ENDCHAR
STARTCHAR C0184
ENCODING 184
SWIDTH 333 0
DWIDTH 8 0
BBX 5 6 1 -5
BITMAP
30
18
18
18
F8
F0
ENDCHAR
STARTCHAR C0185
ENCODING 185
SWIDTH 291 0
DWIDTH 7 0
BBX 6 11 1 10
BITMAP
70
F0
F0
30
30
30
30
30
30
FC
FC
ENDCHAR
STARTCHAR C0186
ENCODING 186
SWIDTH 458 0
DWIDTH 11 0
BBX 9 9 1 8
BITMAP
3E00
7F00
E300
C380
C380
C380
E300
7F00
3E00
ENDCHAR
STARTCHAR C0187
ENCODING 187
SWIDTH 666 0
DWIDTH 16 0
BBX 14 10 1 1
BITMAP
8100
E1C0
F1E0
3870
1E3C
1E3C
3C78
F1E0
E1C0
8100
ENDCHAR
STARTCHAR C0188
ENCODING 188
SWIDTH 875 0
DWIDTH 21 0
BBX 19 19 1 0
BITMAP
300000
F00000
F00200
300600
300E00
301C00
301800
303000
3060C0
FCC1C0
FD83C0
0186C0
030CC0
0618C0
0C1FE0
181FE0
3800C0
7000C0
2000C0
ENDCHAR
STARTCHAR C0189
ENCODING 189
SWIDTH 916 0
DWIDTH 22 0
BBX 20 18 1 0
BITMAP
700200
F00700
B00600
300C00
301800
303000
303000
306000
FCC7E0
FD8FF0
030C30
030030
060070
0C01E0
180700
380E00
700FF0
200FF0
ENDCHAR
STARTCHAR C0190
ENCODING 190
SWIDTH 1000 0
DWIDTH 24 0
BBX 22 19 1 0
BITMAP
7C0000
FE0000
070040
0700C0
3E01C0
3E0380
070300
030600
830C18
FE1838
7C3078
0030D8
006198
00C318
0183FC
0303FC
070018
0E0018
040018
ENDCHAR
STARTCHAR C0191
ENCODING 191
SWIDTH 458 0
DWIDTH 11 0
BBX 10 18 1 -5
BITMAP
0700
0700
0700
0000
0000
0000
0700
0E00
1E00
3C00
7800
E000
E000
E000
E180
FF80
7F80
3E00
ENDCHAR
STARTCHAR C0192
ENCODING 192
SWIDTH 666 0
DWIDTH 16 0
BBX 16 21 0 0
BITMAP
0700
0380
0180
0000
03C0
03C0
07E0
07E0
07E0
0E70
0E70
0E70
1C38
1C38
1FFC
3FFC
381C
781E
700E
700E
F00F
ENDCHAR
STARTCHAR C0193
ENCODING 193
SWIDTH 666 0
DWIDTH 16 0
BBX 16 21 0 0
BITMAP
00E0
00C0
01C0
0000
03C0
03C0
07E0
07E0
07E0
0E70
0E70
0E70
1C38
1C38
1FFC
3FFC
381C
781E
700E
700E
F00F
ENDCHAR
STARTCHAR C0194
ENCODING 194
SWIDTH 666 0
DWIDTH 16 0
BBX 16 21 0 0
BITMAP
01C0
03E0
0630
0000
03C0
03C0
07E0
07E0
07E0
0E70
0E70
0E70
1C38
1C38
1FFC
3FFC
381C
781E
700E
700E
F00F
ENDCHAR
STARTCHAR C0195
ENCODING 195
SWIDTH 666 0
DWIDTH 16 0
BBX 16 21 0 0
BITMAP
0718
0FF0
0CE0
0000
03C0
03C0
07E0
07E0
07E0
0E70
0E70
0E70
1C38
1C38
1FFC
3FFC
381C
781E
700E
700E
F00F
ENDCHAR
STARTCHAR C0196
ENCODING 196
SWIDTH 666 0
DWIDTH 16 0
BBX 16 22 0 0
BITMAP
0670
0670
0770
0000
0000
03C0
03C0
07E0
07E0
07E0
0E70
0E70
0E70
1C38
1C38
1FFC
3FFC
381C
781E
700E
700E
F00F
ENDCHAR
STARTCHAR C0197
ENCODING 197
SWIDTH 666 0
DWIDTH 16 0
BBX 16 22 0 0
BITMAP
03C0
0260
0260
03C0
0000
03C0
03C0
07E0
07E0
07E0
0E70
0E70
0E70
1C38
1C38
1FFC
3FFC
381C
781E
700E
700E
F00F
ENDCHAR
STARTCHAR C0198
ENCODING 198
SWIDTH 958 0
DWIDTH 23 0
BBX 23 17 -1 0
BITMAP
001FFE
003FFE
007FFE
007E00
00EE00
00EE00
01CE00
038FFC
038FFC
070FFC
0FFE00
0FFE00
1FFE00
1C0E00
380FFE
780FFE
700FFE
ENDCHAR
STARTCHAR C0199
ENCODING 199
SWIDTH 666 0
DWIDTH 16 0
BBX 15 22 1 -5
BITMAP
07E0
1FF8
3FFC
7C1C
7808
F000
E000
E000
E000
E000
E000
F008
781E
7C3E
3FFC
1FF8
07E0
00C0
00C0
00C0
07C0
0780
ENDCHAR
STARTCHAR C0200
ENCODING 200
SWIDTH 583 0
DWIDTH 14 0
BBX 12 21 2 0
BITMAP
1C00
0E00
0600
0000
FFE0
FFE0
FFE0
E000
E000
E000
E000
FFC0
FFC0
FFC0
E000
E000
E000
E000
FFF0
FFF0
FFF0
ENDCHAR
STARTCHAR C0201
ENCODING 201
SWIDTH 583 0
DWIDTH 14 0
BBX 12 21 2 0
BITMAP
0380
0300
0700
0000
FFE0
FFE0
FFE0
E000
E000
E000
E000
FFC0
FFC0
FFC0
E000
E000
E000
E000
FFF0
FFF0
FFF0
ENDCHAR
STARTCHAR C0202
ENCODING 202
SWIDTH 583 0
DWIDTH 14 0
BBX 12 21 2 0
BITMAP
0E00
1F00
3180
0000
FFE0
FFE0
FFE0
E000
E000
E000
E000
FFC0
FFC0
FFC0
E000
E000
E000
E000
FFF0
FFF0
FFF0
ENDCHAR
STARTCHAR C0203
ENCODING 203
SWIDTH 583 0
DWIDTH 14 0
BBX 12 22 2 0
BITMAP
3380
3380
3B80
0000
0000
FFE0
FFE0
FFE0
E000
E000
E000
E000
FFC0
FFC0
FFC0
E000
E000
E000
E000
FFF0
FFF0
FFF0
ENDCHAR
STARTCHAR C0204
ENCODING 204
SWIDTH 291 0
DWIDTH 7 0
BBX 5 21 0 0
BITMAP
E0
70
30
00
38
38
38
38
38
38
38
38
38
38
38
38
38
38
38
38
38
ENDCHAR
STARTCHAR C0205
ENCODING 205
SWIDTH 291 0
DWIDTH 7 0
BBX 4 21 2 0
BITMAP
70
60
E0
00
E0
E0
E0
E0
E0
E0
E0
E0
E0
E0
E0
E0
E0
E0
E0
E0
E0
ENDCHAR
STARTCHAR C0206
ENCODING 206
SWIDTH 291 0
DWIDTH 7 0
BBX 7 21 0 0
BITMAP
38
7C
C6
00
38
38
38
38
38
38
38
38
38
38
38
38
38
38
38
38
38
ENDCHAR
STARTCHAR C0207
ENCODING 207
SWIDTH 291 0
DWIDTH 7 0
BBX 7 22 0 0
BITMAP
CE
CE
EE
00
00
38
38
38
38
38
38
38
38
38
38
38
38
38
38
38
38
38
ENDCHAR
STARTCHAR C0208
ENCODING 208
SWIDTH 708 0
DWIDTH 17 0
BBX 15 17 1 0
BITMAP
7FC0
7FF0
7FF8
703C
701E
700E
700E
700E
FF0E
FF0E
700E
701E
701E
703C
7FF8
7FF0
7FC0
ENDCHAR
STARTCHAR C0209
ENCODING 209
SWIDTH 750 0
DWIDTH 18 0
BBX 15 21 2 0
BITMAP
0E30
1FE0
19C0
0000
E01E
F01E
F01E
F81E
FC1E
FE1E
FF1E
EF1E
E79E
E3DE
E1FE
E1FE
E0FE
E07E
E03E
E01E
E01E
ENDCHAR
STARTCHAR C0210
ENCODING 210
SWIDTH 750 0
DWIDTH 18 0
BBX 16 21 1 0
BITMAP
0700
0380
0180
0000
07E0
1FF8
3FFC
7C3E
780E
F00F
E007
E007
E007
E007
E007
F00F
780E
7C3E
3FFC
1FF8
07E0
ENDCHAR
STARTCHAR C0211
ENCODING 211
SWIDTH 750 0
DWIDTH 18 0
BBX 16 21 1 0
BITMAP
00E0
00C0
01C0
0000
07E0
1FF8
3FFC
7C3E
780E
F00F
E007
E007
E007
E007
E007
F00F
780E
7C3E
3FFC
1FF8
07E0
ENDCHAR
STARTCHAR C0212
ENCODING 212
SWIDTH 750 0
DWIDTH 18 0
BBX 16 21 1 0
BITMAP
01C0
03E0
0630
0000
07E0
1FF8
3FFC
7C3E
780E
F00F
E007
E007
E007
E007
E007
F00F
780E
7C3E
3FFC
1FF8
07E0
ENDCHAR
STARTCHAR C0213
ENCODING 213
SWIDTH 750 0
DWIDTH 18 0
BBX 16 21 1 0
BITMAP
0718
0FF0
0CE0
0000
07E0
1FF8
3FFC
7C3E
780E
F00F
E007
E007
E007
E007
E007
F00F
780E
7C3E
3FFC
1FF8
07E0
ENDCHAR
STARTCHAR C0214
ENCODING 214
SWIDTH 750 0
DWIDTH 18 0
BBX 16 22 1 0
BITMAP
0670
0670
0770
0000
0000
07E0
1FF8
3FFC
7C3E
780E
F00F
E007
E007
E007
E007
E007
F00F
780E
7C3E
3FFC
1FF8
07E0
ENDCHAR
STARTCHAR C0215
ENCODING 215
SWIDTH 458 0
DWIDTH 11 0
BBX 9 9 1 2
BITMAP
2100
7380
7F80
3F00
1E00
3F00
7F80
7380
2100
ENDCHAR
STARTCHAR C0216
ENCODING 216
SWIDTH 750 0
DWIDTH 18 0
BBX 16 17 1 0
BITMAP
07EF
1FFE
3FFC
7C3E
787E
F07F
E0F7
E1E7
E1C7
E387
E787
FF0F
7E0E
7E3E
3FFC
3FF8
7FE0
ENDCHAR
STARTCHAR C0217
ENCODING 217
SWIDTH 750 0
DWIDTH 18 0
BBX 14 21 2 0
BITMAP
0E00
0700
0300
0000
E01C
E01C
E01C
E01C
E01C
E01C
E01C
E01C
E01C
E01C
E01C
E01C
F03C
7878
7FF8
3FF0
0FC0
ENDCHAR
STARTCHAR C0218
ENCODING 218
SWIDTH 750 0
DWIDTH 18 0
BBX 14 21 2 0
BITMAP
01C0
0180
0380
0000
E01C
E01C
E01C
E01C
E01C
E01C
E01C
E01C
E01C
E01C
E01C
E01C
F03C
7878
7FF8
3FF0
0FC0
ENDCHAR
STARTCHAR C0219
ENCODING 219
SWIDTH 750 0
DWIDTH 18 0
BBX 14 21 2 0
BITMAP
0380
07C0
0C60
0000
E01C
E01C
E01C
E01C
E01C
E01C
E01C
E01C
E01C
E01C
E01C
E01C
F03C
7878
7FF8
3FF0
0FC0
ENDCHAR
STARTCHAR C0220
ENCODING 220
SWIDTH 750 0
DWIDTH 18 0
BBX 14 22 2 0
BITMAP
0CE0
0CE0
0EE0
0000
0000
E01C
E01C
E01C
E01C
E01C
E01C
E01C
E01C
E01C
E01C
E01C
E01C
F03C
7878
7FF8
3FF0
0FC0
ENDCHAR
STARTCHAR C0221
ENCODING 221
SWIDTH 666 0
DWIDTH 16 0
BBX 16 21 0 0
BITMAP
00E0
00C0
01C0
0000
F00E
701E
781C
3C3C
1C38
1E78
0E70
0FF0
07E0
07C0
03C0
03C0
03C0
03C0
03C0
03C0
03C0
ENDCHAR
STARTCHAR C0222
ENCODING 222
SWIDTH 583 0
DWIDTH 14 0
BBX 12 17 2 0
BITMAP
E000
E000
E000
FF80
FFC0
FFE0
E0F0
E070
E070
E070
E0F0
FFE0
FFC0
FF80
E000
E000
E000
ENDCHAR
STARTCHAR C0223
ENCODING 223
SWIDTH 541 0
DWIDTH 13 0
BBX 12 17 1 0
BITMAP
1F00
3FC0
7FC0
71C0
F1C0
F1C0
F780
F780
F7E0
F1E0
F0F0
F0F0
F0F0
F1E0
F7E0
F7C0
F700
ENDCHAR
STARTCHAR C0224
ENCODING 224
SWIDTH 583 0
DWIDTH 14 0
BBX 12 17 1 0
BITMAP
3800
1C00
0C00
0000
1F00
FFC0
73E0
40E0
00E0
3FE0
7FE0
E0E0
E0E0
E0E0
F3F0
FF70
3C70
ENDCHAR
STARTCHAR C0225
ENCODING 225
SWIDTH 583 0
DWIDTH 14 0
BBX 12 17 1 0
BITMAP
0700
0600
0E00
0000
1F00
FFC0
73E0
40E0
00E0
3FE0
7FE0
E0E0
E0E0
E0E0
F3F0
FF70
3C70
ENDCHAR
STARTCHAR C0226
ENCODING 226
SWIDTH 583 0
DWIDTH 14 0
BBX 12 17 1 0
BITMAP
0E00
1F00
3180
0000
1F00
FFC0
73E0
40E0
00E0
3FE0
7FE0
E0E0
E0E0
E0E0
F3F0
FF70
3C70
ENDCHAR
STARTCHAR C0227
ENCODING 227
SWIDTH 583 0
DWIDTH 14 0
BBX 12 17 1 0
BITMAP
38C0
7F80
6700
0000
1F00
FFC0
73E0
40E0
00E0
3FE0
7FE0
E0E0
E0E0
E0E0
F3F0
FF70
3C70
ENDCHAR
STARTCHAR C0228
ENCODING 228
SWIDTH 583 0
DWIDTH 14 0
BBX 12 18 1 0
BITMAP
3380
3380
3B80
0000
0000
1F00
FFC0
73E0
40E0
00E0
3FE0
7FE0
E0E0
E0E0
E0E0
F3F0
FF70
3C70
ENDCHAR
STARTCHAR C0229
ENCODING 229
SWIDTH 583 0
DWIDTH 14 0
BBX 12 18 1 0
BITMAP
1E00
1300
1300
1E00
0000
1F00
FFC0
73E0
40E0
00E0
3FE0
7FE0
E0E0
E0E0
E0E0
F3F0
FF70
3C70
ENDCHAR
STARTCHAR C0230
ENCODING 230
SWIDTH 916 0
DWIDTH 22 0
BBX 21 13 1 0
BITMAP
1F0F80
FFFFE0
71F9F0
00F070
00E078
3FE038
7FFFF8
E0FFF8
E0E000
E0F060
F3F8F0
FF3FE0
3C0F80
ENDCHAR
STARTCHAR C0231
ENCODING 231
SWIDTH 583 0
DWIDTH 14 0
BBX 12 18 1 -5
BITMAP
0F80
3FE0
7FF0
F0E0
E000
E000
E000
E000
E000
F0E0
7FF0
3FE0
0F80
0300
0300
0300
1F00
1E00
ENDCHAR
STARTCHAR C0232
ENCODING 232
SWIDTH 583 0
DWIDTH 14 0
BBX 13 17 1 0
BITMAP
1C00
0E00
0600
0000
0F80
3FE0
79F0
F070
E078
E038
FFF8
FFF8
E000
F060
79F0
3FE0
0F80
ENDCHAR
STARTCHAR C0233
ENCODING 233
SWIDTH 583 0
DWIDTH 14 0
BBX 13 17 1 0
BITMAP
0380
0300
0700
0000
0F80
3FE0
79F0
F070
E078
E038
FFF8
FFF8
E000
F060
79F0
3FE0
0F80
ENDCHAR
STARTCHAR C0234
ENCODING 234
SWIDTH 583 0
DWIDTH 14 0
BBX 13 17 1 0
BITMAP
0700
0F80
18C0
0000
0F80
3FE0
79F0
F070
E078
E038
FFF8
FFF8
E000
F060
79F0
3FE0
0F80
ENDCHAR
STARTCHAR C0235
ENCODING 235
SWIDTH 583 0
DWIDTH 14 0
BBX 13 18 1 0
BITMAP
19C0
19C0
1DC0
0000
0000
0F80
3FE0
79F0
F070
E078
E038
FFF8
FFF8
E000
F060
79F0
3FE0
0F80
ENDCHAR
STARTCHAR C0236
ENCODING 236
SWIDTH 250 0
DWIDTH 6 0
BBX 5 17 0 0
BITMAP
E0
70
30
00
78
78
78
78
78
78
78
78
78
78
78
78
78
ENDCHAR
STARTCHAR C0237
ENCODING 237
SWIDTH 250 0
DWIDTH 6 0
BBX 5 17 1 0
BITMAP
38
30
70
00
F0
F0
F0
F0
F0
F0
F0
F0
F0
F0
F0
F0
F0
ENDCHAR
STARTCHAR C0238
ENCODING 238
SWIDTH 250 0
DWIDTH 6 0
BBX 7 17 0 0
BITMAP
38
7C
C6
00
78
78
78
78
78
78
78
78
78
78
78
78
78
ENDCHAR
STARTCHAR C0239
ENCODING 239
SWIDTH 250 0
DWIDTH 6 0
BBX 7 18 0 0
BITMAP
CE
CE
EE
00
00
78
78
78
78
78
78
78
78
78
78
78
78
78
ENDCHAR
STARTCHAR C0240
ENCODING 240
SWIDTH 625 0
DWIDTH 15 0
BBX 13 18 1 0
BITMAP
1E20
07F0
03C0
07E0
04E0
0070
1F70
3FB0
7FF8
F078
E078
E038
E038
E078
F0F0
7FF0
3FE0
0F80
ENDCHAR
STARTCHAR C0241
ENCODING 241
SWIDTH 583 0
DWIDTH 14 0
BBX 12 17 1 0
BITMAP
1C60
3FC0
3380
0000
E3C0
EFE0
FFF0
F8F0
F070
F070
F070
F070
F070
F070
F070
F070
F070
ENDCHAR
STARTCHAR C0242
ENCODING 242
SWIDTH 625 0
DWIDTH 15 0
BBX 13 17 1 0
BITMAP
1C00
0E00
0600
0000
0F80
3FE0
7FF0
F0F0
E078
E078
E038
E078
E078
F0F0
7FF0
3FE0
0F80
ENDCHAR
STARTCHAR C0243
ENCODING 243
SWIDTH 625 0
DWIDTH 15 0
BBX 13 17 1 0
BITMAP
0380
0300
0700
0000
0F80
3FE0
7FF0
F0F0
E078
E078
E038
E078
E078
F0F0
7FF0
3FE0
0F80
ENDCHAR
STARTCHAR C0244
ENCODING 244
SWIDTH 625 0
DWIDTH 15 0
BBX 13 17 1 0
BITMAP
0700
0F80
18C0
0000
0F80
3FE0
7FF0
F0F0
E078
E078
E038
E078
E078
F0F0
7FF0
3FE0
0F80
ENDCHAR
STARTCHAR C0245
ENCODING 245
SWIDTH 625 0
DWIDTH 15 0
BBX 13 17 1 0
BITMAP
1C60
3FC0
3380
0000
0F80
3FE0
7FF0
F0F0
E078
E078
E038
E078
E078
F0F0
7FF0
3FE0
0F80
ENDCHAR
STARTCHAR C0246
ENCODING 246
SWIDTH 625 0
DWIDTH 15 0
BBX 13 18 1 0
BITMAP
19C0
19C0
1DC0
0000
0000
0F80
3FE0
7FF0
F0F0
E078
E078
E038
E078
E078
F0F0
7FF0
3FE0
0F80
ENDCHAR
STARTCHAR C0247
ENCODING 247
SWIDTH 500 0
DWIDTH 12 0
BBX 10 12 1 1
BITMAP
0C00
0E00
0E00
0000
FFC0
FFC0
FFC0
0000
0000
0C00
0C00
0E00
ENDCHAR
STARTCHAR C0248
ENCODING 248
SWIDTH 625 0
DWIDTH 15 0
BBX 13 13 1 0
BITMAP
0FB0
3FE0
7FF0
F0F0
E1F8
E378
E638
E478
EC78
F8F0
7FF0
7FE0
CF80
ENDCHAR
STARTCHAR C0249
ENCODING 249
SWIDTH 625 0
DWIDTH 15 0
BBX 13 17 1 0
BITMAP
1C00
0E00
0600
0000
F070
F070
F070
F070
F070
F070
F070
F070
F070
F0F0
7FF8
7F78
3E38
ENDCHAR
STARTCHAR C0250
ENCODING 250
SWIDTH 625 0
DWIDTH 15 0
BBX 13 17 1 0
BITMAP
0380
0300
0700
0000
F070
F070
F070
F070
F070
F070
F070
F070
F070
F0F0
7FF8
7F78
3E38
ENDCHAR
STARTCHAR C0251
ENCODING 251
SWIDTH 625 0
DWIDTH 15 0
BBX 13 17 1 0
BITMAP
0700
0F80
18C0
0000
F070
F070
F070
F070
F070
F070
F070
F070
F070
F0F0
7FF8
7F78
3E38
ENDCHAR
STARTCHAR C0252
ENCODING 252
SWIDTH 625 0
DWIDTH 15 0
BBX 13 18 1 0
BITMAP
19C0
19C0
1DC0
0000
0000
F070
F070
F070
F070
F070
F070
F070
F070
F070
F0F0
7FF8
7F78
3E38
ENDCHAR
STARTCHAR C0253
ENCODING 253
SWIDTH 541 0
DWIDTH 13 0
BBX 13 22 0 -5
BITMAP
01C0
0180
0380
0000
F038
7070
7070
3870
38E0
38E0
1CE0
1DC0
1FC0
0FC0
0F80
0780
0780
0700
0F00
3F00
3E00
3C00
ENDCHAR
STARTCHAR C0254
ENCODING 254
SWIDTH 583 0
DWIDTH 14 0
BBX 13 22 1 -5
BITMAP
F000
F000
F000
F000
F780
FFE0
FFE0
F8F0
F070
F078
F078
F078
F070
F8F0
FFE0
FFC0
F780
F000
F000
F000
F000
F000
ENDCHAR
STARTCHAR C0255
ENCODING 255
SWIDTH 541 0
DWIDTH 13 0
BBX 13 23 0 -5
BITMAP
19C0
19C0
1DC0
0000
0000
F038
7070
7070
3870
38E0
38E0
1CE0
1DC0
1FC0
0FC0
0F80
0780
0780
0700
0F00
3F00
3E00
3C00
ENDCHAR
ENDFONT

