STARTFONT 2.1
COMMENT 
COMMENT This file has been produced by ttf2bdf written by Subhabrata Biswas
COMMENT 
COMMENT For comments, questions, bug reports, send a mail to
COMMENT                                           subhabrata.biswas@usa.net
COMMENT 
FONT -*-Raleway Light-Medium-R-Normal--16-120-96-96-c-9--fontspecific
SIZE 12 96 96
FONTBOUNDINGBOX 25 22 -4 -4
STARTPROPERTIES 15
FOUNDRY "Misc"
FAMILY_NAME "Raleway Light"
WEIGHT_NAME "Medium"
SLANT "R"
SETWIDTH_NAME "Normal"
PIXEL_SIZE 11
POINT_SIZE 120
RESOLUTION_X 96
RESOLUTION_Y 96
SPACING "C"
CHARSET_ENCODING "fontspecific"
FONT_ASCENT 18
FONT_DESCENT 4
DEFAULT_CHAR 1
COPYRIGHT "You may wish to put your copyright here"
ENDPROPERTIES
CHARS 255
STARTCHAR C0001
ENCODING 1
SWIDTH 625 0
DWIDTH 10 0
BBX 9 12 1 -1
BITMAP
FF80
6380
A080
9080
9080
8880
8480
8480
8280
8280
BF00
C080
ENDCHAR
STARTCHAR C0002
ENCODING 2
SWIDTH 625 0
DWIDTH 10 0
BBX 9 12 1 -1
BITMAP
FF80
6380
A080
9080
9080
8880
8480
8480
8280
8280
BF00
C080
ENDCHAR
STARTCHAR C0003
ENCODING 3
SWIDTH 625 0
DWIDTH 10 0
BBX 9 12 1 -1
BITMAP
FF80
6380
A080
9080
9080
8880
8480
8480
8280
8280
BF00
C080
ENDCHAR
STARTCHAR C0004
ENCODING 4
SWIDTH 625 0
DWIDTH 10 0
BBX 9 12 1 -1
BITMAP
FF80
6380
A080
9080
9080
8880
8480
8480
8280
8280
BF00
C080
ENDCHAR
STARTCHAR C0005
ENCODING 5
SWIDTH 625 0
DWIDTH 10 0
BBX 9 12 1 -1
BITMAP
FF80
6380
A080
9080
9080
8880
8480
8480
8280
8280
BF00
C080
ENDCHAR
STARTCHAR C0006
ENCODING 6
SWIDTH 625 0
DWIDTH 10 0
BBX 9 12 1 -1
BITMAP
FF80
6380
A080
9080
9080
8880
8480
8480
8280
8280
BF00
C080
ENDCHAR
STARTCHAR C0007
ENCODING 7
SWIDTH 625 0
DWIDTH 10 0
BBX 9 12 1 -1
BITMAP
FF80
6380
A080
9080
9080
8880
8480
8480
8280
8280
BF00
C080
ENDCHAR
STARTCHAR C0008
ENCODING 8
SWIDTH 625 0
DWIDTH 10 0
BBX 9 12 1 -1
BITMAP
FF80
6380
A080
9080
9080
8880
8480
8480
8280
8280
BF00
C080
ENDCHAR
STARTCHAR C0009
ENCODING 9
SWIDTH 625 0
DWIDTH 10 0
BBX 9 12 1 -1
BITMAP
FF80
6380
A080
9080
9080
8880
8480
8480
8280
8280
BF00
C080
ENDCHAR
STARTCHAR C0010
ENCODING 10
SWIDTH 625 0
DWIDTH 10 0
BBX 9 12 1 -1
BITMAP
FF80
6380
A080
9080
9080
8880
8480
8480
8280
8280
BF00
C080
ENDCHAR
STARTCHAR C0011
ENCODING 11
SWIDTH 625 0
DWIDTH 10 0
BBX 9 12 1 -1
BITMAP
FF80
6380
A080
9080
9080
8880
8480
8480
8280
8280
BF00
C080
ENDCHAR
STARTCHAR C0012
ENCODING 12
SWIDTH 625 0
DWIDTH 10 0
BBX 9 12 1 -1
BITMAP
FF80
6380
A080
9080
9080
8880
8480
8480
8280
8280
BF00
C080
ENDCHAR
STARTCHAR C0013
ENCODING 13
SWIDTH 0 0
DWIDTH 0 0
BBX 1 1 0 -1
BITMAP
00
ENDCHAR
STARTCHAR C0014
ENCODING 14
SWIDTH 625 0
DWIDTH 10 0
BBX 9 12 1 -1
BITMAP
FF80
6380
A080
9080
9080
8880
8480
8480
8280
8280
BF00
C080
ENDCHAR
STARTCHAR C0015
ENCODING 15
SWIDTH 625 0
DWIDTH 10 0
BBX 9 12 1 -1
BITMAP
FF80
6380
A080
9080
9080
8880
8480
8480
8280
8280
BF00
C080
ENDCHAR
STARTCHAR C0016
ENCODING 16
SWIDTH 625 0
DWIDTH 10 0
BBX 9 12 1 -1
BITMAP
FF80
6380
A080
9080
9080
8880
8480
8480
8280
8280
BF00
C080
ENDCHAR
STARTCHAR C0017
ENCODING 17
SWIDTH 625 0
DWIDTH 10 0
BBX 9 12 1 -1
BITMAP
FF80
6380
A080
9080
9080
8880
8480
8480
8280
8280
BF00
C080
ENDCHAR
STARTCHAR C0018
ENCODING 18
SWIDTH 625 0
DWIDTH 10 0
BBX 9 12 1 -1
BITMAP
FF80
6380
A080
9080
9080
8880
8480
8480
8280
8280
BF00
C080
ENDCHAR
STARTCHAR C0019
ENCODING 19
SWIDTH 625 0
DWIDTH 10 0
BBX 9 12 1 -1
BITMAP
FF80
6380
A080
9080
9080
8880
8480
8480
8280
8280
BF00
C080
ENDCHAR
STARTCHAR C0020
ENCODING 20
SWIDTH 625 0
DWIDTH 10 0
BBX 9 12 1 -1
BITMAP
FF80
6380
A080
9080
9080
8880
8480
8480
8280
8280
BF00
C080
ENDCHAR
STARTCHAR C0021
ENCODING 21
SWIDTH 625 0
DWIDTH 10 0
BBX 9 12 1 -1
BITMAP
FF80
6380
A080
9080
9080
8880
8480
8480
8280
8280
BF00
C080
ENDCHAR
STARTCHAR C0022
ENCODING 22
SWIDTH 625 0
DWIDTH 10 0
BBX 9 12 1 -1
BITMAP
FF80
6380
A080
9080
9080
8880
8480
8480
8280
8280
BF00
C080
ENDCHAR
STARTCHAR C0023
ENCODING 23
SWIDTH 625 0
DWIDTH 10 0
BBX 9 12 1 -1
BITMAP
FF80
6380
A080
9080
9080
8880
8480
8480
8280
8280
BF00
C080
ENDCHAR
STARTCHAR C0024
ENCODING 24
SWIDTH 625 0
DWIDTH 10 0
BBX 9 12 1 -1
BITMAP
FF80
6380
A080
9080
9080
8880
8480
8480
8280
8280
BF00
C080
ENDCHAR
STARTCHAR C0025
ENCODING 25
SWIDTH 625 0
DWIDTH 10 0
BBX 9 12 1 -1
BITMAP
FF80
6380
A080
9080
9080
8880
8480
8480
8280
8280
BF00
C080
ENDCHAR
STARTCHAR C0026
ENCODING 26
SWIDTH 625 0
DWIDTH 10 0
BBX 9 12 1 -1
BITMAP
FF80
6380
A080
9080
9080
8880
8480
8480
8280
8280
BF00
C080
ENDCHAR
STARTCHAR C0027
ENCODING 27
SWIDTH 625 0
DWIDTH 10 0
BBX 9 12 1 -1
BITMAP
FF80
6380
A080
9080
9080
8880
8480
8480
8280
8280
BF00
C080
ENDCHAR
STARTCHAR C0028
ENCODING 28
SWIDTH 625 0
DWIDTH 10 0
BBX 9 12 1 -1
BITMAP
FF80
6380
A080
9080
9080
8880
8480
8480
8280
8280
BF00
C080
ENDCHAR
STARTCHAR C0029
ENCODING 29
SWIDTH 625 0
DWIDTH 10 0
BBX 9 12 1 -1
BITMAP
FF80
6380
A080
9080
9080
8880
8480
8480
8280
8280
BF00
C080
ENDCHAR
STARTCHAR C0030
ENCODING 30
SWIDTH 625 0
DWIDTH 10 0
BBX 9 12 1 -1
BITMAP
FF80
6380
A080
9080
9080
8880
8480
8480
8280
8280
BF00
C080
ENDCHAR
STARTCHAR C0031
ENCODING 31
SWIDTH 625 0
DWIDTH 10 0
BBX 9 12 1 -1
BITMAP
FF80
6380
A080
9080
9080
8880
8480
8480
8280
8280
BF00
C080
ENDCHAR
STARTCHAR C0032- 
ENCODING 32
SWIDTH 250 0
DWIDTH 4 0
BBX 1 1 0 -1
BITMAP
00
ENDCHAR
STARTCHAR C0033-!
ENCODING 33
SWIDTH 250 0
DWIDTH 4 0
BBX 1 12 2 0
BITMAP
80
80
80
80
80
80
80
80
80
00
80
80
ENDCHAR
STARTCHAR C0034-"
ENCODING 34
SWIDTH 250 0
DWIDTH 4 0
BBX 2 3 1 9
BITMAP
C0
C0
C0
ENDCHAR
STARTCHAR C0035-#
ENCODING 35
SWIDTH 687 0
DWIDTH 11 0
BBX 9 12 1 0
BITMAP
1100
1100
1100
FF80
2200
2200
2200
2200
FF00
4400
4400
0000
ENDCHAR
STARTCHAR C0036-$
ENCODING 36
SWIDTH 625 0
DWIDTH 10 0
BBX 8 15 1 -1
BITMAP
00
10
3E
50
90
90
90
70
0E
11
11
11
91
7E
00
ENDCHAR
STARTCHAR C0037-%
ENCODING 37
SWIDTH 687 0
DWIDTH 11 0
BBX 9 12 1 0
BITMAP
6080
9080
8900
9200
6400
0800
0800
1380
2480
4480
4480
8380
ENDCHAR
STARTCHAR C0038-&
ENCODING 38
SWIDTH 625 0
DWIDTH 10 0
BBX 9 12 1 0
BITMAP
3800
4400
4400
4400
3800
2000
5000
8900
8500
8200
8300
7C80
ENDCHAR
STARTCHAR C0039-'
ENCODING 39
SWIDTH 187 0
DWIDTH 3 0
BBX 1 3 1 9
BITMAP
80
80
80
ENDCHAR
STARTCHAR C0040-(
ENCODING 40
SWIDTH 250 0
DWIDTH 4 0
BBX 3 13 1 -1
BITMAP
20
40
40
80
80
80
80
80
80
80
80
40
20
ENDCHAR
STARTCHAR C0041-)
ENCODING 41
SWIDTH 250 0
DWIDTH 4 0
BBX 2 13 1 -1
BITMAP
00
80
80
40
40
40
40
40
40
40
40
80
00
ENDCHAR
STARTCHAR C0042-*
ENCODING 42
SWIDTH 312 0
DWIDTH 5 0
BBX 3 3 1 9
BITMAP
40
40
A0
ENDCHAR
STARTCHAR C0043-+
ENCODING 43
SWIDTH 437 0
DWIDTH 7 0
BBX 5 5 1 3
BITMAP
20
20
F8
20
20
ENDCHAR
STARTCHAR C0044-,
ENCODING 44
SWIDTH 250 0
DWIDTH 4 0
BBX 1 3 1 -2
BITMAP
80
80
00
ENDCHAR
STARTCHAR C0045--
ENCODING 45
SWIDTH 437 0
DWIDTH 7 0
BBX 5 1 1 4
BITMAP
F8
ENDCHAR
STARTCHAR C0046-.
ENCODING 46
SWIDTH 187 0
DWIDTH 3 0
BBX 1 1 1 0
BITMAP
80
ENDCHAR
STARTCHAR C0047-/
ENCODING 47
SWIDTH 562 0
DWIDTH 9 0
BBX 9 12 0 0
BITMAP
0080
0100
0200
0200
0400
0800
0800
1000
1000
2000
4000
4000
ENDCHAR
STARTCHAR C0048-0
ENCODING 48
SWIDTH 625 0
DWIDTH 10 0
BBX 8 9 1 0
BITMAP
3C
42
81
81
81
81
81
42
3C
ENDCHAR
STARTCHAR C0049-1
ENCODING 49
SWIDTH 437 0
DWIDTH 7 0
BBX 5 9 1 0
BITMAP
20
60
A0
20
20
20
20
20
F8
ENDCHAR
STARTCHAR C0050-2
ENCODING 50
SWIDTH 500 0
DWIDTH 8 0
BBX 6 9 1 0
BITMAP
78
84
04
04
18
60
80
80
FC
ENDCHAR
STARTCHAR C0051-3
ENCODING 51
SWIDTH 500 0
DWIDTH 8 0
BBX 7 11 1 -2
BITMAP
78
84
02
04
04
18
04
02
02
84
78
ENDCHAR
STARTCHAR C0052-4
ENCODING 52
SWIDTH 562 0
DWIDTH 9 0
BBX 8 11 0 -2
BITMAP
02
06
0A
12
22
22
42
FF
02
02
02
ENDCHAR
STARTCHAR C0053-5
ENCODING 53
SWIDTH 562 0
DWIDTH 9 0
BBX 7 11 1 -2
BITMAP
7E
40
80
80
F8
84
02
02
02
84
78
ENDCHAR
STARTCHAR C0054-6
ENCODING 54
SWIDTH 625 0
DWIDTH 10 0
BBX 8 11 1 0
BITMAP
3C
42
80
80
BC
C2
81
81
81
42
3C
ENDCHAR
STARTCHAR C0055-7
ENCODING 55
SWIDTH 562 0
DWIDTH 9 0
BBX 7 11 1 -2
BITMAP
FE
02
04
04
08
10
10
20
20
40
40
ENDCHAR
STARTCHAR C0056-8
ENCODING 56
SWIDTH 562 0
DWIDTH 9 0
BBX 8 11 1 0
BITMAP
3C
42
82
82
44
7C
82
81
81
82
7C
ENDCHAR
STARTCHAR C0057-9
ENCODING 57
SWIDTH 562 0
DWIDTH 9 0
BBX 8 11 1 -2
BITMAP
7C
82
82
81
81
83
7D
02
02
84
78
ENDCHAR
STARTCHAR C0058-:
ENCODING 58
SWIDTH 187 0
DWIDTH 3 0
BBX 1 9 1 0
BITMAP
80
00
00
00
00
00
00
00
80
ENDCHAR
STARTCHAR C0059-;
ENCODING 59
SWIDTH 187 0
DWIDTH 3 0
BBX 1 10 1 -1
BITMAP
80
00
00
00
00
00
00
00
80
80
ENDCHAR
STARTCHAR C0060-<
ENCODING 60
SWIDTH 500 0
DWIDTH 8 0
BBX 6 8 1 0
BITMAP
04
18
20
C0
C0
20
18
04
ENDCHAR
STARTCHAR C0061-=
ENCODING 61
SWIDTH 437 0
DWIDTH 7 0
BBX 5 3 1 3
BITMAP
F8
00
F8
ENDCHAR
STARTCHAR C0062->
ENCODING 62
SWIDTH 500 0
DWIDTH 8 0
BBX 7 8 1 0
BITMAP
80
60
10
0C
0C
10
60
80
ENDCHAR
STARTCHAR C0063-?
ENCODING 63
SWIDTH 500 0
DWIDTH 8 0
BBX 6 12 1 0
BITMAP
78
84
04
04
04
08
30
20
00
00
00
00
ENDCHAR
STARTCHAR C0064-@
ENCODING 64
SWIDTH 812 0
DWIDTH 13 0
BBX 11 13 1 -3
BITMAP
1F00
2080
4E40
8120
8120
80A0
8F20
90A0
90A0
9120
4EC0
2000
1F00
ENDCHAR
STARTCHAR C0065-A
ENCODING 65
SWIDTH 687 0
DWIDTH 11 0
BBX 11 12 0 0
BITMAP
0400
0A00
0A00
0A00
1100
1100
2080
3F80
2080
4040
4040
8020
ENDCHAR
STARTCHAR C0066-B
ENCODING 66
SWIDTH 687 0
DWIDTH 11 0
BBX 9 12 1 0
BITMAP
FE00
8100
8100
8100
8100
FE00
8100
8080
8080
8080
8100
FE00
ENDCHAR
STARTCHAR C0067-C
ENCODING 67
SWIDTH 687 0
DWIDTH 11 0
BBX 10 12 1 0
BITMAP
1E00
6180
4080
8000
8000
8000
8000
8000
8000
4080
2180
1E00
ENDCHAR
STARTCHAR C0068-D
ENCODING 68
SWIDTH 687 0
DWIDTH 11 0
BBX 10 12 1 0
BITMAP
FE00
8100
8080
8080
8040
8040
8040
8040
8080
8080
8100
FE00
ENDCHAR
STARTCHAR C0069-E
ENCODING 69
SWIDTH 625 0
DWIDTH 10 0
BBX 8 12 1 0
BITMAP
FF
80
80
80
80
FE
80
80
80
80
80
FF
ENDCHAR
STARTCHAR C0070-F
ENCODING 70
SWIDTH 625 0
DWIDTH 10 0
BBX 8 12 1 0
BITMAP
FF
80
80
80
80
FE
80
80
80
80
80
80
ENDCHAR
STARTCHAR C0071-G
ENCODING 71
SWIDTH 687 0
DWIDTH 11 0
BBX 10 12 1 0
BITMAP
1E00
6180
4080
8000
8000
8000
83C0
8040
8040
4040
21C0
1E40
ENDCHAR
STARTCHAR C0072-H
ENCODING 72
SWIDTH 750 0
DWIDTH 12 0
BBX 9 12 1 0
BITMAP
8080
8080
8080
8080
8080
FF80
8080
8080
8080
8080
8080
8080
ENDCHAR
STARTCHAR C0073-I
ENCODING 73
SWIDTH 250 0
DWIDTH 4 0
BBX 1 12 1 0
BITMAP
80
80
80
80
80
80
80
80
80
80
80
80
ENDCHAR
STARTCHAR C0074-J
ENCODING 74
SWIDTH 500 0
DWIDTH 8 0
BBX 6 12 0 0
BITMAP
04
04
04
04
04
04
04
04
04
04
04
78
ENDCHAR
STARTCHAR C0075-K
ENCODING 75
SWIDTH 625 0
DWIDTH 10 0
BBX 9 12 1 0
BITMAP
8100
8100
8200
8400
8800
9000
A800
C400
8200
8200
8100
8080
ENDCHAR
STARTCHAR C0076-L
ENCODING 76
SWIDTH 562 0
DWIDTH 9 0
BBX 8 12 1 0
BITMAP
80
80
80
80
80
80
80
80
80
80
80
FF
ENDCHAR
STARTCHAR C0077-M
ENCODING 77
SWIDTH 875 0
DWIDTH 14 0
BBX 12 12 1 0
BITMAP
C010
C030
A050
A050
9090
9090
8910
8910
8610
8010
8010
8010
ENDCHAR
STARTCHAR C0078-N
ENCODING 78
SWIDTH 750 0
DWIDTH 12 0
BBX 10 12 1 0
BITMAP
C040
C040
A040
9040
9840
8840
8440
8240
8340
8140
80C0
8040
ENDCHAR
STARTCHAR C0079-O
ENCODING 79
SWIDTH 750 0
DWIDTH 12 0
BBX 10 12 1 0
BITMAP
1E00
2180
4080
8040
8040
8040
8040
8040
8040
4080
2180
1E00
ENDCHAR
STARTCHAR C0080-P
ENCODING 80
SWIDTH 625 0
DWIDTH 10 0
BBX 8 12 1 0
BITMAP
FE
81
81
81
81
81
FE
80
80
80
80
80
ENDCHAR
STARTCHAR C0081-Q
ENCODING 81
SWIDTH 750 0
DWIDTH 12 0
BBX 10 12 1 0
BITMAP
1E00
2180
4080
8040
8040
8040
8040
8040
8040
4180
2180
1E40
ENDCHAR
STARTCHAR C0082-R
ENCODING 82
SWIDTH 625 0
DWIDTH 10 0
BBX 9 12 1 0
BITMAP
FE00
8100
8100
8080
8100
8100
FE00
8400
8200
8200
8100
8100
ENDCHAR
STARTCHAR C0083-S
ENCODING 83
SWIDTH 625 0
DWIDTH 10 0
BBX 8 12 1 0
BITMAP
3C
C2
80
80
80
70
0E
01
01
01
81
7E
ENDCHAR
STARTCHAR C0084-T
ENCODING 84
SWIDTH 625 0
DWIDTH 10 0
BBX 9 12 0 0
BITMAP
FF80
0800
0800
0800
0800
0800
0800
0800
0800
0800
0800
0800
ENDCHAR
STARTCHAR C0085-U
ENCODING 85
SWIDTH 750 0
DWIDTH 12 0
BBX 10 12 1 0
BITMAP
8040
8040
8040
8040
8040
8040
8040
8040
4040
4080
2180
1E00
ENDCHAR
STARTCHAR C0086-V
ENCODING 86
SWIDTH 687 0
DWIDTH 11 0
BBX 11 12 0 0
BITMAP
8040
4040
4040
2080
2080
2100
1100
1100
0A00
0A00
0A00
0400
ENDCHAR
STARTCHAR C0087-W
ENCODING 87
SWIDTH 1062 0
DWIDTH 17 0
BBX 16 12 0 0
BITMAP
8221
4241
4141
2142
2082
2084
1144
1144
0A48
0A28
0A30
0410
ENDCHAR
STARTCHAR C0088-X
ENCODING 88
SWIDTH 625 0
DWIDTH 10 0
BBX 10 12 0 0
BITMAP
8040
4080
2100
1200
1200
0C00
0C00
1200
1200
2100
4080
4080
ENDCHAR
STARTCHAR C0089-Y
ENCODING 89
SWIDTH 625 0
DWIDTH 10 0
BBX 10 12 0 0
BITMAP
4040
4080
2080
2100
1200
0A00
0C00
0400
0400
0400
0400
0400
ENDCHAR
STARTCHAR C0090-Z
ENCODING 90
SWIDTH 625 0
DWIDTH 10 0
BBX 10 12 0 0
BITMAP
7FC0
0080
0100
0200
0200
0400
0800
1000
1000
2000
4000
FF80
ENDCHAR
STARTCHAR C0091-[
ENCODING 91
SWIDTH 250 0
DWIDTH 4 0
BBX 2 13 1 -1
BITMAP
C0
80
80
80
80
80
80
80
80
80
80
80
C0
ENDCHAR
STARTCHAR C0092-\
ENCODING 92
SWIDTH 562 0
DWIDTH 9 0
BBX 8 12 0 0
BITMAP
40
40
20
20
10
08
08
04
04
02
02
01
ENDCHAR
STARTCHAR C0093-]
ENCODING 93
SWIDTH 250 0
DWIDTH 4 0
BBX 1 13 1 -1
BITMAP
80
80
80
80
80
80
80
80
80
80
80
80
80
ENDCHAR
STARTCHAR C0094-^
ENCODING 94
SWIDTH 500 0
DWIDTH 8 0
BBX 7 7 1 5
BITMAP
10
30
28
48
44
84
82
ENDCHAR
STARTCHAR C0095-_
ENCODING 95
SWIDTH 500 0
DWIDTH 8 0
BBX 6 1 1 -1
BITMAP
FC
ENDCHAR
STARTCHAR C0096-`
ENCODING 96
SWIDTH 187 0
DWIDTH 3 0
BBX 2 2 1 10
BITMAP
80
40
ENDCHAR
STARTCHAR C0097-a
ENCODING 97
SWIDTH 562 0
DWIDTH 9 0
BBX 7 9 1 0
BITMAP
78
84
04
02
7C
82
84
84
7A
ENDCHAR
STARTCHAR C0098-b
ENCODING 98
SWIDTH 625 0
DWIDTH 10 0
BBX 8 12 1 0
BITMAP
80
80
80
BC
C2
81
81
81
81
81
C2
BC
ENDCHAR
STARTCHAR C0099-c
ENCODING 99
SWIDTH 562 0
DWIDTH 9 0
BBX 7 9 1 0
BITMAP
3C
42
80
80
80
80
80
42
3C
ENDCHAR
STARTCHAR C0100-d
ENCODING 100
SWIDTH 625 0
DWIDTH 10 0
BBX 8 12 1 0
BITMAP
01
01
01
39
45
83
81
81
81
81
43
3D
ENDCHAR
STARTCHAR C0101-e
ENCODING 101
SWIDTH 562 0
DWIDTH 9 0
BBX 8 9 1 0
BITMAP
3C
42
82
81
FF
80
80
42
3C
ENDCHAR
STARTCHAR C0102-f
ENCODING 102
SWIDTH 312 0
DWIDTH 5 0
BBX 6 12 0 0
BITMAP
3C
20
20
F8
20
20
20
20
20
20
20
00
ENDCHAR
STARTCHAR C0103-g
ENCODING 103
SWIDTH 625 0
DWIDTH 10 0
BBX 8 13 1 -4
BITMAP
3D
43
83
81
81
81
81
43
3D
01
02
82
7C
ENDCHAR
STARTCHAR C0104-h
ENCODING 104
SWIDTH 562 0
DWIDTH 9 0
BBX 7 12 1 0
BITMAP
80
80
80
BC
C2
82
82
82
82
82
82
82
ENDCHAR
STARTCHAR C0105-i
ENCODING 105
SWIDTH 187 0
DWIDTH 3 0
BBX 1 12 1 0
BITMAP
80
00
00
80
80
80
80
80
80
80
80
80
ENDCHAR
STARTCHAR C0106-j
ENCODING 106
SWIDTH 187 0
DWIDTH 3 0
BBX 4 15 -2 -3
BITMAP
10
00
00
10
10
10
10
10
10
10
10
10
10
10
E0
ENDCHAR
STARTCHAR C0107-k
ENCODING 107
SWIDTH 500 0
DWIDTH 8 0
BBX 7 12 1 0
BITMAP
80
80
80
82
84
88
90
B0
C8
84
84
82
ENDCHAR
STARTCHAR C0108-l
ENCODING 108
SWIDTH 250 0
DWIDTH 4 0
BBX 3 12 1 0
BITMAP
80
80
80
80
80
80
80
80
80
80
80
60
ENDCHAR
STARTCHAR C0109-m
ENCODING 109
SWIDTH 937 0
DWIDTH 15 0
BBX 12 9 1 0
BITMAP
BCE0
C510
8210
8210
8210
8210
8210
8210
8200
ENDCHAR
STARTCHAR C0110-n
ENCODING 110
SWIDTH 562 0
DWIDTH 9 0
BBX 7 9 1 0
BITMAP
9C
E2
82
82
82
82
82
82
82
ENDCHAR
STARTCHAR C0111-o
ENCODING 111
SWIDTH 562 0
DWIDTH 9 0
BBX 8 9 1 0
BITMAP
3C
42
82
81
81
81
82
42
3C
ENDCHAR
STARTCHAR C0112-p
ENCODING 112
SWIDTH 625 0
DWIDTH 10 0
BBX 8 13 1 -4
BITMAP
BC
C2
81
81
81
81
81
C2
BC
80
80
80
80
ENDCHAR
STARTCHAR C0113-q
ENCODING 113
SWIDTH 625 0
DWIDTH 10 0
BBX 8 13 1 -4
BITMAP
3D
43
81
81
81
81
83
47
39
01
01
01
01
ENDCHAR
STARTCHAR C0114-r
ENCODING 114
SWIDTH 312 0
DWIDTH 5 0
BBX 4 9 1 0
BITMAP
B0
C0
80
80
80
80
80
80
80
ENDCHAR
STARTCHAR C0115-s
ENCODING 115
SWIDTH 500 0
DWIDTH 8 0
BBX 6 9 1 0
BITMAP
78
84
80
C0
38
04
04
04
F8
ENDCHAR
STARTCHAR C0116-t
ENCODING 116
SWIDTH 312 0
DWIDTH 5 0
BBX 5 12 0 0
BITMAP
00
40
40
F0
40
40
40
40
40
40
40
38
ENDCHAR
STARTCHAR C0117-u
ENCODING 117
SWIDTH 562 0
DWIDTH 9 0
BBX 7 9 1 0
BITMAP
82
82
82
82
82
82
82
46
7A
ENDCHAR
STARTCHAR C0118-v
ENCODING 118
SWIDTH 500 0
DWIDTH 8 0
BBX 8 9 0 0
BITMAP
81
41
42
22
24
24
14
18
08
ENDCHAR
STARTCHAR C0119-w
ENCODING 119
SWIDTH 812 0
DWIDTH 13 0
BBX 13 9 0 0
BITMAP
8110
4510
4610
2220
2220
2520
1540
18C0
0880
ENDCHAR
STARTCHAR C0120-x
ENCODING 120
SWIDTH 500 0
DWIDTH 8 0
BBX 8 9 0 0
BITMAP
42
42
24
18
10
18
24
42
42
ENDCHAR
STARTCHAR C0121-y
ENCODING 121
SWIDTH 562 0
DWIDTH 9 0
BBX 8 13 0 -4
BITMAP
81
41
42
22
22
24
14
14
08
08
10
10
20
ENDCHAR
STARTCHAR C0122-z
ENCODING 122
SWIDTH 500 0
DWIDTH 8 0
BBX 6 9 1 0
BITMAP
FC
04
08
10
20
20
40
80
FC
ENDCHAR
STARTCHAR C0123-{
ENCODING 123
SWIDTH 250 0
DWIDTH 4 0
BBX 2 13 1 -1
BITMAP
C0
80
80
80
80
80
80
80
80
80
80
80
C0
ENDCHAR
STARTCHAR C0124-|
ENCODING 124
SWIDTH 250 0
DWIDTH 4 0
BBX 1 14 1 -2
BITMAP
80
80
80
80
80
80
80
80
80
80
80
80
80
80
ENDCHAR
STARTCHAR C0125-}
ENCODING 125
SWIDTH 250 0
DWIDTH 4 0
BBX 2 13 1 -1
BITMAP
80
40
40
40
40
40
40
40
40
40
40
40
80
ENDCHAR
STARTCHAR C0126-~
ENCODING 126
SWIDTH 500 0
DWIDTH 8 0
BBX 6 2 1 4
BITMAP
64
98
ENDCHAR
STARTCHAR C0127
ENCODING 127
SWIDTH 625 0
DWIDTH 10 0
BBX 9 12 1 -1
BITMAP
FF80
6380
A080
9080
9080
8880
8480
8480
8280
8280
BF00
C080
ENDCHAR
STARTCHAR C0128
ENCODING 128
SWIDTH 812 0
DWIDTH 13 0
BBX 11 12 1 0
BITMAP
0F80
1040
2020
2000
4000
FF00
4000
FE00
2000
2020
1040
0F80
ENDCHAR
STARTCHAR C0129
ENCODING 129
SWIDTH 625 0
DWIDTH 10 0
BBX 9 12 1 -1
BITMAP
FF80
6380
A080
9080
9080
8880
8480
8480
8280
8280
BF00
C080
ENDCHAR
STARTCHAR C0130
ENCODING 130
SWIDTH 250 0
DWIDTH 4 0
BBX 1 3 1 -2
BITMAP
80
80
00
ENDCHAR
STARTCHAR C0131
ENCODING 131
SWIDTH 500 0
DWIDTH 8 0
BBX 8 15 0 -3
BITMAP
07
08
08
08
08
1E
08
08
08
08
08
08
08
10
70
ENDCHAR
STARTCHAR C0132
ENCODING 132
SWIDTH 312 0
DWIDTH 5 0
BBX 3 3 1 -2
BITMAP
A0
60
20
ENDCHAR
STARTCHAR C0133
ENCODING 133
SWIDTH 437 0
DWIDTH 7 0
BBX 5 1 1 0
BITMAP
A8
ENDCHAR
STARTCHAR C0134
ENCODING 134
SWIDTH 375 0
DWIDTH 6 0
BBX 5 14 1 -2
BITMAP
20
20
20
20
20
20
20
F8
20
20
20
20
20
20
ENDCHAR
STARTCHAR C0135
ENCODING 135
SWIDTH 375 0
DWIDTH 6 0
BBX 5 14 1 -2
BITMAP
20
20
20
20
20
20
F8
20
20
F8
20
20
20
20
ENDCHAR
STARTCHAR C0136
ENCODING 136
SWIDTH 312 0
DWIDTH 5 0
BBX 3 2 1 10
BITMAP
40
A0
ENDCHAR
STARTCHAR C0137
ENCODING 137
SWIDTH 1062 0
DWIDTH 17 0
BBX 15 12 1 0
BITMAP
7000
9080
8900
9200
6400
0400
0800
139C
2462
2462
4462
839C
ENDCHAR
STARTCHAR C0138
ENCODING 138
SWIDTH 625 0
DWIDTH 10 0
BBX 8 15 1 0
BITMAP
28
10
00
3C
C2
80
80
80
70
0E
01
01
01
81
7E
ENDCHAR
STARTCHAR C0139
ENCODING 139
SWIDTH 375 0
DWIDTH 6 0
BBX 4 6 1 1
BITMAP
10
60
80
80
60
10
ENDCHAR
STARTCHAR C0140
ENCODING 140
SWIDTH 1187 0
DWIDTH 19 0
BBX 17 12 1 0
BITMAP
1E3F80
21C000
40C000
804000
804000
803F00
804000
804000
804000
40C000
214000
1E3F80
ENDCHAR
STARTCHAR C0141
ENCODING 141
SWIDTH 625 0
DWIDTH 10 0
BBX 9 12 1 -1
BITMAP
FF80
6380
A080
9080
9080
8880
8480
8480
8280
8280
BF00
C080
ENDCHAR
STARTCHAR C0142
ENCODING 142
SWIDTH 625 0
DWIDTH 10 0
BBX 10 15 0 0
BITMAP
0A00
0400
0000
7FC0
0080
0100
0200
0200
0400
0800
1000
1000
2000
4000
FF80
ENDCHAR
STARTCHAR C0143
ENCODING 143
SWIDTH 625 0
DWIDTH 10 0
BBX 9 12 1 -1
BITMAP
FF80
6380
A080
9080
9080
8880
8480
8480
8280
8280
BF00
C080
ENDCHAR
STARTCHAR C0144
ENCODING 144
SWIDTH 625 0
DWIDTH 10 0
BBX 9 12 1 -1
BITMAP
FF80
6380
A080
9080
9080
8880
8480
8480
8280
8280
BF00
C080
ENDCHAR
STARTCHAR C0145
ENCODING 145
SWIDTH 187 0
DWIDTH 3 0
BBX 1 3 1 9
BITMAP
80
80
80
ENDCHAR
STARTCHAR C0146
ENCODING 146
SWIDTH 187 0
DWIDTH 3 0
BBX 1 3 1 9
BITMAP
80
80
80
ENDCHAR
STARTCHAR C0147
ENCODING 147
SWIDTH 312 0
DWIDTH 5 0
BBX 3 3 1 9
BITMAP
A0
A0
A0
ENDCHAR
STARTCHAR C0148
ENCODING 148
SWIDTH 312 0
DWIDTH 5 0
BBX 3 3 1 9
BITMAP
A0
A0
80
ENDCHAR
STARTCHAR C0149
ENCODING 149
SWIDTH 375 0
DWIDTH 6 0
BBX 3 3 1 4
BITMAP
60
E0
60
ENDCHAR
STARTCHAR C0150
ENCODING 150
SWIDTH 562 0
DWIDTH 9 0
BBX 7 1 1 4
BITMAP
FE
ENDCHAR
STARTCHAR C0151
ENCODING 151
SWIDTH 875 0
DWIDTH 14 0
BBX 12 1 1 4
BITMAP
FFF0
ENDCHAR
STARTCHAR C0152
ENCODING 152
SWIDTH 375 0
DWIDTH 6 0
BBX 5 2 1 10
BITMAP
C8
30
ENDCHAR
STARTCHAR C0153
ENCODING 153
SWIDTH 687 0
DWIDTH 11 0
BBX 9 5 1 7
BITMAP
F880
4D80
4D80
4A80
4880
ENDCHAR
STARTCHAR C0154
ENCODING 154
SWIDTH 500 0
DWIDTH 8 0
BBX 6 12 1 0
BITMAP
50
20
00
78
84
80
C0
38
04
04
04
F8
ENDCHAR
STARTCHAR C0155
ENCODING 155
SWIDTH 375 0
DWIDTH 6 0
BBX 4 6 1 1
BITMAP
80
40
30
30
40
80
ENDCHAR
STARTCHAR C0156
ENCODING 156
SWIDTH 1062 0
DWIDTH 17 0
BBX 15 9 1 0
BITMAP
3C78
4284
8102
8102
81FE
8100
8300
4284
3C78
ENDCHAR
STARTCHAR C0157
ENCODING 157
SWIDTH 625 0
DWIDTH 10 0
BBX 9 12 1 -1
BITMAP
FF80
6380
A080
9080
9080
8880
8480
8480
8280
8280
BF00
C080
ENDCHAR
STARTCHAR C0158
ENCODING 158
SWIDTH 500 0
DWIDTH 8 0
BBX 6 12 1 0
BITMAP
28
10
00
FC
04
08
10
20
20
40
80
FC
ENDCHAR
STARTCHAR C0159
ENCODING 159
SWIDTH 625 0
DWIDTH 10 0
BBX 10 14 0 0
BITMAP
0A00
0000
4040
4080
2080
2100
1200
0A00
0C00
0400
0400
0400
0400
0400
ENDCHAR
STARTCHAR C0160
ENCODING 160
SWIDTH 250 0
DWIDTH 4 0
BBX 1 1 0 -1
BITMAP
00
ENDCHAR
STARTCHAR C0161
ENCODING 161
SWIDTH 250 0
DWIDTH 4 0
BBX 1 12 2 0
BITMAP
80
80
00
00
80
80
80
80
80
80
80
80
ENDCHAR
STARTCHAR C0162
ENCODING 162
SWIDTH 562 0
DWIDTH 9 0
BBX 7 13 1 -2
BITMAP
10
10
3C
52
90
90
90
90
90
52
3C
10
10
ENDCHAR
STARTCHAR C0163
ENCODING 163
SWIDTH 500 0
DWIDTH 8 0
BBX 6 12 1 0
BITMAP
78
44
80
80
40
F8
20
20
20
40
40
FC
ENDCHAR
STARTCHAR C0164
ENCODING 164
SWIDTH 562 0
DWIDTH 9 0
BBX 7 5 1 3
BITMAP
BC
44
84
44
BC
ENDCHAR
STARTCHAR C0165
ENCODING 165
SWIDTH 687 0
DWIDTH 11 0
BBX 10 12 0 0
BITMAP
4040
4080
2080
2100
1100
0A00
1B00
0400
1F00
0400
0400
0400
ENDCHAR
STARTCHAR C0166
ENCODING 166
SWIDTH 250 0
DWIDTH 4 0
BBX 1 14 1 -2
BITMAP
80
80
80
80
80
80
00
80
80
80
80
80
80
80
ENDCHAR
STARTCHAR C0167
ENCODING 167
SWIDTH 500 0
DWIDTH 8 0
BBX 6 13 1 -1
BITMAP
78
80
80
80
F0
8C
84
44
38
04
04
84
78
ENDCHAR
STARTCHAR C0168
ENCODING 168
SWIDTH 312 0
DWIDTH 5 0
BBX 3 1 1 10
BITMAP
A0
ENDCHAR
STARTCHAR C0169
ENCODING 169
SWIDTH 812 0
DWIDTH 13 0
BBX 11 12 1 0
BITMAP
1F00
20C0
4F20
9120
A020
A020
A020
A020
90A0
4F20
2040
1F80
ENDCHAR
STARTCHAR C0170
ENCODING 170
SWIDTH 437 0
DWIDTH 7 0
BBX 5 6 1 6
BITMAP
70
08
78
88
88
F8
ENDCHAR
STARTCHAR C0171
ENCODING 171
SWIDTH 562 0
DWIDTH 9 0
BBX 7 6 1 1
BITMAP
12
6C
90
90
6C
12
ENDCHAR
STARTCHAR C0172
ENCODING 172
SWIDTH 562 0
DWIDTH 9 0
BBX 7 4 1 2
BITMAP
FE
02
02
02
ENDCHAR
STARTCHAR C0173
ENCODING 173
SWIDTH 562 0
DWIDTH 9 0
BBX 7 1 1 4
BITMAP
FE
ENDCHAR
STARTCHAR C0174
ENCODING 174
SWIDTH 812 0
DWIDTH 13 0
BBX 11 12 1 0
BITMAP
1F00
20C0
5F20
9120
90A0
9120
9F20
9220
9120
5120
2040
1F80
ENDCHAR
STARTCHAR C0175
ENCODING 175
SWIDTH 375 0
DWIDTH 6 0
BBX 4 1 1 11
BITMAP
F0
ENDCHAR
STARTCHAR C0176
ENCODING 176
SWIDTH 250 0
DWIDTH 4 0
BBX 2 2 1 10
BITMAP
C0
C0
ENDCHAR
STARTCHAR C0177
ENCODING 177
SWIDTH 437 0
DWIDTH 7 0
BBX 5 7 1 1
BITMAP
20
20
F8
20
20
00
F8
ENDCHAR
STARTCHAR C0178
ENCODING 178
SWIDTH 375 0
DWIDTH 6 0
BBX 4 7 1 7
BITMAP
F0
10
10
30
40
80
F0
ENDCHAR
STARTCHAR C0179
ENCODING 179
SWIDTH 375 0
DWIDTH 6 0
BBX 5 7 1 7
BITMAP
F0
10
10
60
10
08
F0
ENDCHAR
STARTCHAR C0180
ENCODING 180
SWIDTH 187 0
DWIDTH 3 0
BBX 2 2 1 10
BITMAP
80
80
ENDCHAR
STARTCHAR C0181
ENCODING 181
SWIDTH 625 0
DWIDTH 10 0
BBX 8 12 1 -3
BITMAP
82
82
82
82
82
82
82
C6
B9
80
80
80
ENDCHAR
STARTCHAR C0182
ENCODING 182
SWIDTH 562 0
DWIDTH 9 0
BBX 8 13 1 -1
BITMAP
7F
8A
8A
8A
8A
8A
8A
7E
0A
0A
0A
0A
0A
ENDCHAR
STARTCHAR C0183
ENCODING 183
SWIDTH 187 0
DWIDTH 3 0
BBX 1 2 1 4
BITMAP
80
80
ENDCHAR
STARTCHAR C0184
ENCODING 184
SWIDTH 250 0
DWIDTH 4 0
BBX 3 3 1 -3
BITMAP
20
20
E0
ENDCHAR
STARTCHAR C0185
ENCODING 185
SWIDTH 250 0
DWIDTH 4 0
BBX 3 7 1 7
BITMAP
40
40
40
40
40
40
E0
ENDCHAR
STARTCHAR C0186
ENCODING 186
SWIDTH 437 0
DWIDTH 7 0
BBX 5 6 1 6
BITMAP
70
88
88
88
88
70
ENDCHAR
STARTCHAR C0187
ENCODING 187
SWIDTH 562 0
DWIDTH 9 0
BBX 7 6 1 1
BITMAP
90
4C
32
32
4C
90
ENDCHAR
STARTCHAR C0188
ENCODING 188
SWIDTH 750 0
DWIDTH 12 0
BBX 12 12 0 0
BITMAP
2040
2080
2100
2100
2200
2420
7860
10A0
1120
23F0
4020
8020
ENDCHAR
STARTCHAR C0189
ENCODING 189
SWIDTH 812 0
DWIDTH 13 0
BBX 11 12 1 0
BITMAP
C080
4100
4100
4200
4400
4800
F1C0
1020
2020
41C0
8200
83E0
ENDCHAR
STARTCHAR C0190
ENCODING 190
SWIDTH 875 0
DWIDTH 14 0
BBX 13 12 1 0
BITMAP
F020
1040
1080
6080
1100
0A10
F430
0850
0890
11F8
2010
4010
ENDCHAR
STARTCHAR C0191
ENCODING 191
SWIDTH 437 0
DWIDTH 7 0
BBX 6 13 1 -4
BITMAP
10
10
00
10
10
20
40
80
80
80
80
84
78
ENDCHAR
STARTCHAR C0192
ENCODING 192
SWIDTH 687 0
DWIDTH 11 0
BBX 11 15 0 0
BITMAP
0800
0400
0000
0400
0A00
0A00
0A00
1100
1100
2080
3F80
2080
4040
4040
8020
ENDCHAR
STARTCHAR C0193
ENCODING 193
SWIDTH 687 0
DWIDTH 11 0
BBX 11 15 0 0
BITMAP
0400
0400
0000
0400
0A00
0A00
0A00
1100
1100
2080
3F80
2080
4040
4040
8020
ENDCHAR
STARTCHAR C0194
ENCODING 194
SWIDTH 687 0
DWIDTH 11 0
BBX 11 15 0 0
BITMAP
0400
0A00
0000
0400
0A00
0A00
0A00
1100
1100
2080
3F80
2080
4040
4040
8020
ENDCHAR
STARTCHAR C0195
ENCODING 195
SWIDTH 687 0
DWIDTH 11 0
BBX 11 15 0 0
BITMAP
0900
1700
0000
0400
0A00
0A00
0A00
1100
1100
2080
3F80
2080
4040
4040
8020
ENDCHAR
STARTCHAR C0196
ENCODING 196
SWIDTH 687 0
DWIDTH 11 0
BBX 11 14 0 0
BITMAP
0A00
0000
0400
0A00
0A00
0A00
1100
1100
2080
3F80
2080
4040
4040
8020
ENDCHAR
STARTCHAR C0197
ENCODING 197
SWIDTH 687 0
DWIDTH 11 0
BBX 11 16 0 0
BITMAP
0C00
1200
0C00
0000
0400
0A00
0A00
0A00
1100
1100
2080
3F80
2080
4040
4040
8020
ENDCHAR
STARTCHAR C0198
ENCODING 198
SWIDTH 937 0
DWIDTH 15 0
BBX 15 12 0 0
BITMAP
01FE
0300
0500
0500
0900
11FC
1100
3F00
2100
4100
8100
81FE
ENDCHAR
STARTCHAR C0199
ENCODING 199
SWIDTH 687 0
DWIDTH 11 0
BBX 10 15 1 -3
BITMAP
1E00
6180
4080
8000
8000
8000
8000
8000
8000
4080
2180
1E00
0400
0400
1C00
ENDCHAR
STARTCHAR C0200
ENCODING 200
SWIDTH 625 0
DWIDTH 10 0
BBX 8 15 1 0
BITMAP
10
08
00
FF
80
80
80
80
FE
80
80
80
80
80
FF
ENDCHAR
STARTCHAR C0201
ENCODING 201
SWIDTH 625 0
DWIDTH 10 0
BBX 8 15 1 0
BITMAP
08
08
00
FF
80
80
80
80
FE
80
80
80
80
80
FF
ENDCHAR
STARTCHAR C0202
ENCODING 202
SWIDTH 625 0
DWIDTH 10 0
BBX 8 15 1 0
BITMAP
08
14
00
FF
80
80
80
80
FE
80
80
80
80
80
FF
ENDCHAR
STARTCHAR C0203
ENCODING 203
SWIDTH 625 0
DWIDTH 10 0
BBX 8 14 1 0
BITMAP
14
00
FF
80
80
80
80
FE
80
80
80
80
80
FF
ENDCHAR
STARTCHAR C0204
ENCODING 204
SWIDTH 250 0
DWIDTH 4 0
BBX 2 15 1 0
BITMAP
80
40
00
80
80
80
80
80
80
80
80
80
80
80
80
ENDCHAR
STARTCHAR C0205
ENCODING 205
SWIDTH 250 0
DWIDTH 4 0
BBX 3 15 1 0
BITMAP
40
40
00
80
80
80
80
80
80
80
80
80
80
80
80
ENDCHAR
STARTCHAR C0206
ENCODING 206
SWIDTH 250 0
DWIDTH 4 0
BBX 3 15 0 0
BITMAP
40
A0
00
40
40
40
40
40
40
40
40
40
40
40
40
ENDCHAR
STARTCHAR C0207
ENCODING 207
SWIDTH 250 0
DWIDTH 4 0
BBX 3 14 1 0
BITMAP
A0
00
80
80
80
80
80
80
80
80
80
80
80
80
ENDCHAR
STARTCHAR C0208
ENCODING 208
SWIDTH 750 0
DWIDTH 12 0
BBX 10 12 1 0
BITMAP
7E00
8100
8080
8080
8040
F040
8040
8040
8080
8080
8100
7E00
ENDCHAR
STARTCHAR C0209
ENCODING 209
SWIDTH 750 0
DWIDTH 12 0
BBX 10 15 1 0
BITMAP
0900
1700
0000
C040
C040
A040
9040
9840
8840
8440
8240
8340
8140
80C0
8040
ENDCHAR
STARTCHAR C0210
ENCODING 210
SWIDTH 750 0
DWIDTH 12 0
BBX 10 15 1 0
BITMAP
0800
0400
0000
1E00
2180
4080
8040
8040
8040
8040
8040
8040
4080
2180
1E00
ENDCHAR
STARTCHAR C0211
ENCODING 211
SWIDTH 750 0
DWIDTH 12 0
BBX 10 15 1 0
BITMAP
0400
0400
0000
1E00
2180
4080
8040
8040
8040
8040
8040
8040
4080
2180
1E00
ENDCHAR
STARTCHAR C0212
ENCODING 212
SWIDTH 750 0
DWIDTH 12 0
BBX 10 15 1 0
BITMAP
0800
1400
0000
1E00
2180
4080
8040
8040
8040
8040
8040
8040
4080
2180
1E00
ENDCHAR
STARTCHAR C0213
ENCODING 213
SWIDTH 750 0
DWIDTH 12 0
BBX 10 15 1 0
BITMAP
1200
2E00
0000
1E00
2180
4080
8040
8040
8040
8040
8040
8040
4080
2180
1E00
ENDCHAR
STARTCHAR C0214
ENCODING 214
SWIDTH 750 0
DWIDTH 12 0
BBX 10 14 1 0
BITMAP
0A00
0000
1E00
2180
4080
8040
8040
8040
8040
8040
8040
4080
2180
1E00
ENDCHAR
STARTCHAR C0215
ENCODING 215
SWIDTH 437 0
DWIDTH 7 0
BBX 5 5 1 2
BITMAP
88
50
20
50
88
ENDCHAR
STARTCHAR C0216
ENCODING 216
SWIDTH 750 0
DWIDTH 12 0
BBX 10 12 1 0
BITMAP
1E80
2180
4280
8240
8440
8840
8840
9040
9040
6080
6180
5E00
ENDCHAR
STARTCHAR C0217
ENCODING 217
SWIDTH 750 0
DWIDTH 12 0
BBX 10 15 1 0
BITMAP
0800
0400
0000
8040
8040
8040
8040
8040
8040
8040
8040
4040
4080
2180
1E00
ENDCHAR
STARTCHAR C0218
ENCODING 218
SWIDTH 750 0
DWIDTH 12 0
BBX 10 15 1 0
BITMAP
0400
0400
0000
8040
8040
8040
8040
8040
8040
8040
8040
4040
4080
2180
1E00
ENDCHAR
STARTCHAR C0219
ENCODING 219
SWIDTH 750 0
DWIDTH 12 0
BBX 10 15 1 0
BITMAP
0400
0A00
0000
8040
8040
8040
8040
8040
8040
8040
8040
4040
4080
2180
1E00
ENDCHAR
STARTCHAR C0220
ENCODING 220
SWIDTH 750 0
DWIDTH 12 0
BBX 10 14 1 0
BITMAP
0A00
0000
8040
8040
8040
8040
8040
8040
8040
8040
4040
4080
2180
1E00
ENDCHAR
STARTCHAR C0221
ENCODING 221
SWIDTH 625 0
DWIDTH 10 0
BBX 10 15 0 0
BITMAP
0400
0400
0000
4040
4080
2080
2100
1200
0A00
0C00
0400
0400
0400
0400
0400
ENDCHAR
STARTCHAR C0222
ENCODING 222
SWIDTH 625 0
DWIDTH 10 0
BBX 8 12 1 0
BITMAP
80
80
FC
82
81
81
81
81
82
FE
80
80
ENDCHAR
STARTCHAR C0223
ENCODING 223
SWIDTH 562 0
DWIDTH 9 0
BBX 7 11 1 0
BITMAP
38
44
84
84
98
84
82
82
82
86
98
ENDCHAR
STARTCHAR C0224
ENCODING 224
SWIDTH 562 0
DWIDTH 9 0
BBX 7 12 1 0
BITMAP
20
10
00
78
84
04
02
7C
82
84
84
7A
ENDCHAR
STARTCHAR C0225
ENCODING 225
SWIDTH 562 0
DWIDTH 9 0
BBX 7 12 1 0
BITMAP
10
10
00
78
84
04
02
7C
82
84
84
7A
ENDCHAR
STARTCHAR C0226
ENCODING 226
SWIDTH 562 0
DWIDTH 9 0
BBX 7 12 1 0
BITMAP
10
28
00
78
84
04
02
7C
82
84
84
7A
ENDCHAR
STARTCHAR C0227
ENCODING 227
SWIDTH 562 0
DWIDTH 9 0
BBX 7 12 1 0
BITMAP
24
5C
00
78
84
04
02
7C
82
84
84
7A
ENDCHAR
STARTCHAR C0228
ENCODING 228
SWIDTH 562 0
DWIDTH 9 0
BBX 7 11 1 0
BITMAP
28
00
78
84
04
02
7C
82
84
84
7A
ENDCHAR
STARTCHAR C0229
ENCODING 229
SWIDTH 562 0
DWIDTH 9 0
BBX 7 13 1 0
BITMAP
30
48
30
00
78
84
04
02
7C
82
84
84
7A
ENDCHAR
STARTCHAR C0230
ENCODING 230
SWIDTH 937 0
DWIDTH 15 0
BBX 13 9 1 0
BITMAP
79E0
8610
0408
0408
7FF8
8400
8400
8618
79E0
ENDCHAR
STARTCHAR C0231
ENCODING 231
SWIDTH 562 0
DWIDTH 9 0
BBX 7 12 1 -3
BITMAP
3C
42
80
80
80
80
80
42
3C
08
08
38
ENDCHAR
STARTCHAR C0232
ENCODING 232
SWIDTH 562 0
DWIDTH 9 0
BBX 8 12 1 0
BITMAP
10
08
00
3C
42
82
81
FF
80
80
42
3C
ENDCHAR
STARTCHAR C0233
ENCODING 233
SWIDTH 562 0
DWIDTH 9 0
BBX 8 12 1 0
BITMAP
08
08
00
3C
42
82
81
FF
80
80
42
3C
ENDCHAR
STARTCHAR C0234
ENCODING 234
SWIDTH 562 0
DWIDTH 9 0
BBX 8 12 1 0
BITMAP
10
28
00
3C
42
82
81
FF
80
80
42
3C
ENDCHAR
STARTCHAR C0235
ENCODING 235
SWIDTH 562 0
DWIDTH 9 0
BBX 8 11 1 0
BITMAP
28
00
3C
42
82
81
FF
80
80
42
3C
ENDCHAR
STARTCHAR C0236
ENCODING 236
SWIDTH 187 0
DWIDTH 3 0
BBX 2 12 1 0
BITMAP
80
40
00
80
80
80
80
80
80
80
80
80
ENDCHAR
STARTCHAR C0237
ENCODING 237
SWIDTH 187 0
DWIDTH 3 0
BBX 3 12 1 0
BITMAP
40
40
00
80
80
80
80
80
80
80
80
80
ENDCHAR
STARTCHAR C0238
ENCODING 238
SWIDTH 187 0
DWIDTH 3 0
BBX 3 12 0 0
BITMAP
40
A0
00
40
40
40
40
40
40
40
40
40
ENDCHAR
STARTCHAR C0239
ENCODING 239
SWIDTH 187 0
DWIDTH 3 0
BBX 3 11 0 0
BITMAP
A0
00
40
40
40
40
40
40
40
40
40
ENDCHAR
STARTCHAR C0240
ENCODING 240
SWIDTH 625 0
DWIDTH 10 0
BBX 8 12 1 0
BITMAP
12
0C
14
02
3D
43
81
81
81
81
42
3C
ENDCHAR
STARTCHAR C0241
ENCODING 241
SWIDTH 562 0
DWIDTH 9 0
BBX 7 12 1 0
BITMAP
24
5C
00
9C
E2
82
82
82
82
82
82
82
ENDCHAR
STARTCHAR C0242
ENCODING 242
SWIDTH 562 0
DWIDTH 9 0
BBX 8 12 1 0
BITMAP
10
08
00
3C
42
82
81
81
81
82
42
3C
ENDCHAR
STARTCHAR C0243
ENCODING 243
SWIDTH 562 0
DWIDTH 9 0
BBX 8 12 1 0
BITMAP
08
08
00
3C
42
82
81
81
81
82
42
3C
ENDCHAR
STARTCHAR C0244
ENCODING 244
SWIDTH 562 0
DWIDTH 9 0
BBX 8 12 1 0
BITMAP
10
28
00
3C
42
82
81
81
81
82
42
3C
ENDCHAR
STARTCHAR C0245
ENCODING 245
SWIDTH 562 0
DWIDTH 9 0
BBX 8 12 1 0
BITMAP
24
5C
00
3C
42
82
81
81
81
82
42
3C
ENDCHAR
STARTCHAR C0246
ENCODING 246
SWIDTH 562 0
DWIDTH 9 0
BBX 8 11 1 0
BITMAP
28
00
3C
42
82
81
81
81
82
42
3C
ENDCHAR
STARTCHAR C0247
ENCODING 247
SWIDTH 562 0
DWIDTH 9 0
BBX 7 6 1 1
BITMAP
10
00
FE
00
00
10
ENDCHAR
STARTCHAR C0248
ENCODING 248
SWIDTH 562 0
DWIDTH 9 0
BBX 8 9 1 0
BITMAP
3E
46
8A
89
91
91
A2
42
7C
ENDCHAR
STARTCHAR C0249
ENCODING 249
SWIDTH 562 0
DWIDTH 9 0
BBX 7 12 1 0
BITMAP
20
10
00
82
82
82
82
82
82
82
46
7A
ENDCHAR
STARTCHAR C0250
ENCODING 250
SWIDTH 562 0
DWIDTH 9 0
BBX 7 12 1 0
BITMAP
08
08
00
82
82
82
82
82
82
82
46
7A
ENDCHAR
STARTCHAR C0251
ENCODING 251
SWIDTH 562 0
DWIDTH 9 0
BBX 7 12 1 0
BITMAP
10
28
00
82
82
82
82
82
82
82
46
7A
ENDCHAR
STARTCHAR C0252
ENCODING 252
SWIDTH 562 0
DWIDTH 9 0
BBX 7 11 1 0
BITMAP
28
00
82
82
82
82
82
82
82
46
7A
ENDCHAR
STARTCHAR C0253
ENCODING 253
SWIDTH 562 0
DWIDTH 9 0
BBX 8 16 0 -4
BITMAP
08
08
00
81
41
42
22
22
24
14
14
08
08
10
10
20
ENDCHAR
STARTCHAR C0254
ENCODING 254
SWIDTH 625 0
DWIDTH 10 0
BBX 8 16 1 -4
BITMAP
80
80
80
BC
C2
81
81
81
81
81
C2
BC
80
80
80
80
ENDCHAR
STARTCHAR C0255
ENCODING 255
SWIDTH 562 0
DWIDTH 9 0
BBX 8 15 0 -4
BITMAP
14
00
81
41
42
22
22
24
14
14
08
08
10
10
20
ENDCHAR
ENDFONT

