STARTFONT 2.1
COMMENT 
COMMENT This file has been produced by ttf2bdf written by Subhabrata Biswas
COMMENT 
COMMENT For comments, questions, bug reports, send a mail to
COMMENT                                           subhabrata.biswas@usa.net
COMMENT 
FONT -*-Raleway-Medium-R-Normal--19-140-96-96-c-11--fontspecific
SIZE 14 96 96
FONTBOUNDINGBOX 29 26 -4 -4
STARTPROPERTIES 15
FOUNDRY "Misc"
FAMILY_NAME "Raleway"
WEIGHT_NAME "Medium"
SLANT "R"
SETWIDTH_NAME "Normal"
PIXEL_SIZE 14
POINT_SIZE 140
RESOLUTION_X 96
RESOLUTION_Y 96
SPACING "C"
CHARSET_ENCODING "fontspecific"
FONT_ASCENT 22
FONT_DESCENT 4
DEFAULT_CHAR 1
COPYRIGHT "You may wish to put your copyright here"
ENDPROPERTIES
CHARS 255
STARTCHAR C0001
ENCODING 1
SWIDTH 642 0
DWIDTH 12 0
BBX 10 13 1 0
BITMAP
FFC0
C040
A040
B040
9040
8840
8C40
8440
8240
8240
8140
81C0
FFC0
ENDCHAR
STARTCHAR C0002
ENCODING 2
SWIDTH 642 0
DWIDTH 12 0
BBX 10 13 1 0
BITMAP
FFC0
C040
A040
B040
9040
8840
8C40
8440
8240
8240
8140
81C0
FFC0
ENDCHAR
STARTCHAR C0003
ENCODING 3
SWIDTH 642 0
DWIDTH 12 0
BBX 10 13 1 0
BITMAP
FFC0
C040
A040
B040
9040
8840
8C40
8440
8240
8240
8140
81C0
FFC0
ENDCHAR
STARTCHAR C0004
ENCODING 4
SWIDTH 642 0
DWIDTH 12 0
BBX 10 13 1 0
BITMAP
FFC0
C040
A040
B040
9040
8840
8C40
8440
8240
8240
8140
81C0
FFC0
ENDCHAR
STARTCHAR C0005
ENCODING 5
SWIDTH 642 0
DWIDTH 12 0
BBX 10 13 1 0
BITMAP
FFC0
C040
A040
B040
9040
8840
8C40
8440
8240
8240
8140
81C0
FFC0
ENDCHAR
STARTCHAR C0006
ENCODING 6
SWIDTH 642 0
DWIDTH 12 0
BBX 10 13 1 0
BITMAP
FFC0
C040
A040
B040
9040
8840
8C40
8440
8240
8240
8140
81C0
FFC0
ENDCHAR
STARTCHAR C0007
ENCODING 7
SWIDTH 642 0
DWIDTH 12 0
BBX 10 13 1 0
BITMAP
FFC0
C040
A040
B040
9040
8840
8C40
8440
8240
8240
8140
81C0
FFC0
ENDCHAR
STARTCHAR C0008
ENCODING 8
SWIDTH 642 0
DWIDTH 12 0
BBX 10 13 1 0
BITMAP
FFC0
C040
A040
B040
9040
8840
8C40
8440
8240
8240
8140
81C0
FFC0
ENDCHAR
STARTCHAR C0009
ENCODING 9
SWIDTH 642 0
DWIDTH 12 0
BBX 10 13 1 0
BITMAP
FFC0
C040
A040
B040
9040
8840
8C40
8440
8240
8240
8140
81C0
FFC0
ENDCHAR
STARTCHAR C0010
ENCODING 10
SWIDTH 642 0
DWIDTH 12 0
BBX 10 13 1 0
BITMAP
FFC0
C040
A040
B040
9040
8840
8C40
8440
8240
8240
8140
81C0
FFC0
ENDCHAR
STARTCHAR C0011
ENCODING 11
SWIDTH 642 0
DWIDTH 12 0
BBX 10 13 1 0
BITMAP
FFC0
C040
A040
B040
9040
8840
8C40
8440
8240
8240
8140
81C0
FFC0
ENDCHAR
STARTCHAR C0012
ENCODING 12
SWIDTH 642 0
DWIDTH 12 0
BBX 10 13 1 0
BITMAP
FFC0
C040
A040
B040
9040
8840
8C40
8440
8240
8240
8140
81C0
FFC0
ENDCHAR
STARTCHAR C0013
ENCODING 13
SWIDTH 0 0
DWIDTH 0 0
BBX 1 1 0 -1
BITMAP
00
ENDCHAR
STARTCHAR C0014
ENCODING 14
SWIDTH 642 0
DWIDTH 12 0
BBX 10 13 1 0
BITMAP
FFC0
C040
A040
B040
9040
8840
8C40
8440
8240
8240
8140
81C0
FFC0
ENDCHAR
STARTCHAR C0015
ENCODING 15
SWIDTH 642 0
DWIDTH 12 0
BBX 10 13 1 0
BITMAP
FFC0
C040
A040
B040
9040
8840
8C40
8440
8240
8240
8140
81C0
FFC0
ENDCHAR
STARTCHAR C0016
ENCODING 16
SWIDTH 642 0
DWIDTH 12 0
BBX 10 13 1 0
BITMAP
FFC0
C040
A040
B040
9040
8840
8C40
8440
8240
8240
8140
81C0
FFC0
ENDCHAR
STARTCHAR C0017
ENCODING 17
SWIDTH 642 0
DWIDTH 12 0
BBX 10 13 1 0
BITMAP
FFC0
C040
A040
B040
9040
8840
8C40
8440
8240
8240
8140
81C0
FFC0
ENDCHAR
STARTCHAR C0018
ENCODING 18
SWIDTH 642 0
DWIDTH 12 0
BBX 10 13 1 0
BITMAP
FFC0
C040
A040
B040
9040
8840
8C40
8440
8240
8240
8140
81C0
FFC0
ENDCHAR
STARTCHAR C0019
ENCODING 19
SWIDTH 642 0
DWIDTH 12 0
BBX 10 13 1 0
BITMAP
FFC0
C040
A040
B040
9040
8840
8C40
8440
8240
8240
8140
81C0
FFC0
ENDCHAR
STARTCHAR C0020
ENCODING 20
SWIDTH 642 0
DWIDTH 12 0
BBX 10 13 1 0
BITMAP
FFC0
C040
A040
B040
9040
8840
8C40
8440
8240
8240
8140
81C0
FFC0
ENDCHAR
STARTCHAR C0021
ENCODING 21
SWIDTH 642 0
DWIDTH 12 0
BBX 10 13 1 0
BITMAP
FFC0
C040
A040
B040
9040
8840
8C40
8440
8240
8240
8140
81C0
FFC0
ENDCHAR
STARTCHAR C0022
ENCODING 22
SWIDTH 642 0
DWIDTH 12 0
BBX 10 13 1 0
BITMAP
FFC0
C040
A040
B040
9040
8840
8C40
8440
8240
8240
8140
81C0
FFC0
ENDCHAR
STARTCHAR C0023
ENCODING 23
SWIDTH 642 0
DWIDTH 12 0
BBX 10 13 1 0
BITMAP
FFC0
C040
A040
B040
9040
8840
8C40
8440
8240
8240
8140
81C0
FFC0
ENDCHAR
STARTCHAR C0024
ENCODING 24
SWIDTH 642 0
DWIDTH 12 0
BBX 10 13 1 0
BITMAP
FFC0
C040
A040
B040
9040
8840
8C40
8440
8240
8240
8140
81C0
FFC0
ENDCHAR
STARTCHAR C0025
ENCODING 25
SWIDTH 642 0
DWIDTH 12 0
BBX 10 13 1 0
BITMAP
FFC0
C040
A040
B040
9040
8840
8C40
8440
8240
8240
8140
81C0
FFC0
ENDCHAR
STARTCHAR C0026
ENCODING 26
SWIDTH 642 0
DWIDTH 12 0
BBX 10 13 1 0
BITMAP
FFC0
C040
A040
B040
9040
8840
8C40
8440
8240
8240
8140
81C0
FFC0
ENDCHAR
STARTCHAR C0027
ENCODING 27
SWIDTH 642 0
DWIDTH 12 0
BBX 10 13 1 0
BITMAP
FFC0
C040
A040
B040
9040
8840
8C40
8440
8240
8240
8140
81C0
FFC0
ENDCHAR
STARTCHAR C0028
ENCODING 28
SWIDTH 642 0
DWIDTH 12 0
BBX 10 13 1 0
BITMAP
FFC0
C040
A040
B040
9040
8840
8C40
8440
8240
8240
8140
81C0
FFC0
ENDCHAR
STARTCHAR C0029
ENCODING 29
SWIDTH 642 0
DWIDTH 12 0
BBX 10 13 1 0
BITMAP
FFC0
C040
A040
B040
9040
8840
8C40
8440
8240
8240
8140
81C0
FFC0
ENDCHAR
STARTCHAR C0030
ENCODING 30
SWIDTH 642 0
DWIDTH 12 0
BBX 10 13 1 0
BITMAP
FFC0
C040
A040
B040
9040
8840
8C40
8440
8240
8240
8140
81C0
FFC0
ENDCHAR
STARTCHAR C0031
ENCODING 31
SWIDTH 642 0
DWIDTH 12 0
BBX 10 13 1 0
BITMAP
FFC0
C040
A040
B040
9040
8840
8C40
8440
8240
8240
8140
81C0
FFC0
ENDCHAR
STARTCHAR C0032- 
ENCODING 32
SWIDTH 267 0
DWIDTH 5 0
BBX 1 1 0 -1
BITMAP
00
ENDCHAR
STARTCHAR C0033-!
ENCODING 33
SWIDTH 267 0
DWIDTH 5 0
BBX 1 13 2 0
BITMAP
80
80
80
80
80
80
80
80
80
00
00
80
80
ENDCHAR
STARTCHAR C0034-"
ENCODING 34
SWIDTH 321 0
DWIDTH 6 0
BBX 3 4 1 9
BITMAP
A0
A0
A0
A0
ENDCHAR
STARTCHAR C0035-#
ENCODING 35
SWIDTH 696 0
DWIDTH 13 0
BBX 11 13 1 0
BITMAP
0840
08C0
0880
1080
7FE0
1080
1100
2100
FFC0
2200
6200
4200
4200
ENDCHAR
STARTCHAR C0036-$
ENCODING 36
SWIDTH 642 0
DWIDTH 12 0
BBX 10 17 1 -2
BITMAP
0800
0800
3F00
6980
C800
C800
C800
7800
1E00
0B80
08C0
0840
88C0
E980
3F00
0800
0800
ENDCHAR
STARTCHAR C0037-%
ENCODING 37
SWIDTH 750 0
DWIDTH 14 0
BBX 12 13 1 0
BITMAP
7020
8860
8840
8880
7100
0200
0400
0800
09E0
1210
2210
4210
81E0
ENDCHAR
STARTCHAR C0038-&
ENCODING 38
SWIDTH 696 0
DWIDTH 13 0
BBX 12 13 1 0
BITMAP
3C00
6200
4200
4200
2400
3800
3840
4C40
8640
8380
8180
43C0
3C60
ENDCHAR
STARTCHAR C0039-'
ENCODING 39
SWIDTH 214 0
DWIDTH 4 0
BBX 1 4 1 9
BITMAP
80
80
80
80
ENDCHAR
STARTCHAR C0040-(
ENCODING 40
SWIDTH 267 0
DWIDTH 5 0
BBX 3 15 1 -1
BITMAP
20
20
40
40
C0
80
80
80
80
80
C0
40
40
20
20
ENDCHAR
STARTCHAR C0041-)
ENCODING 41
SWIDTH 267 0
DWIDTH 5 0
BBX 3 15 1 -1
BITMAP
80
80
40
40
20
20
20
20
20
20
20
40
40
C0
80
ENDCHAR
STARTCHAR C0042-*
ENCODING 42
SWIDTH 321 0
DWIDTH 6 0
BBX 4 4 1 9
BITMAP
00
D0
60
40
ENDCHAR
STARTCHAR C0043-+
ENCODING 43
SWIDTH 428 0
DWIDTH 8 0
BBX 6 7 1 3
BITMAP
30
30
30
FC
30
30
30
ENDCHAR
STARTCHAR C0044-,
ENCODING 44
SWIDTH 214 0
DWIDTH 4 0
BBX 1 3 2 -1
BITMAP
80
80
00
ENDCHAR
STARTCHAR C0045--
ENCODING 45
SWIDTH 428 0
DWIDTH 8 0
BBX 6 1 1 5
BITMAP
FC
ENDCHAR
STARTCHAR C0046-.
ENCODING 46
SWIDTH 214 0
DWIDTH 4 0
BBX 1 2 1 0
BITMAP
80
80
ENDCHAR
STARTCHAR C0047-/
ENCODING 47
SWIDTH 589 0
DWIDTH 11 0
BBX 10 13 1 0
BITMAP
00C0
0180
0100
0300
0600
0400
0800
1800
1000
2000
6000
4000
8000
ENDCHAR
STARTCHAR C0048-0
ENCODING 48
SWIDTH 642 0
DWIDTH 12 0
BBX 10 11 1 0
BITMAP
1E00
6300
4180
C080
80C0
80C0
80C0
C080
4180
6300
1E00
ENDCHAR
STARTCHAR C0049-1
ENCODING 49
SWIDTH 428 0
DWIDTH 8 0
BBX 7 11 1 0
BITMAP
10
70
D0
10
10
10
10
10
10
10
FE
ENDCHAR
STARTCHAR C0050-2
ENCODING 50
SWIDTH 535 0
DWIDTH 10 0
BBX 8 11 1 0
BITMAP
3C
C6
03
03
02
0C
30
60
C0
80
FF
ENDCHAR
STARTCHAR C0051-3
ENCODING 51
SWIDTH 535 0
DWIDTH 10 0
BBX 8 14 1 -3
BITMAP
3C
C6
83
01
03
02
1C
06
01
01
01
81
C6
3C
ENDCHAR
STARTCHAR C0052-4
ENCODING 52
SWIDTH 535 0
DWIDTH 10 0
BBX 10 13 0 -2
BITMAP
0100
0300
0700
0500
0900
1100
3100
6100
4100
FFC0
0100
0100
0100
ENDCHAR
STARTCHAR C0053-5
ENCODING 53
SWIDTH 535 0
DWIDTH 10 0
BBX 9 14 1 -3
BITMAP
7F00
4000
4000
4000
4000
FC00
E300
8100
0180
0180
0180
8100
C300
3C00
ENDCHAR
STARTCHAR C0054-6
ENCODING 54
SWIDTH 589 0
DWIDTH 11 0
BBX 10 14 1 0
BITMAP
1E00
3100
6080
4000
C000
9E00
A100
C080
80C0
80C0
C0C0
4080
6300
1E00
ENDCHAR
STARTCHAR C0055-7
ENCODING 55
SWIDTH 535 0
DWIDTH 10 0
BBX 9 13 1 -2
BITMAP
FF80
0100
0300
0200
0600
0400
0C00
0800
1800
1000
2000
6000
4000
ENDCHAR
STARTCHAR C0056-8
ENCODING 56
SWIDTH 589 0
DWIDTH 11 0
BBX 9 13 1 0
BITMAP
3E00
6300
4180
C080
4180
6300
1E00
6100
C080
8080
C080
6380
3E00
ENDCHAR
STARTCHAR C0057-9
ENCODING 57
SWIDTH 589 0
DWIDTH 11 0
BBX 9 14 1 -3
BITMAP
3E00
6300
C180
8080
8080
8080
C180
6380
3C80
0080
0180
C100
6300
3C00
ENDCHAR
STARTCHAR C0058-:
ENCODING 58
SWIDTH 214 0
DWIDTH 4 0
BBX 1 10 1 0
BITMAP
80
80
00
00
00
00
00
00
80
80
ENDCHAR
STARTCHAR C0059-;
ENCODING 59
SWIDTH 214 0
DWIDTH 4 0
BBX 2 12 1 -2
BITMAP
80
80
00
00
00
00
00
00
C0
C0
40
80
ENDCHAR
STARTCHAR C0060-<
ENCODING 60
SWIDTH 535 0
DWIDTH 10 0
BBX 8 10 1 0
BITMAP
01
06
1C
30
C0
C0
30
1C
06
01
ENDCHAR
STARTCHAR C0061-=
ENCODING 61
SWIDTH 428 0
DWIDTH 8 0
BBX 6 3 1 4
BITMAP
FC
00
FC
ENDCHAR
STARTCHAR C0062->
ENCODING 62
SWIDTH 535 0
DWIDTH 10 0
BBX 8 10 1 0
BITMAP
80
E0
30
0C
07
07
0C
30
E0
80
ENDCHAR
STARTCHAR C0063-?
ENCODING 63
SWIDTH 482 0
DWIDTH 9 0
BBX 7 13 1 0
BITMAP
3C
C6
82
02
02
04
18
20
20
00
00
20
20
ENDCHAR
STARTCHAR C0064-@
ENCODING 64
SWIDTH 857 0
DWIDTH 16 0
BBX 14 14 1 -3
BITMAP
0FC0
3020
4010
4788
8844
8044
87C4
8844
9044
88C8
4F38
4000
3000
0F80
ENDCHAR
STARTCHAR C0065-A
ENCODING 65
SWIDTH 696 0
DWIDTH 13 0
BBX 13 13 0 0
BITMAP
0200
0700
0500
0D80
0880
0880
1040
1040
3FE0
2020
6030
4010
C018
ENDCHAR
STARTCHAR C0066-B
ENCODING 66
SWIDTH 696 0
DWIDTH 13 0
BBX 10 13 2 0
BITMAP
FF00
8180
8080
8080
8080
8100
FF00
8080
80C0
80C0
80C0
8180
FF00
ENDCHAR
STARTCHAR C0067-C
ENCODING 67
SWIDTH 696 0
DWIDTH 13 0
BBX 11 13 1 0
BITMAP
0F80
30C0
6060
C020
8000
8000
8000
8000
C000
4020
6060
30C0
0F00
ENDCHAR
STARTCHAR C0068-D
ENCODING 68
SWIDTH 750 0
DWIDTH 14 0
BBX 11 13 2 0
BITMAP
FE00
8380
80C0
8040
8040
8060
8060
8060
8040
8040
80C0
8380
FE00
ENDCHAR
STARTCHAR C0069-E
ENCODING 69
SWIDTH 642 0
DWIDTH 12 0
BBX 9 13 2 0
BITMAP
FF80
8000
8000
8000
8000
8000
FF00
8000
8000
8000
8000
8000
FF80
ENDCHAR
STARTCHAR C0070-F
ENCODING 70
SWIDTH 589 0
DWIDTH 11 0
BBX 9 13 2 0
BITMAP
FF80
8000
8000
8000
8000
8000
FE00
8000
8000
8000
8000
8000
8000
ENDCHAR
STARTCHAR C0071-G
ENCODING 71
SWIDTH 750 0
DWIDTH 14 0
BBX 12 13 1 0
BITMAP
0F80
30C0
6060
C000
8000
8000
8000
81F0
C030
4030
6070
38F0
0F30
ENDCHAR
STARTCHAR C0072-H
ENCODING 72
SWIDTH 750 0
DWIDTH 14 0
BBX 10 13 2 0
BITMAP
8040
8040
8040
8040
8040
8040
FFC0
8040
8040
8040
8040
8040
8040
ENDCHAR
STARTCHAR C0073-I
ENCODING 73
SWIDTH 267 0
DWIDTH 5 0
BBX 1 13 2 0
BITMAP
80
80
80
80
80
80
80
80
80
80
80
80
80
ENDCHAR
STARTCHAR C0074-J
ENCODING 74
SWIDTH 482 0
DWIDTH 9 0
BBX 8 13 0 0
BITMAP
03
03
03
03
03
03
03
03
03
02
02
06
7C
ENDCHAR
STARTCHAR C0075-K
ENCODING 75
SWIDTH 642 0
DWIDTH 12 0
BBX 10 13 2 0
BITMAP
8080
8100
8200
8600
8C00
9800
B800
EC00
C600
8200
8100
8080
80C0
ENDCHAR
STARTCHAR C0076-L
ENCODING 76
SWIDTH 589 0
DWIDTH 11 0
BBX 9 13 2 0
BITMAP
8000
8000
8000
8000
8000
8000
8000
8000
8000
8000
8000
8000
FF80
ENDCHAR
STARTCHAR C0077-M
ENCODING 77
SWIDTH 910 0
DWIDTH 17 0
BBX 13 13 2 0
BITMAP
8018
C018
E038
A028
B048
90C8
9888
8988
8508
8608
8208
8008
8008
ENDCHAR
STARTCHAR C0078-N
ENCODING 78
SWIDTH 803 0
DWIDTH 15 0
BBX 11 13 2 0
BITMAP
8020
C020
E020
B020
9020
8820
8C20
8620
8320
81A0
80A0
8060
8060
ENDCHAR
STARTCHAR C0079-O
ENCODING 79
SWIDTH 750 0
DWIDTH 14 0
BBX 12 13 1 0
BITMAP
0F80
30C0
6060
4030
C010
8010
8010
8010
8010
4030
6060
30C0
0F80
ENDCHAR
STARTCHAR C0080-P
ENCODING 80
SWIDTH 642 0
DWIDTH 12 0
BBX 9 13 2 0
BITMAP
FE00
8100
8080
8080
8080
8080
8100
FE00
8000
8000
8000
8000
8000
ENDCHAR
STARTCHAR C0081-Q
ENCODING 81
SWIDTH 750 0
DWIDTH 14 0
BBX 12 13 1 0
BITMAP
0F80
30C0
6060
4030
C010
8010
8010
8010
8010
40B0
6060
30E0
0FB0
ENDCHAR
STARTCHAR C0082-R
ENCODING 82
SWIDTH 642 0
DWIDTH 12 0
BBX 10 13 2 0
BITMAP
FE00
8100
8080
8080
8080
8080
8180
FE00
8600
8200
8100
8180
8080
ENDCHAR
STARTCHAR C0083-S
ENCODING 83
SWIDTH 642 0
DWIDTH 12 0
BBX 10 13 1 0
BITMAP
3F00
6180
C080
8000
C000
6000
1E00
0380
00C0
00C0
80C0
E180
3F00
ENDCHAR
STARTCHAR C0084-T
ENCODING 84
SWIDTH 642 0
DWIDTH 12 0
BBX 11 13 0 0
BITMAP
FFE0
0400
0400
0400
0400
0400
0400
0400
0400
0400
0400
0400
0400
ENDCHAR
STARTCHAR C0085-U
ENCODING 85
SWIDTH 750 0
DWIDTH 14 0
BBX 12 13 1 0
BITMAP
C010
C010
C010
C010
C010
C010
C010
4030
4030
4020
6060
30C0
0F80
ENDCHAR
STARTCHAR C0086-V
ENCODING 86
SWIDTH 696 0
DWIDTH 13 0
BBX 13 13 0 0
BITMAP
C010
4010
6030
2020
3060
1040
1040
1880
0880
0D80
0500
0700
0200
ENDCHAR
STARTCHAR C0087-W
ENCODING 87
SWIDTH 1071 0
DWIDTH 20 0
BBX 20 13 0 0
BITMAP
C10820
419020
609060
20B040
3060C0
106080
106180
08F100
089100
0D9200
050A00
070E00
020400
ENDCHAR
STARTCHAR C0088-X
ENCODING 88
SWIDTH 642 0
DWIDTH 12 0
BBX 12 13 0 0
BITMAP
C030
6060
30C0
1080
0900
0F00
0600
0600
0900
1080
30C0
6060
4020
ENDCHAR
STARTCHAR C0089-Y
ENCODING 89
SWIDTH 642 0
DWIDTH 12 0
BBX 12 13 0 0
BITMAP
4030
6020
2040
10C0
1880
0980
0F00
0600
0200
0200
0200
0200
0200
ENDCHAR
STARTCHAR C0090-Z
ENCODING 90
SWIDTH 642 0
DWIDTH 12 0
BBX 10 13 1 0
BITMAP
FFC0
00C0
0080
0100
0200
0600
0C00
1800
1000
2000
4000
C000
FFC0
ENDCHAR
STARTCHAR C0091-[
ENCODING 91
SWIDTH 267 0
DWIDTH 5 0
BBX 2 15 2 -1
BITMAP
C0
80
80
80
80
80
80
80
80
80
80
80
80
80
C0
ENDCHAR
STARTCHAR C0092-\
ENCODING 92
SWIDTH 589 0
DWIDTH 11 0
BBX 9 13 1 0
BITMAP
8000
C000
6000
2000
3000
1000
0800
0C00
0400
0200
0300
0100
0180
ENDCHAR
STARTCHAR C0093-]
ENCODING 93
SWIDTH 267 0
DWIDTH 5 0
BBX 2 15 1 -1
BITMAP
C0
40
40
40
40
40
40
40
40
40
40
40
40
40
C0
ENDCHAR
STARTCHAR C0094-^
ENCODING 94
SWIDTH 535 0
DWIDTH 10 0
BBX 8 8 1 5
BITMAP
18
18
34
24
62
42
41
81
ENDCHAR
STARTCHAR C0095-_
ENCODING 95
SWIDTH 535 0
DWIDTH 10 0
BBX 7 1 1 -1
BITMAP
FE
ENDCHAR
STARTCHAR C0096-`
ENCODING 96
SWIDTH 214 0
DWIDTH 4 0
BBX 2 2 1 12
BITMAP
C0
40
ENDCHAR
STARTCHAR C0097-a
ENCODING 97
SWIDTH 535 0
DWIDTH 10 0
BBX 8 10 1 0
BITMAP
3C
C2
03
01
7F
C1
81
83
C7
79
ENDCHAR
STARTCHAR C0098-b
ENCODING 98
SWIDTH 642 0
DWIDTH 12 0
BBX 10 14 1 0
BITMAP
C000
C000
C000
C000
DE00
F180
C080
C0C0
C040
C040
C0C0
C080
F180
DE00
ENDCHAR
STARTCHAR C0099-c
ENCODING 99
SWIDTH 535 0
DWIDTH 10 0
BBX 9 10 1 0
BITMAP
3E00
6300
C100
8000
8000
8000
8000
C180
6300
1E00
ENDCHAR
STARTCHAR C0100-d
ENCODING 100
SWIDTH 642 0
DWIDTH 12 0
BBX 10 14 1 0
BITMAP
0080
0080
0080
0080
3C80
6280
C180
8080
8080
8080
8080
C080
6380
3EC0
ENDCHAR
STARTCHAR C0101-e
ENCODING 101
SWIDTH 589 0
DWIDTH 11 0
BBX 10 10 1 0
BITMAP
3E00
6100
C080
8080
FFC0
8000
8000
4080
6100
1E00
ENDCHAR
STARTCHAR C0102-f
ENCODING 102
SWIDTH 321 0
DWIDTH 6 0
BBX 6 14 1 0
BITMAP
3C
64
40
40
F8
40
40
40
40
40
40
40
40
40
ENDCHAR
STARTCHAR C0103-g
ENCODING 103
SWIDTH 642 0
DWIDTH 12 0
BBX 9 14 1 -4
BITMAP
3C80
6380
C180
8080
8080
8080
8080
C080
6380
3C80
0080
8080
4100
3E00
ENDCHAR
STARTCHAR C0104-h
ENCODING 104
SWIDTH 589 0
DWIDTH 11 0
BBX 9 14 1 0
BITMAP
C000
C000
C000
C000
CE00
F300
E180
C180
C180
C180
C180
C180
C180
C180
ENDCHAR
STARTCHAR C0105-i
ENCODING 105
SWIDTH 214 0
DWIDTH 4 0
BBX 2 14 1 0
BITMAP
C0
C0
00
00
C0
C0
C0
C0
C0
C0
C0
C0
C0
C0
ENDCHAR
STARTCHAR C0106-j
ENCODING 106
SWIDTH 214 0
DWIDTH 4 0
BBX 5 17 -2 -3
BITMAP
08
08
00
00
08
08
08
08
08
08
08
08
08
08
08
90
F0
ENDCHAR
STARTCHAR C0107-k
ENCODING 107
SWIDTH 535 0
DWIDTH 10 0
BBX 9 14 1 0
BITMAP
C000
C000
C000
C000
C100
C200
C400
C800
D800
EC00
C400
C200
C300
C180
ENDCHAR
STARTCHAR C0108-l
ENCODING 108
SWIDTH 267 0
DWIDTH 5 0
BBX 4 14 1 0
BITMAP
C0
C0
C0
C0
C0
C0
C0
C0
C0
C0
C0
C0
40
70
ENDCHAR
STARTCHAR C0109-m
ENCODING 109
SWIDTH 910 0
DWIDTH 17 0
BBX 15 10 1 0
BITMAP
DE3C
F346
C182
C182
C102
C102
C102
C102
C102
C102
ENDCHAR
STARTCHAR C0110-n
ENCODING 110
SWIDTH 589 0
DWIDTH 11 0
BBX 9 10 1 0
BITMAP
CF00
F300
E180
C180
C180
C180
C180
C180
C180
C180
ENDCHAR
STARTCHAR C0111-o
ENCODING 111
SWIDTH 589 0
DWIDTH 11 0
BBX 10 10 1 0
BITMAP
3E00
6300
C180
8080
80C0
80C0
8080
C180
6300
3E00
ENDCHAR
STARTCHAR C0112-p
ENCODING 112
SWIDTH 642 0
DWIDTH 12 0
BBX 10 14 1 -4
BITMAP
DE00
E180
C080
C0C0
C040
C040
C0C0
C080
F180
DF00
C000
C000
C000
C000
ENDCHAR
STARTCHAR C0113-q
ENCODING 113
SWIDTH 642 0
DWIDTH 12 0
BBX 9 14 1 -4
BITMAP
3C80
6380
C180
8080
8080
8080
8080
C180
6280
3C80
0080
0080
0080
0080
ENDCHAR
STARTCHAR C0114-r
ENCODING 114
SWIDTH 375 0
DWIDTH 7 0
BBX 5 10 1 0
BITMAP
D8
F0
C0
C0
C0
C0
C0
C0
C0
C0
ENDCHAR
STARTCHAR C0115-s
ENCODING 115
SWIDTH 482 0
DWIDTH 9 0
BBX 7 10 1 0
BITMAP
3C
C2
80
C0
70
0E
02
02
C6
7C
ENDCHAR
STARTCHAR C0116-t
ENCODING 116
SWIDTH 321 0
DWIDTH 6 0
BBX 6 13 0 0
BITMAP
20
20
20
F8
20
20
20
20
20
20
20
20
3C
ENDCHAR
STARTCHAR C0117-u
ENCODING 117
SWIDTH 589 0
DWIDTH 11 0
BBX 9 10 1 0
BITMAP
C180
C180
C180
C180
C180
C180
C180
4180
6680
3C80
ENDCHAR
STARTCHAR C0118-v
ENCODING 118
SWIDTH 535 0
DWIDTH 10 0
BBX 10 10 0 0
BITMAP
40C0
4080
6080
2100
2100
1300
1200
1A00
0C00
0C00
ENDCHAR
STARTCHAR C0119-w
ENCODING 119
SWIDTH 803 0
DWIDTH 15 0
BBX 15 10 0 0
BITMAP
C642
42C6
6284
218C
2188
1388
1290
1A50
0C70
0C20
ENDCHAR
STARTCHAR C0120-x
ENCODING 120
SWIDTH 535 0
DWIDTH 10 0
BBX 9 10 0 0
BITMAP
4180
6100
3200
1600
0C00
0C00
1600
3200
6100
4180
ENDCHAR
STARTCHAR C0121-y
ENCODING 121
SWIDTH 535 0
DWIDTH 10 0
BBX 10 14 0 -4
BITMAP
40C0
4080
6080
2180
3100
1300
1200
0A00
0C00
0C00
0C00
0800
1800
3000
ENDCHAR
STARTCHAR C0122-z
ENCODING 122
SWIDTH 482 0
DWIDTH 9 0
BBX 8 10 1 0
BITMAP
FF
02
04
0C
18
10
20
40
C0
FF
ENDCHAR
STARTCHAR C0123-{
ENCODING 123
SWIDTH 267 0
DWIDTH 5 0
BBX 3 15 1 -1
BITMAP
60
40
40
40
40
40
40
C0
40
40
40
40
40
40
60
ENDCHAR
STARTCHAR C0124-|
ENCODING 124
SWIDTH 214 0
DWIDTH 4 0
BBX 1 17 2 -2
BITMAP
80
80
80
80
80
80
80
80
80
80
80
80
80
80
80
80
80
ENDCHAR
STARTCHAR C0125-}
ENCODING 125
SWIDTH 267 0
DWIDTH 5 0
BBX 3 15 1 -1
BITMAP
C0
40
40
40
40
40
40
60
40
40
40
40
40
40
C0
ENDCHAR
STARTCHAR C0126-~
ENCODING 126
SWIDTH 535 0
DWIDTH 10 0
BBX 7 2 1 5
BITMAP
72
8E
ENDCHAR
STARTCHAR C0127
ENCODING 127
SWIDTH 642 0
DWIDTH 12 0
BBX 10 13 1 0
BITMAP
FFC0
C040
A040
B040
9040
8840
8C40
8440
8240
8240
8140
81C0
FFC0
ENDCHAR
STARTCHAR C0128
ENCODING 128
SWIDTH 803 0
DWIDTH 15 0
BBX 13 13 1 0
BITMAP
07C0
0C30
1018
3000
2000
FF80
2000
FF80
2000
3008
1818
0C30
03C0
ENDCHAR
STARTCHAR C0129
ENCODING 129
SWIDTH 642 0
DWIDTH 12 0
BBX 10 13 1 0
BITMAP
FFC0
C040
A040
B040
9040
8840
8C40
8440
8240
8240
8140
81C0
FFC0
ENDCHAR
STARTCHAR C0130
ENCODING 130
SWIDTH 214 0
DWIDTH 4 0
BBX 1 4 2 -2
BITMAP
80
80
80
00
ENDCHAR
STARTCHAR C0131
ENCODING 131
SWIDTH 535 0
DWIDTH 10 0
BBX 8 16 1 -3
BITMAP
07
08
18
18
18
3E
18
18
18
18
18
18
18
18
10
E0
ENDCHAR
STARTCHAR C0132
ENCODING 132
SWIDTH 375 0
DWIDTH 7 0
BBX 3 4 2 -2
BITMAP
A0
A0
A0
20
ENDCHAR
STARTCHAR C0133
ENCODING 133
SWIDTH 482 0
DWIDTH 9 0
BBX 6 2 1 0
BITMAP
94
94
ENDCHAR
STARTCHAR C0134
ENCODING 134
SWIDTH 428 0
DWIDTH 8 0
BBX 6 17 1 -2
BITMAP
20
20
20
20
20
20
20
20
20
FC
20
20
20
20
20
20
20
ENDCHAR
STARTCHAR C0135
ENCODING 135
SWIDTH 428 0
DWIDTH 8 0
BBX 6 17 1 -2
BITMAP
30
30
30
30
30
30
30
FC
30
30
FC
30
30
30
30
30
30
ENDCHAR
STARTCHAR C0136
ENCODING 136
SWIDTH 321 0
DWIDTH 6 0
BBX 4 2 1 12
BITMAP
60
90
ENDCHAR
STARTCHAR C0137
ENCODING 137
SWIDTH 1071 0
DWIDTH 20 0
BBX 19 13 1 0
BITMAP
702000
882000
844000
888000
710000
020000
040000
040000
09E3C0
131440
221420
431440
81E380
ENDCHAR
STARTCHAR C0138
ENCODING 138
SWIDTH 642 0
DWIDTH 12 0
BBX 10 18 1 0
BITMAP
1200
0C00
0000
0000
0000
3F00
6180
C080
8000
C000
6000
1E00
0380
00C0
00C0
80C0
E180
3F00
ENDCHAR
STARTCHAR C0139
ENCODING 139
SWIDTH 375 0
DWIDTH 7 0
BBX 4 8 1 1
BITMAP
00
10
60
80
80
60
10
00
ENDCHAR
STARTCHAR C0140
ENCODING 140
SWIDTH 1178 0
DWIDTH 22 0
BBX 20 13 1 0
BITMAP
0F9FF0
30D000
607000
403000
C01000
801000
801FE0
801000
801000
403000
607000
30D000
0F1FF0
ENDCHAR
STARTCHAR C0141
ENCODING 141
SWIDTH 642 0
DWIDTH 12 0
BBX 10 13 1 0
BITMAP
FFC0
C040
A040
B040
9040
8840
8C40
8440
8240
8240
8140
81C0
FFC0
ENDCHAR
STARTCHAR C0142
ENCODING 142
SWIDTH 642 0
DWIDTH 12 0
BBX 10 18 1 0
BITMAP
1200
0C00
0000
0000
0000
FFC0
00C0
0080
0100
0200
0600
0C00
1800
1000
2000
4000
C000
FFC0
ENDCHAR
STARTCHAR C0143
ENCODING 143
SWIDTH 642 0
DWIDTH 12 0
BBX 10 13 1 0
BITMAP
FFC0
C040
A040
B040
9040
8840
8C40
8440
8240
8240
8140
81C0
FFC0
ENDCHAR
STARTCHAR C0144
ENCODING 144
SWIDTH 642 0
DWIDTH 12 0
BBX 10 13 1 0
BITMAP
FFC0
C040
A040
B040
9040
8840
8C40
8440
8240
8240
8140
81C0
FFC0
ENDCHAR
STARTCHAR C0145
ENCODING 145
SWIDTH 214 0
DWIDTH 4 0
BBX 1 4 1 10
BITMAP
00
80
80
80
ENDCHAR
STARTCHAR C0146
ENCODING 146
SWIDTH 214 0
DWIDTH 4 0
BBX 1 4 1 10
BITMAP
80
80
80
80
ENDCHAR
STARTCHAR C0147
ENCODING 147
SWIDTH 321 0
DWIDTH 6 0
BBX 3 4 1 10
BITMAP
00
A0
A0
A0
ENDCHAR
STARTCHAR C0148
ENCODING 148
SWIDTH 321 0
DWIDTH 6 0
BBX 4 4 1 10
BITMAP
90
90
90
80
ENDCHAR
STARTCHAR C0149
ENCODING 149
SWIDTH 375 0
DWIDTH 7 0
BBX 3 3 2 5
BITMAP
E0
E0
E0
ENDCHAR
STARTCHAR C0150
ENCODING 150
SWIDTH 589 0
DWIDTH 11 0
BBX 9 1 1 5
BITMAP
FF80
ENDCHAR
STARTCHAR C0151
ENCODING 151
SWIDTH 910 0
DWIDTH 17 0
BBX 15 1 1 5
BITMAP
FFFE
ENDCHAR
STARTCHAR C0152
ENCODING 152
SWIDTH 428 0
DWIDTH 8 0
BBX 6 2 1 12
BITMAP
E4
98
ENDCHAR
STARTCHAR C0153
ENCODING 153
SWIDTH 750 0
DWIDTH 14 0
BBX 11 5 1 8
BITMAP
FA20
2360
2360
22A0
2020
ENDCHAR
STARTCHAR C0154
ENCODING 154
SWIDTH 482 0
DWIDTH 9 0
BBX 7 14 1 0
BITMAP
24
18
00
00
3C
C2
80
C0
70
0E
02
02
C6
7C
ENDCHAR
STARTCHAR C0155
ENCODING 155
SWIDTH 375 0
DWIDTH 7 0
BBX 5 8 1 1
BITMAP
80
40
20
18
18
30
40
80
ENDCHAR
STARTCHAR C0156
ENCODING 156
SWIDTH 1071 0
DWIDTH 20 0
BBX 18 10 1 0
BITMAP
3E1F00
632180
C1C0C0
80C040
80FFC0
80C000
80C000
C1E080
633180
3E1F00
ENDCHAR
STARTCHAR C0157
ENCODING 157
SWIDTH 642 0
DWIDTH 12 0
BBX 10 13 1 0
BITMAP
FFC0
C040
A040
B040
9040
8840
8C40
8440
8240
8240
8140
81C0
FFC0
ENDCHAR
STARTCHAR C0158
ENCODING 158
SWIDTH 482 0
DWIDTH 9 0
BBX 8 14 1 0
BITMAP
24
18
00
00
FF
02
04
0C
18
10
20
40
C0
FF
ENDCHAR
STARTCHAR C0159
ENCODING 159
SWIDTH 642 0
DWIDTH 12 0
BBX 12 18 0 0
BITMAP
0900
0900
0000
0000
0000
4030
6020
2040
10C0
1880
0980
0F00
0600
0200
0200
0200
0200
0200
ENDCHAR
STARTCHAR C0160
ENCODING 160
SWIDTH 267 0
DWIDTH 5 0
BBX 1 1 0 -1
BITMAP
00
ENDCHAR
STARTCHAR C0161
ENCODING 161
SWIDTH 267 0
DWIDTH 5 0
BBX 1 13 2 0
BITMAP
80
80
00
00
80
80
80
80
80
80
80
80
80
ENDCHAR
STARTCHAR C0162
ENCODING 162
SWIDTH 589 0
DWIDTH 11 0
BBX 9 14 1 -2
BITMAP
0800
0800
3E00
6B00
C900
8800
8800
8800
8800
C880
6B00
1E00
0800
0800
ENDCHAR
STARTCHAR C0163
ENCODING 163
SWIDTH 482 0
DWIDTH 9 0
BBX 8 13 1 0
BITMAP
3C
66
42
40
40
60
FC
20
30
20
60
40
FF
ENDCHAR
STARTCHAR C0164
ENCODING 164
SWIDTH 535 0
DWIDTH 10 0
BBX 8 9 1 2
BITMAP
01
FF
62
42
43
42
62
7D
00
ENDCHAR
STARTCHAR C0165
ENCODING 165
SWIDTH 696 0
DWIDTH 13 0
BBX 11 13 1 0
BITMAP
8020
4040
60C0
2080
1100
1B00
3B80
0C00
0400
3F80
0400
0400
0400
ENDCHAR
STARTCHAR C0166
ENCODING 166
SWIDTH 214 0
DWIDTH 4 0
BBX 1 17 2 -2
BITMAP
80
80
80
80
80
80
80
80
00
00
80
80
80
80
80
80
80
ENDCHAR
STARTCHAR C0167
ENCODING 167
SWIDTH 535 0
DWIDTH 10 0
BBX 8 15 1 -2
BITMAP
3C
C6
80
80
C0
7C
C6
C2
42
3E
03
03
03
E6
3C
ENDCHAR
STARTCHAR C0168
ENCODING 168
SWIDTH 321 0
DWIDTH 6 0
BBX 4 2 1 12
BITMAP
90
90
ENDCHAR
STARTCHAR C0169
ENCODING 169
SWIDTH 857 0
DWIDTH 16 0
BBX 14 13 1 0
BITMAP
0FC0
3020
4798
48C8
9004
9004
9004
9004
9044
4CC8
4788
3030
0FC0
ENDCHAR
STARTCHAR C0170
ENCODING 170
SWIDTH 428 0
DWIDTH 8 0
BBX 6 7 1 6
BITMAP
78
0C
04
7C
84
8C
74
ENDCHAR
STARTCHAR C0171
ENCODING 171
SWIDTH 589 0
DWIDTH 11 0
BBX 9 8 1 1
BITMAP
0080
1100
6600
8C00
8C00
6600
1100
0080
ENDCHAR
STARTCHAR C0172
ENCODING 172
SWIDTH 589 0
DWIDTH 11 0
BBX 9 5 1 2
BITMAP
FF80
0080
0080
0080
0080
ENDCHAR
STARTCHAR C0173
ENCODING 173
SWIDTH 589 0
DWIDTH 11 0
BBX 9 1 1 5
BITMAP
FF80
ENDCHAR
STARTCHAR C0174
ENCODING 174
SWIDTH 857 0
DWIDTH 16 0
BBX 14 13 1 0
BITMAP
0FC0
3030
4008
4F88
8844
8844
8F84
8884
8884
4848
4008
3030
0FC0
ENDCHAR
STARTCHAR C0175
ENCODING 175
SWIDTH 428 0
DWIDTH 8 0
BBX 6 1 1 13
BITMAP
FC
ENDCHAR
STARTCHAR C0176
ENCODING 176
SWIDTH 267 0
DWIDTH 5 0
BBX 3 3 1 10
BITMAP
E0
A0
E0
ENDCHAR
STARTCHAR C0177
ENCODING 177
SWIDTH 482 0
DWIDTH 9 0
BBX 7 9 1 1
BITMAP
10
10
10
FE
10
10
10
00
FE
ENDCHAR
STARTCHAR C0178
ENCODING 178
SWIDTH 375 0
DWIDTH 7 0
BBX 6 8 1 8
BITMAP
78
88
04
08
30
C0
80
FC
ENDCHAR
STARTCHAR C0179
ENCODING 179
SWIDTH 375 0
DWIDTH 7 0
BBX 6 8 1 8
BITMAP
F8
88
08
30
08
04
8C
78
ENDCHAR
STARTCHAR C0180
ENCODING 180
SWIDTH 214 0
DWIDTH 4 0
BBX 2 2 1 12
BITMAP
40
80
ENDCHAR
STARTCHAR C0181
ENCODING 181
SWIDTH 642 0
DWIDTH 12 0
BBX 8 14 2 -4
BITMAP
81
81
81
81
81
81
81
83
C5
B9
80
80
80
80
ENDCHAR
STARTCHAR C0182
ENCODING 182
SWIDTH 589 0
DWIDTH 11 0
BBX 10 15 1 -2
BITMAP
3FC0
4500
8500
8500
8500
8500
8500
6500
3F00
0500
0500
0500
0500
0500
0500
ENDCHAR
STARTCHAR C0183
ENCODING 183
SWIDTH 214 0
DWIDTH 4 0
BBX 1 2 1 5
BITMAP
80
80
ENDCHAR
STARTCHAR C0184
ENCODING 184
SWIDTH 267 0
DWIDTH 5 0
BBX 4 4 1 -4
BITMAP
20
10
10
E0
ENDCHAR
STARTCHAR C0185
ENCODING 185
SWIDTH 267 0
DWIDTH 5 0
BBX 4 8 1 8
BITMAP
40
C0
40
40
40
40
40
F0
ENDCHAR
STARTCHAR C0186
ENCODING 186
SWIDTH 482 0
DWIDTH 9 0
BBX 7 7 1 6
BITMAP
78
C4
86
82
86
C4
78
ENDCHAR
STARTCHAR C0187
ENCODING 187
SWIDTH 589 0
DWIDTH 11 0
BBX 9 8 1 1
BITMAP
8800
4400
2300
1980
1980
3300
4400
8800
ENDCHAR
STARTCHAR C0188
ENCODING 188
SWIDTH 803 0
DWIDTH 15 0
BBX 14 14 1 0
BITMAP
4000
C020
4040
4080
4100
4100
4208
F418
0828
1048
2088
21FC
4008
8008
ENDCHAR
STARTCHAR C0189
ENCODING 189
SWIDTH 803 0
DWIDTH 15 0
BBX 14 14 1 0
BITMAP
4020
C040
4040
4080
4100
4200
4278
F488
0804
1008
2030
20C0
4080
80FC
ENDCHAR
STARTCHAR C0190
ENCODING 190
SWIDTH 910 0
DWIDTH 17 0
BBX 16 14 1 0
BITMAP
F800
8808
0810
3020
0840
0440
8C82
7906
020A
0412
0822
087F
1002
2002
ENDCHAR
STARTCHAR C0191
ENCODING 191
SWIDTH 482 0
DWIDTH 9 0
BBX 7 14 1 -4
BITMAP
08
08
00
00
08
08
10
60
C0
80
80
82
C6
78
ENDCHAR
STARTCHAR C0192
ENCODING 192
SWIDTH 696 0
DWIDTH 13 0
BBX 13 18 0 0
BITMAP
0600
0200
0000
0000
0000
0200
0700
0500
0D80
0880
0880
1040
1040
3FE0
2020
6030
4010
C018
ENDCHAR
STARTCHAR C0193
ENCODING 193
SWIDTH 696 0
DWIDTH 13 0
BBX 13 18 0 0
BITMAP
0100
0200
0000
0000
0000
0200
0700
0500
0D80
0880
0880
1040
1040
3FE0
2020
6030
4010
C018
ENDCHAR
STARTCHAR C0194
ENCODING 194
SWIDTH 696 0
DWIDTH 13 0
BBX 13 18 0 0
BITMAP
0600
0900
0000
0000
0000
0200
0700
0500
0D80
0880
0880
1040
1040
3FE0
2020
6030
4010
C018
ENDCHAR
STARTCHAR C0195
ENCODING 195
SWIDTH 696 0
DWIDTH 13 0
BBX 13 18 0 0
BITMAP
0C80
1380
0000
0000
0000
0200
0700
0500
0D80
0880
0880
1040
1040
3FE0
2020
6030
4010
C018
ENDCHAR
STARTCHAR C0196
ENCODING 196
SWIDTH 696 0
DWIDTH 13 0
BBX 13 18 0 0
BITMAP
0900
0900
0000
0000
0000
0200
0700
0500
0D80
0880
0880
1040
1040
3FE0
2020
6030
4010
C018
ENDCHAR
STARTCHAR C0197
ENCODING 197
SWIDTH 696 0
DWIDTH 13 0
BBX 13 18 0 0
BITMAP
0700
0500
0700
0000
0000
0200
0700
0500
0D80
0880
0880
1040
1040
3FE0
2020
6030
4010
C018
ENDCHAR
STARTCHAR C0198
ENCODING 198
SWIDTH 964 0
DWIDTH 18 0
BBX 19 13 -1 0
BITMAP
007FC0
00E000
00E000
016000
026000
026000
047F80
086000
0FE000
102000
302000
202000
403FE0
ENDCHAR
STARTCHAR C0199
ENCODING 199
SWIDTH 696 0
DWIDTH 13 0
BBX 11 17 1 -4
BITMAP
0F80
30C0
6060
C020
8000
8000
8000
8000
C000
4020
6060
30C0
0F00
0200
0100
0100
0E00
ENDCHAR
STARTCHAR C0200
ENCODING 200
SWIDTH 642 0
DWIDTH 12 0
BBX 9 18 2 0
BITMAP
1800
0800
0000
0000
0000
FF80
8000
8000
8000
8000
8000
FF00
8000
8000
8000
8000
8000
FF80
ENDCHAR
STARTCHAR C0201
ENCODING 201
SWIDTH 642 0
DWIDTH 12 0
BBX 9 18 2 0
BITMAP
0400
0800
0000
0000
0000
FF80
8000
8000
8000
8000
8000
FF00
8000
8000
8000
8000
8000
FF80
ENDCHAR
STARTCHAR C0202
ENCODING 202
SWIDTH 642 0
DWIDTH 12 0
BBX 9 18 2 0
BITMAP
1800
2400
0000
0000
0000
FF80
8000
8000
8000
8000
8000
FF00
8000
8000
8000
8000
8000
FF80
ENDCHAR
STARTCHAR C0203
ENCODING 203
SWIDTH 642 0
DWIDTH 12 0
BBX 9 18 2 0
BITMAP
2400
2400
0000
0000
0000
FF80
8000
8000
8000
8000
8000
FF00
8000
8000
8000
8000
8000
FF80
ENDCHAR
STARTCHAR C0204
ENCODING 204
SWIDTH 267 0
DWIDTH 5 0
BBX 2 18 1 0
BITMAP
C0
40
00
00
00
40
40
40
40
40
40
40
40
40
40
40
40
40
ENDCHAR
STARTCHAR C0205
ENCODING 205
SWIDTH 267 0
DWIDTH 5 0
BBX 2 18 2 0
BITMAP
40
80
00
00
00
80
80
80
80
80
80
80
80
80
80
80
80
80
ENDCHAR
STARTCHAR C0206
ENCODING 206
SWIDTH 267 0
DWIDTH 5 0
BBX 4 18 0 0
BITMAP
60
90
00
00
00
20
20
20
20
20
20
20
20
20
20
20
20
20
ENDCHAR
STARTCHAR C0207
ENCODING 207
SWIDTH 267 0
DWIDTH 5 0
BBX 4 18 0 0
BITMAP
90
90
00
00
00
20
20
20
20
20
20
20
20
20
20
20
20
20
ENDCHAR
STARTCHAR C0208
ENCODING 208
SWIDTH 750 0
DWIDTH 14 0
BBX 12 13 1 0
BITMAP
7F00
41C0
4060
4020
4030
4030
F810
4030
4030
4020
4060
41C0
7F00
ENDCHAR
STARTCHAR C0209
ENCODING 209
SWIDTH 803 0
DWIDTH 15 0
BBX 11 18 2 0
BITMAP
1900
2700
0000
0000
0000
8020
C020
E020
B020
9020
8820
8C20
8620
8320
81A0
80A0
8060
8060
ENDCHAR
STARTCHAR C0210
ENCODING 210
SWIDTH 750 0
DWIDTH 14 0
BBX 12 18 1 0
BITMAP
0C00
0400
0000
0000
0000
0F80
30C0
6060
4030
C010
8010
8010
8010
8010
4030
6060
30C0
0F80
ENDCHAR
STARTCHAR C0211
ENCODING 211
SWIDTH 750 0
DWIDTH 14 0
BBX 12 18 1 0
BITMAP
0100
0200
0000
0000
0000
0F80
30C0
6060
4030
C010
8010
8010
8010
8010
4030
6060
30C0
0F80
ENDCHAR
STARTCHAR C0212
ENCODING 212
SWIDTH 750 0
DWIDTH 14 0
BBX 12 18 1 0
BITMAP
0600
0900
0000
0000
0000
0F80
30C0
6060
4030
C010
8010
8010
8010
8010
4030
6060
30C0
0F80
ENDCHAR
STARTCHAR C0213
ENCODING 213
SWIDTH 750 0
DWIDTH 14 0
BBX 12 18 1 0
BITMAP
0C80
1380
0000
0000
0000
0F80
30C0
6060
4030
C010
8010
8010
8010
8010
4030
6060
30C0
0F80
ENDCHAR
STARTCHAR C0214
ENCODING 214
SWIDTH 750 0
DWIDTH 14 0
BBX 12 18 1 0
BITMAP
0900
0900
0000
0000
0000
0F80
30C0
6060
4030
C010
8010
8010
8010
8010
4030
6060
30C0
0F80
ENDCHAR
STARTCHAR C0215
ENCODING 215
SWIDTH 482 0
DWIDTH 9 0
BBX 6 6 1 2
BITMAP
44
6C
38
38
6C
44
ENDCHAR
STARTCHAR C0216
ENCODING 216
SWIDTH 750 0
DWIDTH 14 0
BBX 12 13 1 0
BITMAP
0FE0
30C0
60E0
41B0
C310
8210
8410
8C10
8810
5030
7060
30C0
4F80
ENDCHAR
STARTCHAR C0217
ENCODING 217
SWIDTH 750 0
DWIDTH 14 0
BBX 12 18 1 0
BITMAP
0C00
0400
0000
0000
0000
C010
C010
C010
C010
C010
C010
C010
4030
4030
4020
6060
30C0
0F80
ENDCHAR
STARTCHAR C0218
ENCODING 218
SWIDTH 750 0
DWIDTH 14 0
BBX 12 18 1 0
BITMAP
0100
0200
0000
0000
0000
C010
C010
C010
C010
C010
C010
C010
4030
4030
4020
6060
30C0
0F80
ENDCHAR
STARTCHAR C0219
ENCODING 219
SWIDTH 750 0
DWIDTH 14 0
BBX 12 18 1 0
BITMAP
0600
0900
0000
0000
0000
C010
C010
C010
C010
C010
C010
C010
4030
4030
4020
6060
30C0
0F80
ENDCHAR
STARTCHAR C0220
ENCODING 220
SWIDTH 750 0
DWIDTH 14 0
BBX 12 18 1 0
BITMAP
0900
0900
0000
0000
0000
C010
C010
C010
C010
C010
C010
C010
4030
4030
4020
6060
30C0
0F80
ENDCHAR
STARTCHAR C0221
ENCODING 221
SWIDTH 642 0
DWIDTH 12 0
BBX 12 18 0 0
BITMAP
0100
0200
0000
0000
0000
4030
6020
2040
10C0
1880
0980
0F00
0600
0200
0200
0200
0200
0200
ENDCHAR
STARTCHAR C0222
ENCODING 222
SWIDTH 589 0
DWIDTH 11 0
BBX 9 13 2 0
BITMAP
8000
8000
8000
FE00
8300
8180
8080
8080
8180
8300
FE00
8000
8000
ENDCHAR
STARTCHAR C0223
ENCODING 223
SWIDTH 535 0
DWIDTH 10 0
BBX 9 14 1 0
BITMAP
3C00
6200
4300
C100
C300
C200
CC00
C300
C100
C180
C180
C100
C300
CC00
ENDCHAR
STARTCHAR C0224
ENCODING 224
SWIDTH 535 0
DWIDTH 10 0
BBX 8 14 1 0
BITMAP
30
10
00
00
3C
C2
03
01
7F
C1
81
83
C7
79
ENDCHAR
STARTCHAR C0225
ENCODING 225
SWIDTH 535 0
DWIDTH 10 0
BBX 8 14 1 0
BITMAP
04
08
00
00
3C
C2
03
01
7F
C1
81
83
C7
79
ENDCHAR
STARTCHAR C0226
ENCODING 226
SWIDTH 535 0
DWIDTH 10 0
BBX 8 14 1 0
BITMAP
18
24
00
00
3C
C2
03
01
7F
C1
81
83
C7
79
ENDCHAR
STARTCHAR C0227
ENCODING 227
SWIDTH 535 0
DWIDTH 10 0
BBX 8 14 1 0
BITMAP
32
4E
00
00
3C
C2
03
01
7F
C1
81
83
C7
79
ENDCHAR
STARTCHAR C0228
ENCODING 228
SWIDTH 535 0
DWIDTH 10 0
BBX 8 14 1 0
BITMAP
24
24
00
00
3C
C2
03
01
7F
C1
81
83
C7
79
ENDCHAR
STARTCHAR C0229
ENCODING 229
SWIDTH 535 0
DWIDTH 10 0
BBX 8 14 1 0
BITMAP
1C
14
1C
00
3C
C2
03
01
7F
C1
81
83
C7
79
ENDCHAR
STARTCHAR C0230
ENCODING 230
SWIDTH 964 0
DWIDTH 18 0
BBX 16 10 1 0
BITMAP
3C7C
C286
0303
0301
7FFF
C300
8100
8302
C6C6
787C
ENDCHAR
STARTCHAR C0231
ENCODING 231
SWIDTH 535 0
DWIDTH 10 0
BBX 9 14 1 -4
BITMAP
3E00
6300
C100
8000
8000
8000
8000
C180
6300
1E00
0400
0200
0200
1C00
ENDCHAR
STARTCHAR C0232
ENCODING 232
SWIDTH 589 0
DWIDTH 11 0
BBX 10 14 1 0
BITMAP
1800
0800
0000
0000
3E00
6100
C080
8080
FFC0
8000
8000
4080
6100
1E00
ENDCHAR
STARTCHAR C0233
ENCODING 233
SWIDTH 589 0
DWIDTH 11 0
BBX 10 14 1 0
BITMAP
0400
0800
0000
0000
3E00
6100
C080
8080
FFC0
8000
8000
4080
6100
1E00
ENDCHAR
STARTCHAR C0234
ENCODING 234
SWIDTH 589 0
DWIDTH 11 0
BBX 10 14 1 0
BITMAP
0C00
1200
0000
0000
3E00
6100
C080
8080
FFC0
8000
8000
4080
6100
1E00
ENDCHAR
STARTCHAR C0235
ENCODING 235
SWIDTH 589 0
DWIDTH 11 0
BBX 10 14 1 0
BITMAP
1200
1200
0000
0000
3E00
6100
C080
8080
FFC0
8000
8000
4080
6100
1E00
ENDCHAR
STARTCHAR C0236
ENCODING 236
SWIDTH 214 0
DWIDTH 4 0
BBX 3 14 0 0
BITMAP
C0
40
00
00
60
60
60
60
60
60
60
60
60
60
ENDCHAR
STARTCHAR C0237
ENCODING 237
SWIDTH 214 0
DWIDTH 4 0
BBX 3 14 1 0
BITMAP
20
40
00
00
C0
C0
C0
C0
C0
C0
C0
C0
C0
C0
ENDCHAR
STARTCHAR C0238
ENCODING 238
SWIDTH 214 0
DWIDTH 4 0
BBX 4 14 0 0
BITMAP
60
90
00
00
60
60
60
60
60
60
60
60
60
60
ENDCHAR
STARTCHAR C0239
ENCODING 239
SWIDTH 214 0
DWIDTH 4 0
BBX 4 14 0 0
BITMAP
90
90
00
00
60
60
60
60
60
60
60
60
60
60
ENDCHAR
STARTCHAR C0240
ENCODING 240
SWIDTH 589 0
DWIDTH 11 0
BBX 10 14 1 0
BITMAP
1800
0700
0E00
0100
0180
3E80
6180
C0C0
80C0
80C0
8080
C080
6300
3E00
ENDCHAR
STARTCHAR C0241
ENCODING 241
SWIDTH 589 0
DWIDTH 11 0
BBX 9 14 1 0
BITMAP
1900
2700
0000
0000
CF00
F300
E180
C180
C180
C180
C180
C180
C180
C180
ENDCHAR
STARTCHAR C0242
ENCODING 242
SWIDTH 589 0
DWIDTH 11 0
BBX 10 14 1 0
BITMAP
1800
0800
0000
0000
3E00
6300
C180
8080
80C0
80C0
8080
C180
6300
3E00
ENDCHAR
STARTCHAR C0243
ENCODING 243
SWIDTH 589 0
DWIDTH 11 0
BBX 10 14 1 0
BITMAP
0400
0800
0000
0000
3E00
6300
C180
8080
80C0
80C0
8080
C180
6300
3E00
ENDCHAR
STARTCHAR C0244
ENCODING 244
SWIDTH 589 0
DWIDTH 11 0
BBX 10 14 1 0
BITMAP
0C00
1200
0000
0000
3E00
6300
C180
8080
80C0
80C0
8080
C180
6300
3E00
ENDCHAR
STARTCHAR C0245
ENCODING 245
SWIDTH 589 0
DWIDTH 11 0
BBX 10 14 1 0
BITMAP
1900
2700
0000
0000
3E00
6300
C180
8080
80C0
80C0
8080
C180
6300
3E00
ENDCHAR
STARTCHAR C0246
ENCODING 246
SWIDTH 589 0
DWIDTH 11 0
BBX 10 14 1 0
BITMAP
1200
1200
0000
0000
3E00
6300
C180
8080
80C0
80C0
8080
C180
6300
3E00
ENDCHAR
STARTCHAR C0247
ENCODING 247
SWIDTH 535 0
DWIDTH 10 0
BBX 8 9 1 1
BITMAP
08
08
00
00
FF
00
00
08
08
ENDCHAR
STARTCHAR C0248
ENCODING 248
SWIDTH 589 0
DWIDTH 11 0
BBX 10 10 1 0
BITMAP
3F00
6300
C380
8480
8CC0
88C0
9080
E180
6300
7E00
ENDCHAR
STARTCHAR C0249
ENCODING 249
SWIDTH 589 0
DWIDTH 11 0
BBX 9 14 1 0
BITMAP
1800
0800
0000
0000
C180
C180
C180
C180
C180
C180
C180
4180
6680
3C80
ENDCHAR
STARTCHAR C0250
ENCODING 250
SWIDTH 589 0
DWIDTH 11 0
BBX 9 14 1 0
BITMAP
0400
0800
0000
0000
C180
C180
C180
C180
C180
C180
C180
4180
6680
3C80
ENDCHAR
STARTCHAR C0251
ENCODING 251
SWIDTH 589 0
DWIDTH 11 0
BBX 9 14 1 0
BITMAP
1800
2400
0000
0000
C180
C180
C180
C180
C180
C180
C180
4180
6680
3C80
ENDCHAR
STARTCHAR C0252
ENCODING 252
SWIDTH 589 0
DWIDTH 11 0
BBX 9 14 1 0
BITMAP
2400
2400
0000
0000
C180
C180
C180
C180
C180
C180
C180
4180
6680
3C80
ENDCHAR
STARTCHAR C0253
ENCODING 253
SWIDTH 535 0
DWIDTH 10 0
BBX 10 18 0 -4
BITMAP
0200
0400
0000
0000
40C0
4080
6080
2180
3100
1300
1200
0A00
0C00
0C00
0C00
0800
1800
3000
ENDCHAR
STARTCHAR C0254
ENCODING 254
SWIDTH 589 0
DWIDTH 11 0
BBX 10 17 1 -4
BITMAP
C000
C000
C000
DE00
F300
C080
C0C0
C0C0
C0C0
C080
C080
E300
DE00
C000
C000
C000
C000
ENDCHAR
STARTCHAR C0255
ENCODING 255
SWIDTH 535 0
DWIDTH 10 0
BBX 10 18 0 -4
BITMAP
1200
1200
0000
0000
40C0
4080
6080
2180
3100
1300
1200
0A00
0C00
0C00
0C00
0800
1800
3000
ENDCHAR
ENDFONT

