STARTFONT 2.1
COMMENT 
COMMENT This file has been produced by ttf2bdf written by Subhabrata Biswas
COMMENT 
COMMENT For comments, questions, bug reports, send a mail to
COMMENT                                           subhabrata.biswas@usa.net
COMMENT 
FONT -*-Raleway-Medium-R-Normal--13-100-96-96-c-7--fontspecific
SIZE 10 96 96
FONTBOUNDINGBOX 20 18 -3 -3
STARTPROPERTIES 15
FOUNDRY "Misc"
FAMILY_NAME "Raleway"
WEIGHT_NAME "Medium"
SLANT "R"
SETWIDTH_NAME "Normal"
PIXEL_SIZE 9
POINT_SIZE 100
RESOLUTION_X 96
RESOLUTION_Y 96
SPACING "C"
CHARSET_ENCODING "fontspecific"
FONT_ASCENT 15
FONT_DESCENT 3
DEFAULT_CHAR 1
COPYRIGHT "You may wish to put your copyright here"
ENDPROPERTIES
CHARS 255
STARTCHAR C0001
ENCODING 1
SWIDTH 600 0
DWIDTH 8 0
BBX 6 9 1 0
BITMAP
FC
C4
C4
A4
94
94
8C
8C
FC
ENDCHAR
STARTCHAR C0002
ENCODING 2
SWIDTH 600 0
DWIDTH 8 0
BBX 6 9 1 0
BITMAP
FC
C4
C4
A4
94
94
8C
8C
FC
ENDCHAR
STARTCHAR C0003
ENCODING 3
SWIDTH 600 0
DWIDTH 8 0
BBX 6 9 1 0
BITMAP
FC
C4
C4
A4
94
94
8C
8C
FC
ENDCHAR
STARTCHAR C0004
ENCODING 4
SWIDTH 600 0
DWIDTH 8 0
BBX 6 9 1 0
BITMAP
FC
C4
C4
A4
94
94
8C
8C
FC
ENDCHAR
STARTCHAR C0005
ENCODING 5
SWIDTH 600 0
DWIDTH 8 0
BBX 6 9 1 0
BITMAP
FC
C4
C4
A4
94
94
8C
8C
FC
ENDCHAR
STARTCHAR C0006
ENCODING 6
SWIDTH 600 0
DWIDTH 8 0
BBX 6 9 1 0
BITMAP
FC
C4
C4
A4
94
94
8C
8C
FC
ENDCHAR
STARTCHAR C0007
ENCODING 7
SWIDTH 600 0
DWIDTH 8 0
BBX 6 9 1 0
BITMAP
FC
C4
C4
A4
94
94
8C
8C
FC
ENDCHAR
STARTCHAR C0008
ENCODING 8
SWIDTH 600 0
DWIDTH 8 0
BBX 6 9 1 0
BITMAP
FC
C4
C4
A4
94
94
8C
8C
FC
ENDCHAR
STARTCHAR C0009
ENCODING 9
SWIDTH 600 0
DWIDTH 8 0
BBX 6 9 1 0
BITMAP
FC
C4
C4
A4
94
94
8C
8C
FC
ENDCHAR
STARTCHAR C0010
ENCODING 10
SWIDTH 600 0
DWIDTH 8 0
BBX 6 9 1 0
BITMAP
FC
C4
C4
A4
94
94
8C
8C
FC
ENDCHAR
STARTCHAR C0011
ENCODING 11
SWIDTH 600 0
DWIDTH 8 0
BBX 6 9 1 0
BITMAP
FC
C4
C4
A4
94
94
8C
8C
FC
ENDCHAR
STARTCHAR C0012
ENCODING 12
SWIDTH 600 0
DWIDTH 8 0
BBX 6 9 1 0
BITMAP
FC
C4
C4
A4
94
94
8C
8C
FC
ENDCHAR
STARTCHAR C0013
ENCODING 13
SWIDTH 0 0
DWIDTH 0 0
BBX 1 1 0 -1
BITMAP
00
ENDCHAR
STARTCHAR C0014
ENCODING 14
SWIDTH 600 0
DWIDTH 8 0
BBX 6 9 1 0
BITMAP
FC
C4
C4
A4
94
94
8C
8C
FC
ENDCHAR
STARTCHAR C0015
ENCODING 15
SWIDTH 600 0
DWIDTH 8 0
BBX 6 9 1 0
BITMAP
FC
C4
C4
A4
94
94
8C
8C
FC
ENDCHAR
STARTCHAR C0016
ENCODING 16
SWIDTH 600 0
DWIDTH 8 0
BBX 6 9 1 0
BITMAP
FC
C4
C4
A4
94
94
8C
8C
FC
ENDCHAR
STARTCHAR C0017
ENCODING 17
SWIDTH 600 0
DWIDTH 8 0
BBX 6 9 1 0
BITMAP
FC
C4
C4
A4
94
94
8C
8C
FC
ENDCHAR
STARTCHAR C0018
ENCODING 18
SWIDTH 600 0
DWIDTH 8 0
BBX 6 9 1 0
BITMAP
FC
C4
C4
A4
94
94
8C
8C
FC
ENDCHAR
STARTCHAR C0019
ENCODING 19
SWIDTH 600 0
DWIDTH 8 0
BBX 6 9 1 0
BITMAP
FC
C4
C4
A4
94
94
8C
8C
FC
ENDCHAR
STARTCHAR C0020
ENCODING 20
SWIDTH 600 0
DWIDTH 8 0
BBX 6 9 1 0
BITMAP
FC
C4
C4
A4
94
94
8C
8C
FC
ENDCHAR
STARTCHAR C0021
ENCODING 21
SWIDTH 600 0
DWIDTH 8 0
BBX 6 9 1 0
BITMAP
FC
C4
C4
A4
94
94
8C
8C
FC
ENDCHAR
STARTCHAR C0022
ENCODING 22
SWIDTH 600 0
DWIDTH 8 0
BBX 6 9 1 0
BITMAP
FC
C4
C4
A4
94
94
8C
8C
FC
ENDCHAR
STARTCHAR C0023
ENCODING 23
SWIDTH 600 0
DWIDTH 8 0
BBX 6 9 1 0
BITMAP
FC
C4
C4
A4
94
94
8C
8C
FC
ENDCHAR
STARTCHAR C0024
ENCODING 24
SWIDTH 600 0
DWIDTH 8 0
BBX 6 9 1 0
BITMAP
FC
C4
C4
A4
94
94
8C
8C
FC
ENDCHAR
STARTCHAR C0025
ENCODING 25
SWIDTH 600 0
DWIDTH 8 0
BBX 6 9 1 0
BITMAP
FC
C4
C4
A4
94
94
8C
8C
FC
ENDCHAR
STARTCHAR C0026
ENCODING 26
SWIDTH 600 0
DWIDTH 8 0
BBX 6 9 1 0
BITMAP
FC
C4
C4
A4
94
94
8C
8C
FC
ENDCHAR
STARTCHAR C0027
ENCODING 27
SWIDTH 600 0
DWIDTH 8 0
BBX 6 9 1 0
BITMAP
FC
C4
C4
A4
94
94
8C
8C
FC
ENDCHAR
STARTCHAR C0028
ENCODING 28
SWIDTH 600 0
DWIDTH 8 0
BBX 6 9 1 0
BITMAP
FC
C4
C4
A4
94
94
8C
8C
FC
ENDCHAR
STARTCHAR C0029
ENCODING 29
SWIDTH 600 0
DWIDTH 8 0
BBX 6 9 1 0
BITMAP
FC
C4
C4
A4
94
94
8C
8C
FC
ENDCHAR
STARTCHAR C0030
ENCODING 30
SWIDTH 600 0
DWIDTH 8 0
BBX 6 9 1 0
BITMAP
FC
C4
C4
A4
94
94
8C
8C
FC
ENDCHAR
STARTCHAR C0031
ENCODING 31
SWIDTH 600 0
DWIDTH 8 0
BBX 6 9 1 0
BITMAP
FC
C4
C4
A4
94
94
8C
8C
FC
ENDCHAR
STARTCHAR C0032- 
ENCODING 32
SWIDTH 225 0
DWIDTH 3 0
BBX 1 1 0 -1
BITMAP
00
ENDCHAR
STARTCHAR C0033-!
ENCODING 33
SWIDTH 225 0
DWIDTH 3 0
BBX 1 9 1 0
BITMAP
80
80
80
80
80
80
00
00
80
ENDCHAR
STARTCHAR C0034-"
ENCODING 34
SWIDTH 300 0
DWIDTH 4 0
BBX 2 3 1 6
BITMAP
C0
C0
C0
ENDCHAR
STARTCHAR C0035-#
ENCODING 35
SWIDTH 675 0
DWIDTH 9 0
BBX 8 9 0 0
BITMAP
10
12
7F
22
24
24
FF
24
48
ENDCHAR
STARTCHAR C0036-$
ENCODING 36
SWIDTH 600 0
DWIDTH 8 0
BBX 8 11 0 -1
BITMAP
00
3C
4A
48
48
3C
0A
09
4A
3C
00
ENDCHAR
STARTCHAR C0037-%
ENCODING 37
SWIDTH 675 0
DWIDTH 9 0
BBX 8 9 1 0
BITMAP
E0
A2
A4
E8
10
26
49
49
86
ENDCHAR
STARTCHAR C0038-&
ENCODING 38
SWIDTH 675 0
DWIDTH 9 0
BBX 8 9 1 0
BITMAP
70
88
88
70
62
92
8C
84
7A
ENDCHAR
STARTCHAR C0039-'
ENCODING 39
SWIDTH 225 0
DWIDTH 3 0
BBX 1 3 1 6
BITMAP
80
80
80
ENDCHAR
STARTCHAR C0040-(
ENCODING 40
SWIDTH 225 0
DWIDTH 3 0
BBX 2 10 1 0
BITMAP
40
80
80
80
80
80
80
80
80
40
ENDCHAR
STARTCHAR C0041-)
ENCODING 41
SWIDTH 225 0
DWIDTH 3 0
BBX 3 10 0 0
BITMAP
80
40
40
20
20
20
20
40
40
80
ENDCHAR
STARTCHAR C0042-*
ENCODING 42
SWIDTH 300 0
DWIDTH 4 0
BBX 2 2 1 7
BITMAP
00
C0
ENDCHAR
STARTCHAR C0043-+
ENCODING 43
SWIDTH 375 0
DWIDTH 5 0
BBX 4 4 1 3
BITMAP
40
40
F0
40
ENDCHAR
STARTCHAR C0044-,
ENCODING 44
SWIDTH 225 0
DWIDTH 3 0
BBX 1 2 1 -1
BITMAP
80
80
ENDCHAR
STARTCHAR C0045--
ENCODING 45
SWIDTH 375 0
DWIDTH 5 0
BBX 4 1 1 3
BITMAP
F0
ENDCHAR
STARTCHAR C0046-.
ENCODING 46
SWIDTH 150 0
DWIDTH 2 0
BBX 1 1 1 0
BITMAP
80
ENDCHAR
STARTCHAR C0047-/
ENCODING 47
SWIDTH 600 0
DWIDTH 8 0
BBX 7 9 0 0
BITMAP
02
04
04
08
10
10
20
40
40
ENDCHAR
STARTCHAR C0048-0
ENCODING 48
SWIDTH 600 0
DWIDTH 8 0
BBX 6 7 1 0
BITMAP
78
84
84
84
84
84
78
ENDCHAR
STARTCHAR C0049-1
ENCODING 49
SWIDTH 450 0
DWIDTH 6 0
BBX 4 7 1 0
BITMAP
60
A0
20
20
20
20
F0
ENDCHAR
STARTCHAR C0050-2
ENCODING 50
SWIDTH 525 0
DWIDTH 7 0
BBX 5 7 1 0
BITMAP
70
88
08
30
40
80
F8
ENDCHAR
STARTCHAR C0051-3
ENCODING 51
SWIDTH 525 0
DWIDTH 7 0
BBX 6 9 0 -2
BITMAP
38
44
04
04
18
04
04
04
78
ENDCHAR
STARTCHAR C0052-4
ENCODING 52
SWIDTH 525 0
DWIDTH 7 0
BBX 7 9 0 -2
BITMAP
04
0C
14
24
24
44
FE
04
04
ENDCHAR
STARTCHAR C0053-5
ENCODING 53
SWIDTH 525 0
DWIDTH 7 0
BBX 7 9 0 -2
BITMAP
3C
40
40
78
44
02
02
44
38
ENDCHAR
STARTCHAR C0054-6
ENCODING 54
SWIDTH 600 0
DWIDTH 8 0
BBX 6 9 1 0
BITMAP
78
84
80
F8
84
84
84
84
78
ENDCHAR
STARTCHAR C0055-7
ENCODING 55
SWIDTH 525 0
DWIDTH 7 0
BBX 7 9 0 -2
BITMAP
FE
04
04
08
10
10
20
20
40
ENDCHAR
STARTCHAR C0056-8
ENCODING 56
SWIDTH 600 0
DWIDTH 8 0
BBX 6 9 1 0
BITMAP
78
84
84
88
78
84
84
84
78
ENDCHAR
STARTCHAR C0057-9
ENCODING 57
SWIDTH 600 0
DWIDTH 8 0
BBX 7 9 0 -2
BITMAP
3C
46
82
82
46
3A
02
44
38
ENDCHAR
STARTCHAR C0058-:
ENCODING 58
SWIDTH 150 0
DWIDTH 2 0
BBX 1 7 1 0
BITMAP
80
00
00
00
00
00
80
ENDCHAR
STARTCHAR C0059-;
ENCODING 59
SWIDTH 225 0
DWIDTH 3 0
BBX 1 8 1 -1
BITMAP
80
00
00
00
00
00
80
80
ENDCHAR
STARTCHAR C0060-<
ENCODING 60
SWIDTH 525 0
DWIDTH 7 0
BBX 6 7 0 0
BITMAP
04
18
20
C0
20
18
04
ENDCHAR
STARTCHAR C0061-=
ENCODING 61
SWIDTH 450 0
DWIDTH 6 0
BBX 4 3 1 2
BITMAP
F0
00
F0
ENDCHAR
STARTCHAR C0062->
ENCODING 62
SWIDTH 525 0
DWIDTH 7 0
BBX 5 7 1 0
BITMAP
80
40
30
08
30
40
80
ENDCHAR
STARTCHAR C0063-?
ENCODING 63
SWIDTH 450 0
DWIDTH 6 0
BBX 6 9 0 0
BITMAP
78
84
04
08
10
20
00
00
20
ENDCHAR
STARTCHAR C0064-@
ENCODING 64
SWIDTH 825 0
DWIDTH 11 0
BBX 9 10 1 -2
BITMAP
3E00
4100
9C80
8280
9E80
A280
A280
9F80
4000
3C00
ENDCHAR
STARTCHAR C0065-A
ENCODING 65
SWIDTH 675 0
DWIDTH 9 0
BBX 9 9 0 0
BITMAP
0800
1400
1400
1400
2200
3E00
4100
4100
8080
ENDCHAR
STARTCHAR C0066-B
ENCODING 66
SWIDTH 675 0
DWIDTH 9 0
BBX 7 9 1 0
BITMAP
FC
82
82
84
FC
82
82
82
FC
ENDCHAR
STARTCHAR C0067-C
ENCODING 67
SWIDTH 675 0
DWIDTH 9 0
BBX 8 9 1 0
BITMAP
3C
42
80
80
80
80
82
42
3C
ENDCHAR
STARTCHAR C0068-D
ENCODING 68
SWIDTH 675 0
DWIDTH 9 0
BBX 8 9 1 0
BITMAP
FC
82
82
81
81
81
82
86
FC
ENDCHAR
STARTCHAR C0069-E
ENCODING 69
SWIDTH 600 0
DWIDTH 8 0
BBX 6 9 1 0
BITMAP
FC
80
80
80
FC
80
80
80
FC
ENDCHAR
STARTCHAR C0070-F
ENCODING 70
SWIDTH 600 0
DWIDTH 8 0
BBX 6 9 1 0
BITMAP
FC
80
80
80
F8
80
80
80
80
ENDCHAR
STARTCHAR C0071-G
ENCODING 71
SWIDTH 675 0
DWIDTH 9 0
BBX 8 9 1 0
BITMAP
3C
42
80
80
87
81
81
43
3D
ENDCHAR
STARTCHAR C0072-H
ENCODING 72
SWIDTH 750 0
DWIDTH 10 0
BBX 7 9 1 0
BITMAP
80
82
82
82
FE
82
82
82
80
ENDCHAR
STARTCHAR C0073-I
ENCODING 73
SWIDTH 225 0
DWIDTH 3 0
BBX 1 9 1 0
BITMAP
80
80
80
80
80
80
80
80
80
ENDCHAR
STARTCHAR C0074-J
ENCODING 74
SWIDTH 450 0
DWIDTH 6 0
BBX 5 9 0 0
BITMAP
08
08
08
08
08
08
08
08
F0
ENDCHAR
STARTCHAR C0075-K
ENCODING 75
SWIDTH 600 0
DWIDTH 8 0
BBX 7 9 1 0
BITMAP
82
84
88
90
B0
C8
88
84
82
ENDCHAR
STARTCHAR C0076-L
ENCODING 76
SWIDTH 600 0
DWIDTH 8 0
BBX 6 9 1 0
BITMAP
80
80
80
80
80
80
80
80
FC
ENDCHAR
STARTCHAR C0077-M
ENCODING 77
SWIDTH 825 0
DWIDTH 11 0
BBX 9 9 1 0
BITMAP
8080
C180
A180
A280
9280
9480
8C80
8080
8080
ENDCHAR
STARTCHAR C0078-N
ENCODING 78
SWIDTH 750 0
DWIDTH 10 0
BBX 8 9 1 0
BITMAP
81
C1
A1
91
99
89
85
83
81
ENDCHAR
STARTCHAR C0079-O
ENCODING 79
SWIDTH 750 0
DWIDTH 10 0
BBX 8 9 1 0
BITMAP
3C
42
81
81
81
81
81
42
3C
ENDCHAR
STARTCHAR C0080-P
ENCODING 80
SWIDTH 600 0
DWIDTH 8 0
BBX 7 9 1 0
BITMAP
F8
84
82
82
84
FC
80
80
80
ENDCHAR
STARTCHAR C0081-Q
ENCODING 81
SWIDTH 750 0
DWIDTH 10 0
BBX 8 9 1 0
BITMAP
3C
42
81
81
81
81
85
42
3D
ENDCHAR
STARTCHAR C0082-R
ENCODING 82
SWIDTH 600 0
DWIDTH 8 0
BBX 7 9 1 0
BITMAP
FC
84
82
82
84
FC
88
84
82
ENDCHAR
STARTCHAR C0083-S
ENCODING 83
SWIDTH 600 0
DWIDTH 8 0
BBX 7 9 0 0
BITMAP
3C
42
40
40
3C
02
02
42
3C
ENDCHAR
STARTCHAR C0084-T
ENCODING 84
SWIDTH 600 0
DWIDTH 8 0
BBX 8 9 0 0
BITMAP
FF
10
10
10
10
10
10
10
00
ENDCHAR
STARTCHAR C0085-U
ENCODING 85
SWIDTH 750 0
DWIDTH 10 0
BBX 8 9 1 0
BITMAP
81
81
81
81
81
81
81
42
3C
ENDCHAR
STARTCHAR C0086-V
ENCODING 86
SWIDTH 675 0
DWIDTH 9 0
BBX 9 9 0 0
BITMAP
8100
4100
4100
2200
2200
2400
1400
1400
0800
ENDCHAR
STARTCHAR C0087-W
ENCODING 87
SWIDTH 1050 0
DWIDTH 14 0
BBX 13 9 0 0
BITMAP
8488
4508
4310
2310
2310
2520
14A0
14C0
0840
ENDCHAR
STARTCHAR C0088-X
ENCODING 88
SWIDTH 600 0
DWIDTH 8 0
BBX 8 9 0 0
BITMAP
81
42
24
18
08
18
24
42
41
ENDCHAR
STARTCHAR C0089-Y
ENCODING 89
SWIDTH 600 0
DWIDTH 8 0
BBX 8 9 0 0
BITMAP
41
42
22
24
18
08
08
08
08
ENDCHAR
STARTCHAR C0090-Z
ENCODING 90
SWIDTH 600 0
DWIDTH 8 0
BBX 8 9 0 0
BITMAP
FF
02
04
08
08
10
20
40
FF
ENDCHAR
STARTCHAR C0091-[
ENCODING 91
SWIDTH 225 0
DWIDTH 3 0
BBX 2 11 1 -1
BITMAP
C0
80
80
80
80
80
80
80
80
80
C0
ENDCHAR
STARTCHAR C0092-\
ENCODING 92
SWIDTH 525 0
DWIDTH 7 0
BBX 7 9 0 0
BITMAP
40
40
20
10
10
08
08
04
02
ENDCHAR
STARTCHAR C0093-]
ENCODING 93
SWIDTH 225 0
DWIDTH 3 0
BBX 1 11 1 -1
BITMAP
80
80
80
80
80
80
80
80
80
80
80
ENDCHAR
STARTCHAR C0094-^
ENCODING 94
SWIDTH 525 0
DWIDTH 7 0
BBX 5 5 1 4
BITMAP
20
50
50
88
88
ENDCHAR
STARTCHAR C0095-_
ENCODING 95
SWIDTH 525 0
DWIDTH 7 0
BBX 5 1 1 -1
BITMAP
F8
ENDCHAR
STARTCHAR C0096-`
ENCODING 96
SWIDTH 225 0
DWIDTH 3 0
BBX 1 2 1 8
BITMAP
80
80
ENDCHAR
STARTCHAR C0097-a
ENCODING 97
SWIDTH 525 0
DWIDTH 7 0
BBX 6 7 0 0
BITMAP
78
04
04
7C
84
84
7C
ENDCHAR
STARTCHAR C0098-b
ENCODING 98
SWIDTH 600 0
DWIDTH 8 0
BBX 7 10 1 0
BITMAP
80
80
80
B8
C4
84
82
84
84
F8
ENDCHAR
STARTCHAR C0099-c
ENCODING 99
SWIDTH 525 0
DWIDTH 7 0
BBX 7 7 0 0
BITMAP
3C
42
40
80
40
42
3C
ENDCHAR
STARTCHAR C0100-d
ENCODING 100
SWIDTH 600 0
DWIDTH 8 0
BBX 6 10 1 0
BITMAP
04
04
04
74
8C
84
84
84
84
7C
ENDCHAR
STARTCHAR C0101-e
ENCODING 101
SWIDTH 600 0
DWIDTH 8 0
BBX 7 7 0 0
BITMAP
3C
42
42
7E
40
42
3C
ENDCHAR
STARTCHAR C0102-f
ENCODING 102
SWIDTH 300 0
DWIDTH 4 0
BBX 5 10 0 0
BITMAP
38
40
40
F0
40
40
40
40
40
40
ENDCHAR
STARTCHAR C0103-g
ENCODING 103
SWIDTH 600 0
DWIDTH 8 0
BBX 6 10 1 -3
BITMAP
74
8C
84
84
84
8C
74
04
84
78
ENDCHAR
STARTCHAR C0104-h
ENCODING 104
SWIDTH 600 0
DWIDTH 8 0
BBX 6 10 1 0
BITMAP
80
80
80
B8
C8
84
84
84
84
84
ENDCHAR
STARTCHAR C0105-i
ENCODING 105
SWIDTH 225 0
DWIDTH 3 0
BBX 1 9 1 0
BITMAP
80
00
80
80
80
80
80
80
80
ENDCHAR
STARTCHAR C0106-j
ENCODING 106
SWIDTH 225 0
DWIDTH 3 0
BBX 4 11 -2 -2
BITMAP
10
00
10
10
10
10
10
10
10
10
60
ENDCHAR
STARTCHAR C0107-k
ENCODING 107
SWIDTH 525 0
DWIDTH 7 0
BBX 6 10 1 0
BITMAP
80
80
80
88
90
A0
E0
90
88
88
ENDCHAR
STARTCHAR C0108-l
ENCODING 108
SWIDTH 300 0
DWIDTH 4 0
BBX 3 10 1 0
BITMAP
80
80
80
80
80
80
80
80
80
C0
ENDCHAR
STARTCHAR C0109-m
ENCODING 109
SWIDTH 900 0
DWIDTH 12 0
BBX 10 7 1 0
BITMAP
BB80
CC40
8440
8440
8440
8440
8040
ENDCHAR
STARTCHAR C0110-n
ENCODING 110
SWIDTH 600 0
DWIDTH 8 0
BBX 6 7 1 0
BITMAP
B8
C4
84
84
84
84
84
ENDCHAR
STARTCHAR C0111-o
ENCODING 111
SWIDTH 600 0
DWIDTH 8 0
BBX 7 7 0 0
BITMAP
3C
42
42
82
42
42
3C
ENDCHAR
STARTCHAR C0112-p
ENCODING 112
SWIDTH 600 0
DWIDTH 8 0
BBX 7 10 1 -3
BITMAP
B8
C4
84
82
84
C4
B8
80
80
80
ENDCHAR
STARTCHAR C0113-q
ENCODING 113
SWIDTH 600 0
DWIDTH 8 0
BBX 6 10 1 -3
BITMAP
74
8C
84
84
84
8C
74
04
04
04
ENDCHAR
STARTCHAR C0114-r
ENCODING 114
SWIDTH 375 0
DWIDTH 5 0
BBX 3 7 1 0
BITMAP
A0
C0
80
80
80
80
80
ENDCHAR
STARTCHAR C0115-s
ENCODING 115
SWIDTH 450 0
DWIDTH 6 0
BBX 6 7 0 0
BITMAP
38
40
40
38
04
04
78
ENDCHAR
STARTCHAR C0116-t
ENCODING 116
SWIDTH 300 0
DWIDTH 4 0
BBX 4 9 0 0
BITMAP
40
40
F0
40
40
40
40
40
30
ENDCHAR
STARTCHAR C0117-u
ENCODING 117
SWIDTH 600 0
DWIDTH 8 0
BBX 6 7 1 0
BITMAP
84
84
84
84
84
8C
74
ENDCHAR
STARTCHAR C0118-v
ENCODING 118
SWIDTH 525 0
DWIDTH 7 0
BBX 7 7 0 0
BITMAP
82
44
44
28
28
28
10
ENDCHAR
STARTCHAR C0119-w
ENCODING 119
SWIDTH 825 0
DWIDTH 11 0
BBX 10 7 0 0
BITMAP
8A40
4C40
4480
2480
2A80
2B00
1300
ENDCHAR
STARTCHAR C0120-x
ENCODING 120
SWIDTH 525 0
DWIDTH 7 0
BBX 6 7 0 0
BITMAP
44
48
28
10
28
48
44
ENDCHAR
STARTCHAR C0121-y
ENCODING 121
SWIDTH 525 0
DWIDTH 7 0
BBX 7 10 0 -3
BITMAP
82
44
44
28
28
28
10
10
10
60
ENDCHAR
STARTCHAR C0122-z
ENCODING 122
SWIDTH 450 0
DWIDTH 6 0
BBX 6 7 0 0
BITMAP
FC
08
10
10
20
40
FC
ENDCHAR
STARTCHAR C0123-{
ENCODING 123
SWIDTH 225 0
DWIDTH 3 0
BBX 2 10 1 0
BITMAP
C0
80
80
80
80
80
80
80
80
C0
ENDCHAR
STARTCHAR C0124-|
ENCODING 124
SWIDTH 225 0
DWIDTH 3 0
BBX 1 12 1 -2
BITMAP
80
80
80
80
80
80
80
80
80
80
80
80
ENDCHAR
STARTCHAR C0125-}
ENCODING 125
SWIDTH 225 0
DWIDTH 3 0
BBX 2 10 1 0
BITMAP
80
80
80
80
80
80
80
80
80
80
ENDCHAR
STARTCHAR C0126-~
ENCODING 126
SWIDTH 525 0
DWIDTH 7 0
BBX 5 2 1 3
BITMAP
C8
B0
ENDCHAR
STARTCHAR C0127
ENCODING 127
SWIDTH 600 0
DWIDTH 8 0
BBX 6 9 1 0
BITMAP
FC
C4
C4
A4
94
94
8C
8C
FC
ENDCHAR
STARTCHAR C0128
ENCODING 128
SWIDTH 750 0
DWIDTH 10 0
BBX 10 9 0 0
BITMAP
0F00
1080
2000
7E00
2000
FC00
2000
1080
0F00
ENDCHAR
STARTCHAR C0129
ENCODING 129
SWIDTH 600 0
DWIDTH 8 0
BBX 6 9 1 0
BITMAP
FC
C4
C4
A4
94
94
8C
8C
FC
ENDCHAR
STARTCHAR C0130
ENCODING 130
SWIDTH 225 0
DWIDTH 3 0
BBX 1 3 1 -2
BITMAP
80
80
80
ENDCHAR
STARTCHAR C0131
ENCODING 131
SWIDTH 525 0
DWIDTH 7 0
BBX 6 11 0 -2
BITMAP
0C
10
10
3C
10
10
10
10
10
10
E0
ENDCHAR
STARTCHAR C0132
ENCODING 132
SWIDTH 300 0
DWIDTH 4 0
BBX 2 3 1 -2
BITMAP
80
C0
80
ENDCHAR
STARTCHAR C0133
ENCODING 133
SWIDTH 450 0
DWIDTH 6 0
BBX 4 1 1 0
BITMAP
90
ENDCHAR
STARTCHAR C0134
ENCODING 134
SWIDTH 375 0
DWIDTH 5 0
BBX 5 12 0 -2
BITMAP
20
20
20
20
20
20
F8
20
20
20
20
20
ENDCHAR
STARTCHAR C0135
ENCODING 135
SWIDTH 375 0
DWIDTH 5 0
BBX 4 12 1 -2
BITMAP
40
40
40
40
40
F0
40
F0
40
40
40
40
ENDCHAR
STARTCHAR C0136
ENCODING 136
SWIDTH 300 0
DWIDTH 4 0
BBX 3 2 1 8
BITMAP
C0
A0
ENDCHAR
STARTCHAR C0137
ENCODING 137
SWIDTH 1050 0
DWIDTH 14 0
BBX 12 9 1 0
BITMAP
E100
9200
9400
E800
1000
2670
2990
4990
8670
ENDCHAR
STARTCHAR C0138
ENCODING 138
SWIDTH 600 0
DWIDTH 8 0
BBX 7 13 0 0
BITMAP
14
18
00
00
3C
42
40
40
3C
02
02
42
3C
ENDCHAR
STARTCHAR C0139
ENCODING 139
SWIDTH 375 0
DWIDTH 5 0
BBX 3 5 1 1
BITMAP
20
40
80
40
20
ENDCHAR
STARTCHAR C0140
ENCODING 140
SWIDTH 1125 0
DWIDTH 15 0
BBX 13 9 1 0
BITMAP
3DF8
4300
8100
8100
81F8
8100
8100
4300
3DF8
ENDCHAR
STARTCHAR C0141
ENCODING 141
SWIDTH 600 0
DWIDTH 8 0
BBX 6 9 1 0
BITMAP
FC
C4
C4
A4
94
94
8C
8C
FC
ENDCHAR
STARTCHAR C0142
ENCODING 142
SWIDTH 600 0
DWIDTH 8 0
BBX 8 12 0 0
BITMAP
14
18
00
FF
02
04
08
08
10
20
40
FF
ENDCHAR
STARTCHAR C0143
ENCODING 143
SWIDTH 600 0
DWIDTH 8 0
BBX 6 9 1 0
BITMAP
FC
C4
C4
A4
94
94
8C
8C
FC
ENDCHAR
STARTCHAR C0144
ENCODING 144
SWIDTH 600 0
DWIDTH 8 0
BBX 6 9 1 0
BITMAP
FC
C4
C4
A4
94
94
8C
8C
FC
ENDCHAR
STARTCHAR C0145
ENCODING 145
SWIDTH 225 0
DWIDTH 3 0
BBX 1 3 1 6
BITMAP
80
80
80
ENDCHAR
STARTCHAR C0146
ENCODING 146
SWIDTH 150 0
DWIDTH 2 0
BBX 1 3 1 6
BITMAP
80
80
00
ENDCHAR
STARTCHAR C0147
ENCODING 147
SWIDTH 300 0
DWIDTH 4 0
BBX 3 3 1 6
BITMAP
A0
A0
A0
ENDCHAR
STARTCHAR C0148
ENCODING 148
SWIDTH 300 0
DWIDTH 4 0
BBX 2 3 1 6
BITMAP
C0
C0
40
ENDCHAR
STARTCHAR C0149
ENCODING 149
SWIDTH 375 0
DWIDTH 5 0
BBX 2 2 1 3
BITMAP
C0
C0
ENDCHAR
STARTCHAR C0150
ENCODING 150
SWIDTH 525 0
DWIDTH 7 0
BBX 6 1 1 3
BITMAP
FC
ENDCHAR
STARTCHAR C0151
ENCODING 151
SWIDTH 900 0
DWIDTH 12 0
BBX 10 1 1 3
BITMAP
FFC0
ENDCHAR
STARTCHAR C0152
ENCODING 152
SWIDTH 375 0
DWIDTH 5 0
BBX 4 2 1 8
BITMAP
D0
20
ENDCHAR
STARTCHAR C0153
ENCODING 153
SWIDTH 675 0
DWIDTH 9 0
BBX 7 4 1 5
BITMAP
FA
5A
56
50
ENDCHAR
STARTCHAR C0154
ENCODING 154
SWIDTH 450 0
DWIDTH 6 0
BBX 6 10 0 0
BITMAP
28
30
00
38
40
40
38
04
04
78
ENDCHAR
STARTCHAR C0155
ENCODING 155
SWIDTH 375 0
DWIDTH 5 0
BBX 3 5 1 1
BITMAP
80
40
20
40
80
ENDCHAR
STARTCHAR C0156
ENCODING 156
SWIDTH 975 0
DWIDTH 13 0
BBX 13 7 0 0
BITMAP
3CE0
4510
4208
83F8
4200
4508
3CF0
ENDCHAR
STARTCHAR C0157
ENCODING 157
SWIDTH 600 0
DWIDTH 8 0
BBX 6 9 1 0
BITMAP
FC
C4
C4
A4
94
94
8C
8C
FC
ENDCHAR
STARTCHAR C0158
ENCODING 158
SWIDTH 450 0
DWIDTH 6 0
BBX 6 10 0 0
BITMAP
28
30
00
FC
08
10
10
20
40
FC
ENDCHAR
STARTCHAR C0159
ENCODING 159
SWIDTH 600 0
DWIDTH 8 0
BBX 8 11 0 0
BITMAP
10
00
41
42
22
24
18
08
08
08
08
ENDCHAR
STARTCHAR C0160
ENCODING 160
SWIDTH 225 0
DWIDTH 3 0
BBX 1 1 0 -1
BITMAP
00
ENDCHAR
STARTCHAR C0161
ENCODING 161
SWIDTH 225 0
DWIDTH 3 0
BBX 1 9 1 0
BITMAP
80
00
00
80
80
80
80
80
80
ENDCHAR
STARTCHAR C0162
ENCODING 162
SWIDTH 525 0
DWIDTH 7 0
BBX 6 10 1 -1
BITMAP
00
20
78
A4
A0
A0
A0
A4
78
00
ENDCHAR
STARTCHAR C0163
ENCODING 163
SWIDTH 450 0
DWIDTH 6 0
BBX 5 9 1 0
BITMAP
70
88
80
80
F0
40
40
80
F8
ENDCHAR
STARTCHAR C0164
ENCODING 164
SWIDTH 525 0
DWIDTH 7 0
BBX 5 5 1 2
BITMAP
F8
88
88
88
F8
ENDCHAR
STARTCHAR C0165
ENCODING 165
SWIDTH 675 0
DWIDTH 9 0
BBX 8 9 0 0
BITMAP
41
42
22
14
36
08
3E
08
08
ENDCHAR
STARTCHAR C0166
ENCODING 166
SWIDTH 225 0
DWIDTH 3 0
BBX 1 12 1 -2
BITMAP
80
80
80
80
80
00
80
80
80
80
80
80
ENDCHAR
STARTCHAR C0167
ENCODING 167
SWIDTH 525 0
DWIDTH 7 0
BBX 5 10 1 -1
BITMAP
70
80
80
E0
98
88
70
08
88
70
ENDCHAR
STARTCHAR C0168
ENCODING 168
SWIDTH 300 0
DWIDTH 4 0
BBX 2 1 1 8
BITMAP
80
ENDCHAR
STARTCHAR C0169
ENCODING 169
SWIDTH 825 0
DWIDTH 11 0
BBX 9 9 1 0
BITMAP
3E00
4100
9C80
A280
C080
A280
9C80
4100
3E00
ENDCHAR
STARTCHAR C0170
ENCODING 170
SWIDTH 450 0
DWIDTH 6 0
BBX 4 5 1 4
BITMAP
E0
10
F0
90
F0
ENDCHAR
STARTCHAR C0171
ENCODING 171
SWIDTH 525 0
DWIDTH 7 0
BBX 6 5 1 1
BITMAP
24
58
A0
58
24
ENDCHAR
STARTCHAR C0172
ENCODING 172
SWIDTH 600 0
DWIDTH 8 0
BBX 6 3 1 2
BITMAP
FC
04
04
ENDCHAR
STARTCHAR C0173
ENCODING 173
SWIDTH 525 0
DWIDTH 7 0
BBX 6 1 1 3
BITMAP
FC
ENDCHAR
STARTCHAR C0174
ENCODING 174
SWIDTH 825 0
DWIDTH 11 0
BBX 9 9 1 0
BITMAP
3E00
4100
BC80
A280
BC80
A480
A280
4100
3E00
ENDCHAR
STARTCHAR C0175
ENCODING 175
SWIDTH 375 0
DWIDTH 5 0
BBX 3 1 1 9
BITMAP
E0
ENDCHAR
STARTCHAR C0176
ENCODING 176
SWIDTH 225 0
DWIDTH 3 0
BBX 2 2 1 7
BITMAP
C0
C0
ENDCHAR
STARTCHAR C0177
ENCODING 177
SWIDTH 450 0
DWIDTH 6 0
BBX 4 7 1 1
BITMAP
00
20
F0
20
00
00
F0
ENDCHAR
STARTCHAR C0178
ENCODING 178
SWIDTH 375 0
DWIDTH 5 0
BBX 5 6 0 5
BITMAP
70
08
10
20
40
F0
ENDCHAR
STARTCHAR C0179
ENCODING 179
SWIDTH 375 0
DWIDTH 5 0
BBX 5 6 0 5
BITMAP
70
08
30
08
08
70
ENDCHAR
STARTCHAR C0180
ENCODING 180
SWIDTH 225 0
DWIDTH 3 0
BBX 1 2 1 8
BITMAP
80
80
ENDCHAR
STARTCHAR C0181
ENCODING 181
SWIDTH 600 0
DWIDTH 8 0
BBX 6 10 1 -3
BITMAP
84
84
84
84
84
8C
F4
80
80
80
ENDCHAR
STARTCHAR C0182
ENCODING 182
SWIDTH 600 0
DWIDTH 8 0
BBX 7 10 0 -1
BITMAP
3E
4C
8C
8C
4C
3C
0C
0C
0C
08
ENDCHAR
STARTCHAR C0183
ENCODING 183
SWIDTH 150 0
DWIDTH 2 0
BBX 1 1 1 3
BITMAP
80
ENDCHAR
STARTCHAR C0184
ENCODING 184
SWIDTH 300 0
DWIDTH 4 0
BBX 3 3 0 -3
BITMAP
20
20
60
ENDCHAR
STARTCHAR C0185
ENCODING 185
SWIDTH 300 0
DWIDTH 4 0
BBX 3 6 0 5
BITMAP
40
40
40
40
40
60
ENDCHAR
STARTCHAR C0186
ENCODING 186
SWIDTH 450 0
DWIDTH 6 0
BBX 4 5 1 4
BITMAP
E0
90
90
90
E0
ENDCHAR
STARTCHAR C0187
ENCODING 187
SWIDTH 525 0
DWIDTH 7 0
BBX 6 5 1 1
BITMAP
90
48
24
48
90
ENDCHAR
STARTCHAR C0188
ENCODING 188
SWIDTH 750 0
DWIDTH 10 0
BBX 10 10 0 0
BITMAP
4000
4080
4100
4200
4480
6980
0A80
17C0
2080
4080
ENDCHAR
STARTCHAR C0189
ENCODING 189
SWIDTH 750 0
DWIDTH 10 0
BBX 10 10 0 0
BITMAP
4000
C100
4200
4400
4800
6BC0
1040
2080
4300
43C0
ENDCHAR
STARTCHAR C0190
ENCODING 190
SWIDTH 900 0
DWIDTH 12 0
BBX 12 10 0 0
BITMAP
7000
0840
3080
0900
0A20
7460
04A0
09F0
1020
2020
ENDCHAR
STARTCHAR C0191
ENCODING 191
SWIDTH 450 0
DWIDTH 6 0
BBX 6 10 0 -3
BITMAP
10
00
00
10
10
60
40
80
44
78
ENDCHAR
STARTCHAR C0192
ENCODING 192
SWIDTH 675 0
DWIDTH 9 0
BBX 9 12 0 0
BITMAP
0800
0800
0000
0800
1400
1400
1400
2200
3E00
4100
4100
8080
ENDCHAR
STARTCHAR C0193
ENCODING 193
SWIDTH 675 0
DWIDTH 9 0
BBX 9 12 0 0
BITMAP
0800
0800
0000
0800
1400
1400
1400
2200
3E00
4100
4100
8080
ENDCHAR
STARTCHAR C0194
ENCODING 194
SWIDTH 675 0
DWIDTH 9 0
BBX 9 12 0 0
BITMAP
1800
1400
0000
0800
1400
1400
1400
2200
3E00
4100
4100
8080
ENDCHAR
STARTCHAR C0195
ENCODING 195
SWIDTH 675 0
DWIDTH 9 0
BBX 9 12 0 0
BITMAP
1A00
0400
0000
0800
1400
1400
1400
2200
3E00
4100
4100
8080
ENDCHAR
STARTCHAR C0196
ENCODING 196
SWIDTH 675 0
DWIDTH 9 0
BBX 9 11 0 0
BITMAP
1000
0000
0800
1400
1400
1400
2200
3E00
4100
4100
8080
ENDCHAR
STARTCHAR C0197
ENCODING 197
SWIDTH 675 0
DWIDTH 9 0
BBX 9 13 0 0
BITMAP
0C00
1400
0C00
0000
0800
1400
1400
1400
2200
3E00
4100
4100
8080
ENDCHAR
STARTCHAR C0198
ENCODING 198
SWIDTH 900 0
DWIDTH 12 0
BBX 12 9 0 0
BITMAP
07F0
0600
0A00
1200
13E0
3E00
4200
4200
83F0
ENDCHAR
STARTCHAR C0199
ENCODING 199
SWIDTH 675 0
DWIDTH 9 0
BBX 8 12 1 -3
BITMAP
3C
42
80
80
80
80
82
42
3C
08
08
18
ENDCHAR
STARTCHAR C0200
ENCODING 200
SWIDTH 600 0
DWIDTH 8 0
BBX 6 12 1 0
BITMAP
10
10
00
FC
80
80
80
FC
80
80
80
FC
ENDCHAR
STARTCHAR C0201
ENCODING 201
SWIDTH 600 0
DWIDTH 8 0
BBX 6 12 1 0
BITMAP
10
10
00
FC
80
80
80
FC
80
80
80
FC
ENDCHAR
STARTCHAR C0202
ENCODING 202
SWIDTH 600 0
DWIDTH 8 0
BBX 6 12 1 0
BITMAP
30
28
00
FC
80
80
80
FC
80
80
80
FC
ENDCHAR
STARTCHAR C0203
ENCODING 203
SWIDTH 600 0
DWIDTH 8 0
BBX 6 11 1 0
BITMAP
20
00
FC
80
80
80
FC
80
80
80
FC
ENDCHAR
STARTCHAR C0204
ENCODING 204
SWIDTH 225 0
DWIDTH 3 0
BBX 1 12 1 0
BITMAP
80
80
00
80
80
80
80
80
80
80
80
80
ENDCHAR
STARTCHAR C0205
ENCODING 205
SWIDTH 225 0
DWIDTH 3 0
BBX 2 12 1 0
BITMAP
40
40
00
80
80
80
80
80
80
80
80
80
ENDCHAR
STARTCHAR C0206
ENCODING 206
SWIDTH 225 0
DWIDTH 3 0
BBX 3 12 0 0
BITMAP
C0
A0
00
40
40
40
40
40
40
40
40
40
ENDCHAR
STARTCHAR C0207
ENCODING 207
SWIDTH 225 0
DWIDTH 3 0
BBX 2 11 0 0
BITMAP
80
00
40
40
40
40
40
40
40
40
40
ENDCHAR
STARTCHAR C0208
ENCODING 208
SWIDTH 675 0
DWIDTH 9 0
BBX 9 9 0 0
BITMAP
7E00
4100
4100
4080
F080
4080
4100
4100
7E00
ENDCHAR
STARTCHAR C0209
ENCODING 209
SWIDTH 750 0
DWIDTH 10 0
BBX 8 12 1 0
BITMAP
34
08
00
81
C1
A1
91
99
89
85
83
81
ENDCHAR
STARTCHAR C0210
ENCODING 210
SWIDTH 750 0
DWIDTH 10 0
BBX 8 12 1 0
BITMAP
10
10
00
3C
42
81
81
81
81
81
42
3C
ENDCHAR
STARTCHAR C0211
ENCODING 211
SWIDTH 750 0
DWIDTH 10 0
BBX 8 12 1 0
BITMAP
08
08
00
3C
42
81
81
81
81
81
42
3C
ENDCHAR
STARTCHAR C0212
ENCODING 212
SWIDTH 750 0
DWIDTH 10 0
BBX 8 12 1 0
BITMAP
18
14
00
3C
42
81
81
81
81
81
42
3C
ENDCHAR
STARTCHAR C0213
ENCODING 213
SWIDTH 750 0
DWIDTH 10 0
BBX 8 12 1 0
BITMAP
34
08
00
3C
42
81
81
81
81
81
42
3C
ENDCHAR
STARTCHAR C0214
ENCODING 214
SWIDTH 750 0
DWIDTH 10 0
BBX 8 11 1 0
BITMAP
10
00
3C
42
81
81
81
81
81
42
3C
ENDCHAR
STARTCHAR C0215
ENCODING 215
SWIDTH 450 0
DWIDTH 6 0
BBX 4 4 1 2
BITMAP
90
60
60
90
ENDCHAR
STARTCHAR C0216
ENCODING 216
SWIDTH 750 0
DWIDTH 10 0
BBX 8 9 1 0
BITMAP
3E
46
85
89
91
91
A1
42
7C
ENDCHAR
STARTCHAR C0217
ENCODING 217
SWIDTH 750 0
DWIDTH 10 0
BBX 8 12 1 0
BITMAP
10
10
00
81
81
81
81
81
81
81
42
3C
ENDCHAR
STARTCHAR C0218
ENCODING 218
SWIDTH 750 0
DWIDTH 10 0
BBX 8 12 1 0
BITMAP
08
08
00
81
81
81
81
81
81
81
42
3C
ENDCHAR
STARTCHAR C0219
ENCODING 219
SWIDTH 750 0
DWIDTH 10 0
BBX 8 12 1 0
BITMAP
18
14
00
81
81
81
81
81
81
81
42
3C
ENDCHAR
STARTCHAR C0220
ENCODING 220
SWIDTH 750 0
DWIDTH 10 0
BBX 8 11 1 0
BITMAP
10
00
81
81
81
81
81
81
81
42
3C
ENDCHAR
STARTCHAR C0221
ENCODING 221
SWIDTH 600 0
DWIDTH 8 0
BBX 8 12 0 0
BITMAP
08
08
00
41
42
22
24
18
08
08
08
08
ENDCHAR
STARTCHAR C0222
ENCODING 222
SWIDTH 600 0
DWIDTH 8 0
BBX 6 9 1 0
BITMAP
80
80
F8
84
84
84
F8
80
80
ENDCHAR
STARTCHAR C0223
ENCODING 223
SWIDTH 525 0
DWIDTH 7 0
BBX 6 9 1 0
BITMAP
70
88
88
88
B0
88
84
88
B0
ENDCHAR
STARTCHAR C0224
ENCODING 224
SWIDTH 525 0
DWIDTH 7 0
BBX 6 10 0 0
BITMAP
10
10
00
78
04
04
7C
84
84
7C
ENDCHAR
STARTCHAR C0225
ENCODING 225
SWIDTH 525 0
DWIDTH 7 0
BBX 6 10 0 0
BITMAP
08
08
00
78
04
04
7C
84
84
7C
ENDCHAR
STARTCHAR C0226
ENCODING 226
SWIDTH 525 0
DWIDTH 7 0
BBX 6 10 0 0
BITMAP
30
28
00
78
04
04
7C
84
84
7C
ENDCHAR
STARTCHAR C0227
ENCODING 227
SWIDTH 525 0
DWIDTH 7 0
BBX 6 10 0 0
BITMAP
34
08
00
78
04
04
7C
84
84
7C
ENDCHAR
STARTCHAR C0228
ENCODING 228
SWIDTH 525 0
DWIDTH 7 0
BBX 6 9 0 0
BITMAP
20
00
78
04
04
7C
84
84
7C
ENDCHAR
STARTCHAR C0229
ENCODING 229
SWIDTH 525 0
DWIDTH 7 0
BBX 6 11 0 0
BITMAP
18
28
18
00
78
04
04
7C
84
84
7C
ENDCHAR
STARTCHAR C0230
ENCODING 230
SWIDTH 900 0
DWIDTH 12 0
BBX 12 7 0 0
BITMAP
39C0
0620
0410
7FF0
8400
8620
79C0
ENDCHAR
STARTCHAR C0231
ENCODING 231
SWIDTH 525 0
DWIDTH 7 0
BBX 7 10 0 -3
BITMAP
3C
42
40
80
40
42
3C
08
08
18
ENDCHAR
STARTCHAR C0232
ENCODING 232
SWIDTH 600 0
DWIDTH 8 0
BBX 7 10 0 0
BITMAP
10
10
00
3C
42
42
7E
40
42
3C
ENDCHAR
STARTCHAR C0233
ENCODING 233
SWIDTH 600 0
DWIDTH 8 0
BBX 7 10 0 0
BITMAP
08
08
00
3C
42
42
7E
40
42
3C
ENDCHAR
STARTCHAR C0234
ENCODING 234
SWIDTH 600 0
DWIDTH 8 0
BBX 7 10 0 0
BITMAP
18
14
00
3C
42
42
7E
40
42
3C
ENDCHAR
STARTCHAR C0235
ENCODING 235
SWIDTH 600 0
DWIDTH 8 0
BBX 7 9 0 0
BITMAP
10
00
3C
42
42
7E
40
42
3C
ENDCHAR
STARTCHAR C0236
ENCODING 236
SWIDTH 225 0
DWIDTH 3 0
BBX 1 10 1 0
BITMAP
80
80
00
80
80
80
80
80
80
80
ENDCHAR
STARTCHAR C0237
ENCODING 237
SWIDTH 225 0
DWIDTH 3 0
BBX 2 10 1 0
BITMAP
40
40
00
80
80
80
80
80
80
80
ENDCHAR
STARTCHAR C0238
ENCODING 238
SWIDTH 225 0
DWIDTH 3 0
BBX 3 10 0 0
BITMAP
C0
A0
00
40
40
40
40
40
40
40
ENDCHAR
STARTCHAR C0239
ENCODING 239
SWIDTH 225 0
DWIDTH 3 0
BBX 2 9 0 0
BITMAP
80
00
40
40
40
40
40
40
40
ENDCHAR
STARTCHAR C0240
ENCODING 240
SWIDTH 600 0
DWIDTH 8 0
BBX 6 10 1 0
BITMAP
20
18
08
7C
84
84
84
84
84
78
ENDCHAR
STARTCHAR C0241
ENCODING 241
SWIDTH 600 0
DWIDTH 8 0
BBX 6 10 1 0
BITMAP
68
10
00
B8
C4
84
84
84
84
84
ENDCHAR
STARTCHAR C0242
ENCODING 242
SWIDTH 600 0
DWIDTH 8 0
BBX 7 10 0 0
BITMAP
10
10
00
3C
42
42
82
42
42
3C
ENDCHAR
STARTCHAR C0243
ENCODING 243
SWIDTH 600 0
DWIDTH 8 0
BBX 7 10 0 0
BITMAP
08
08
00
3C
42
42
82
42
42
3C
ENDCHAR
STARTCHAR C0244
ENCODING 244
SWIDTH 600 0
DWIDTH 8 0
BBX 7 10 0 0
BITMAP
18
14
00
3C
42
42
82
42
42
3C
ENDCHAR
STARTCHAR C0245
ENCODING 245
SWIDTH 600 0
DWIDTH 8 0
BBX 7 10 0 0
BITMAP
34
08
00
3C
42
42
82
42
42
3C
ENDCHAR
STARTCHAR C0246
ENCODING 246
SWIDTH 600 0
DWIDTH 8 0
BBX 7 9 0 0
BITMAP
10
00
3C
42
42
82
42
42
3C
ENDCHAR
STARTCHAR C0247
ENCODING 247
SWIDTH 525 0
DWIDTH 7 0
BBX 5 5 1 1
BITMAP
20
00
F8
00
20
ENDCHAR
STARTCHAR C0248
ENCODING 248
SWIDTH 600 0
DWIDTH 8 0
BBX 7 7 0 0
BITMAP
3C
46
4A
92
52
62
7C
ENDCHAR
STARTCHAR C0249
ENCODING 249
SWIDTH 600 0
DWIDTH 8 0
BBX 6 10 1 0
BITMAP
20
20
00
84
84
84
84
84
8C
74
ENDCHAR
STARTCHAR C0250
ENCODING 250
SWIDTH 600 0
DWIDTH 8 0
BBX 6 10 1 0
BITMAP
10
10
00
84
84
84
84
84
8C
74
ENDCHAR
STARTCHAR C0251
ENCODING 251
SWIDTH 600 0
DWIDTH 8 0
BBX 6 10 1 0
BITMAP
30
28
00
84
84
84
84
84
8C
74
ENDCHAR
STARTCHAR C0252
ENCODING 252
SWIDTH 600 0
DWIDTH 8 0
BBX 6 9 1 0
BITMAP
20
00
84
84
84
84
84
8C
74
ENDCHAR
STARTCHAR C0253
ENCODING 253
SWIDTH 525 0
DWIDTH 7 0
BBX 7 13 0 -3
BITMAP
08
08
00
82
44
44
28
28
28
10
10
10
60
ENDCHAR
STARTCHAR C0254
ENCODING 254
SWIDTH 600 0
DWIDTH 8 0
BBX 6 12 1 -3
BITMAP
80
80
B8
C4
84
84
84
84
F8
80
80
80
ENDCHAR
STARTCHAR C0255
ENCODING 255
SWIDTH 525 0
DWIDTH 7 0
BBX 7 12 0 -3
BITMAP
20
00
82
44
44
28
28
28
10
10
10
60
ENDCHAR
ENDFONT

