STARTFONT 2.1
COMMENT 
COMMENT This file has been produced by ttf2bdf written by Subhabrata Biswas
COMMENT 
COMMENT For comments, questions, bug reports, send a mail to
COMMENT                                           subhabrata.biswas@usa.net
COMMENT 
FONT -*-Raleway-Bold-R-Normal--16-120-96-96-c-9--fontspecific
SIZE 12 96 96
FONTBOUNDINGBOX 25 22 -4 -4
STARTPROPERTIES 15
FOUNDRY "Misc"
FAMILY_NAME "Raleway"
WEIGHT_NAME "Bold"
SLANT "R"
SETWIDTH_NAME "Normal"
PIXEL_SIZE 11
POINT_SIZE 120
RESOLUTION_X 96
RESOLUTION_Y 96
SPACING "C"
CHARSET_ENCODING "fontspecific"
FONT_ASCENT 18
FONT_DESCENT 4
DEFAULT_CHAR 1
COPYRIGHT "You may wish to put your copyright here"
ENDPROPERTIES
CHARS 255
STARTCHAR C0001
ENCODING 1
SWIDTH 625 0
DWIDTH 10 0
BBX 11 12 0 -1
BITMAP
3E00
73C0
5040
4840
4C40
6440
6240
6240
6140
6080
7FC0
4000
ENDCHAR
STARTCHAR C0002
ENCODING 2
SWIDTH 625 0
DWIDTH 10 0
BBX 11 12 0 -1
BITMAP
3E00
73C0
5040
4840
4C40
6440
6240
6240
6140
6080
7FC0
4000
ENDCHAR
STARTCHAR C0003
ENCODING 3
SWIDTH 625 0
DWIDTH 10 0
BBX 11 12 0 -1
BITMAP
3E00
73C0
5040
4840
4C40
6440
6240
6240
6140
6080
7FC0
4000
ENDCHAR
STARTCHAR C0004
ENCODING 4
SWIDTH 625 0
DWIDTH 10 0
BBX 11 12 0 -1
BITMAP
3E00
73C0
5040
4840
4C40
6440
6240
6240
6140
6080
7FC0
4000
ENDCHAR
STARTCHAR C0005
ENCODING 5
SWIDTH 625 0
DWIDTH 10 0
BBX 11 12 0 -1
BITMAP
3E00
73C0
5040
4840
4C40
6440
6240
6240
6140
6080
7FC0
4000
ENDCHAR
STARTCHAR C0006
ENCODING 6
SWIDTH 625 0
DWIDTH 10 0
BBX 11 12 0 -1
BITMAP
3E00
73C0
5040
4840
4C40
6440
6240
6240
6140
6080
7FC0
4000
ENDCHAR
STARTCHAR C0007
ENCODING 7
SWIDTH 625 0
DWIDTH 10 0
BBX 11 12 0 -1
BITMAP
3E00
73C0
5040
4840
4C40
6440
6240
6240
6140
6080
7FC0
4000
ENDCHAR
STARTCHAR C0008
ENCODING 8
SWIDTH 625 0
DWIDTH 10 0
BBX 11 12 0 -1
BITMAP
3E00
73C0
5040
4840
4C40
6440
6240
6240
6140
6080
7FC0
4000
ENDCHAR
STARTCHAR C0009
ENCODING 9
SWIDTH 625 0
DWIDTH 10 0
BBX 11 12 0 -1
BITMAP
3E00
73C0
5040
4840
4C40
6440
6240
6240
6140
6080
7FC0
4000
ENDCHAR
STARTCHAR C0010
ENCODING 10
SWIDTH 625 0
DWIDTH 10 0
BBX 11 12 0 -1
BITMAP
3E00
73C0
5040
4840
4C40
6440
6240
6240
6140
6080
7FC0
4000
ENDCHAR
STARTCHAR C0011
ENCODING 11
SWIDTH 625 0
DWIDTH 10 0
BBX 11 12 0 -1
BITMAP
3E00
73C0
5040
4840
4C40
6440
6240
6240
6140
6080
7FC0
4000
ENDCHAR
STARTCHAR C0012
ENCODING 12
SWIDTH 625 0
DWIDTH 10 0
BBX 11 12 0 -1
BITMAP
3E00
73C0
5040
4840
4C40
6440
6240
6240
6140
6080
7FC0
4000
ENDCHAR
STARTCHAR C0013
ENCODING 13
SWIDTH 0 0
DWIDTH 0 0
BBX 1 1 0 -1
BITMAP
00
ENDCHAR
STARTCHAR C0014
ENCODING 14
SWIDTH 625 0
DWIDTH 10 0
BBX 11 12 0 -1
BITMAP
3E00
73C0
5040
4840
4C40
6440
6240
6240
6140
6080
7FC0
4000
ENDCHAR
STARTCHAR C0015
ENCODING 15
SWIDTH 625 0
DWIDTH 10 0
BBX 11 12 0 -1
BITMAP
3E00
73C0
5040
4840
4C40
6440
6240
6240
6140
6080
7FC0
4000
ENDCHAR
STARTCHAR C0016
ENCODING 16
SWIDTH 625 0
DWIDTH 10 0
BBX 11 12 0 -1
BITMAP
3E00
73C0
5040
4840
4C40
6440
6240
6240
6140
6080
7FC0
4000
ENDCHAR
STARTCHAR C0017
ENCODING 17
SWIDTH 625 0
DWIDTH 10 0
BBX 11 12 0 -1
BITMAP
3E00
73C0
5040
4840
4C40
6440
6240
6240
6140
6080
7FC0
4000
ENDCHAR
STARTCHAR C0018
ENCODING 18
SWIDTH 625 0
DWIDTH 10 0
BBX 11 12 0 -1
BITMAP
3E00
73C0
5040
4840
4C40
6440
6240
6240
6140
6080
7FC0
4000
ENDCHAR
STARTCHAR C0019
ENCODING 19
SWIDTH 625 0
DWIDTH 10 0
BBX 11 12 0 -1
BITMAP
3E00
73C0
5040
4840
4C40
6440
6240
6240
6140
6080
7FC0
4000
ENDCHAR
STARTCHAR C0020
ENCODING 20
SWIDTH 625 0
DWIDTH 10 0
BBX 11 12 0 -1
BITMAP
3E00
73C0
5040
4840
4C40
6440
6240
6240
6140
6080
7FC0
4000
ENDCHAR
STARTCHAR C0021
ENCODING 21
SWIDTH 625 0
DWIDTH 10 0
BBX 11 12 0 -1
BITMAP
3E00
73C0
5040
4840
4C40
6440
6240
6240
6140
6080
7FC0
4000
ENDCHAR
STARTCHAR C0022
ENCODING 22
SWIDTH 625 0
DWIDTH 10 0
BBX 11 12 0 -1
BITMAP
3E00
73C0
5040
4840
4C40
6440
6240
6240
6140
6080
7FC0
4000
ENDCHAR
STARTCHAR C0023
ENCODING 23
SWIDTH 625 0
DWIDTH 10 0
BBX 11 12 0 -1
BITMAP
3E00
73C0
5040
4840
4C40
6440
6240
6240
6140
6080
7FC0
4000
ENDCHAR
STARTCHAR C0024
ENCODING 24
SWIDTH 625 0
DWIDTH 10 0
BBX 11 12 0 -1
BITMAP
3E00
73C0
5040
4840
4C40
6440
6240
6240
6140
6080
7FC0
4000
ENDCHAR
STARTCHAR C0025
ENCODING 25
SWIDTH 625 0
DWIDTH 10 0
BBX 11 12 0 -1
BITMAP
3E00
73C0
5040
4840
4C40
6440
6240
6240
6140
6080
7FC0
4000
ENDCHAR
STARTCHAR C0026
ENCODING 26
SWIDTH 625 0
DWIDTH 10 0
BBX 11 12 0 -1
BITMAP
3E00
73C0
5040
4840
4C40
6440
6240
6240
6140
6080
7FC0
4000
ENDCHAR
STARTCHAR C0027
ENCODING 27
SWIDTH 625 0
DWIDTH 10 0
BBX 11 12 0 -1
BITMAP
3E00
73C0
5040
4840
4C40
6440
6240
6240
6140
6080
7FC0
4000
ENDCHAR
STARTCHAR C0028
ENCODING 28
SWIDTH 625 0
DWIDTH 10 0
BBX 11 12 0 -1
BITMAP
3E00
73C0
5040
4840
4C40
6440
6240
6240
6140
6080
7FC0
4000
ENDCHAR
STARTCHAR C0029
ENCODING 29
SWIDTH 625 0
DWIDTH 10 0
BBX 11 12 0 -1
BITMAP
3E00
73C0
5040
4840
4C40
6440
6240
6240
6140
6080
7FC0
4000
ENDCHAR
STARTCHAR C0030
ENCODING 30
SWIDTH 625 0
DWIDTH 10 0
BBX 11 12 0 -1
BITMAP
3E00
73C0
5040
4840
4C40
6440
6240
6240
6140
6080
7FC0
4000
ENDCHAR
STARTCHAR C0031
ENCODING 31
SWIDTH 625 0
DWIDTH 10 0
BBX 11 12 0 -1
BITMAP
3E00
73C0
5040
4840
4C40
6440
6240
6240
6140
6080
7FC0
4000
ENDCHAR
STARTCHAR C0032- 
ENCODING 32
SWIDTH 250 0
DWIDTH 4 0
BBX 1 1 0 -1
BITMAP
00
ENDCHAR
STARTCHAR C0033-!
ENCODING 33
SWIDTH 312 0
DWIDTH 5 0
BBX 3 12 1 0
BITMAP
E0
E0
E0
E0
E0
E0
E0
E0
00
00
E0
E0
ENDCHAR
STARTCHAR C0034-"
ENCODING 34
SWIDTH 375 0
DWIDTH 6 0
BBX 4 4 1 8
BITMAP
F0
F0
F0
F0
ENDCHAR
STARTCHAR C0035-#
ENCODING 35
SWIDTH 750 0
DWIDTH 12 0
BBX 10 12 1 0
BITMAP
1980
1900
1900
FFC0
FFC0
3200
3200
FF80
FF80
6600
6400
4C00
ENDCHAR
STARTCHAR C0036-$
ENCODING 36
SWIDTH 625 0
DWIDTH 10 0
BBX 9 16 1 -2
BITMAP
0800
0800
3E00
7F00
EA00
C800
E800
7C00
3F00
0F00
0B80
CB00
FF00
7E00
0800
0800
ENDCHAR
STARTCHAR C0037-%
ENCODING 37
SWIDTH 812 0
DWIDTH 13 0
BBX 11 12 1 0
BITMAP
7040
98C0
9980
9900
7200
0400
0C00
19C0
1360
2260
6360
41C0
ENDCHAR
STARTCHAR C0038-&
ENCODING 38
SWIDTH 687 0
DWIDTH 11 0
BBX 10 12 1 0
BITMAP
3800
7C00
C600
EC00
7C00
7800
F980
CD80
CF80
C700
FF80
7DC0
ENDCHAR
STARTCHAR C0039-'
ENCODING 39
SWIDTH 250 0
DWIDTH 4 0
BBX 2 4 1 8
BITMAP
C0
C0
C0
C0
ENDCHAR
STARTCHAR C0040-(
ENCODING 40
SWIDTH 312 0
DWIDTH 5 0
BBX 4 13 1 -1
BITMAP
20
60
60
C0
C0
C0
C0
C0
C0
C0
60
60
20
ENDCHAR
STARTCHAR C0041-)
ENCODING 41
SWIDTH 312 0
DWIDTH 5 0
BBX 4 13 0 -1
BITMAP
40
60
60
30
30
30
30
30
30
30
60
60
40
ENDCHAR
STARTCHAR C0042-*
ENCODING 42
SWIDTH 375 0
DWIDTH 6 0
BBX 4 4 1 8
BITMAP
40
F0
60
A0
ENDCHAR
STARTCHAR C0043-+
ENCODING 43
SWIDTH 437 0
DWIDTH 7 0
BBX 5 6 1 3
BITMAP
60
60
F8
F8
60
60
ENDCHAR
STARTCHAR C0044-,
ENCODING 44
SWIDTH 250 0
DWIDTH 4 0
BBX 2 4 1 -2
BITMAP
C0
C0
40
80
ENDCHAR
STARTCHAR C0045--
ENCODING 45
SWIDTH 437 0
DWIDTH 7 0
BBX 5 2 1 3
BITMAP
F8
F8
ENDCHAR
STARTCHAR C0046-.
ENCODING 46
SWIDTH 250 0
DWIDTH 4 0
BBX 2 2 1 0
BITMAP
C0
C0
ENDCHAR
STARTCHAR C0047-/
ENCODING 47
SWIDTH 687 0
DWIDTH 11 0
BBX 11 12 0 0
BITMAP
00C0
01C0
0180
0300
0700
0600
0C00
1C00
1800
3000
7000
6000
ENDCHAR
STARTCHAR C0048-0
ENCODING 48
SWIDTH 625 0
DWIDTH 10 0
BBX 8 9 1 0
BITMAP
3C
7E
E7
C3
C3
C3
E7
7E
3C
ENDCHAR
STARTCHAR C0049-1
ENCODING 49
SWIDTH 500 0
DWIDTH 8 0
BBX 6 9 1 0
BITMAP
30
70
F0
B0
30
30
30
FC
FC
ENDCHAR
STARTCHAR C0050-2
ENCODING 50
SWIDTH 562 0
DWIDTH 9 0
BBX 7 9 1 0
BITMAP
7C
FE
46
06
1C
78
E0
FE
FE
ENDCHAR
STARTCHAR C0051-3
ENCODING 51
SWIDTH 562 0
DWIDTH 9 0
BBX 8 11 0 -2
BITMAP
3E
7F
43
03
1E
1F
03
03
43
FF
3E
ENDCHAR
STARTCHAR C0052-4
ENCODING 52
SWIDTH 562 0
DWIDTH 9 0
BBX 9 11 0 -2
BITMAP
0600
0600
0E00
1E00
3600
7600
6600
FF80
FF80
0600
0600
ENDCHAR
STARTCHAR C0053-5
ENCODING 53
SWIDTH 562 0
DWIDTH 9 0
BBX 8 11 0 -2
BITMAP
3F
3F
30
60
7E
7F
63
03
43
7F
3C
ENDCHAR
STARTCHAR C0054-6
ENCODING 54
SWIDTH 625 0
DWIDTH 10 0
BBX 8 11 1 0
BITMAP
3C
7E
E2
C0
FC
FE
C3
C3
C3
7E
3C
ENDCHAR
STARTCHAR C0055-7
ENCODING 55
SWIDTH 562 0
DWIDTH 9 0
BBX 9 11 0 -2
BITMAP
FF80
FF00
0700
0600
0E00
0C00
1C00
1800
3800
3000
7000
ENDCHAR
STARTCHAR C0056-8
ENCODING 56
SWIDTH 625 0
DWIDTH 10 0
BBX 8 11 1 0
BITMAP
3C
FE
C7
C6
7E
FE
C3
C3
C7
FE
3C
ENDCHAR
STARTCHAR C0057-9
ENCODING 57
SWIDTH 562 0
DWIDTH 9 0
BBX 8 11 1 -2
BITMAP
7C
FE
C6
C3
C7
FF
7B
03
46
FE
78
ENDCHAR
STARTCHAR C0058-:
ENCODING 58
SWIDTH 250 0
DWIDTH 4 0
BBX 2 9 1 0
BITMAP
C0
C0
00
00
00
00
00
C0
C0
ENDCHAR
STARTCHAR C0059-;
ENCODING 59
SWIDTH 250 0
DWIDTH 4 0
BBX 2 11 1 -2
BITMAP
C0
C0
00
00
00
00
00
C0
C0
40
C0
ENDCHAR
STARTCHAR C0060-<
ENCODING 60
SWIDTH 500 0
DWIDTH 8 0
BBX 6 9 1 0
BITMAP
04
0C
3C
F0
E0
F0
3C
0C
04
ENDCHAR
STARTCHAR C0061-=
ENCODING 61
SWIDTH 437 0
DWIDTH 7 0
BBX 5 3 1 3
BITMAP
F8
00
F8
ENDCHAR
STARTCHAR C0062->
ENCODING 62
SWIDTH 500 0
DWIDTH 8 0
BBX 7 9 1 0
BITMAP
80
C0
F0
3C
0E
3C
F0
E0
80
ENDCHAR
STARTCHAR C0063-?
ENCODING 63
SWIDTH 500 0
DWIDTH 8 0
BBX 6 12 1 0
BITMAP
78
FC
8C
0C
0C
38
70
60
00
00
60
60
ENDCHAR
STARTCHAR C0064-@
ENCODING 64
SWIDTH 875 0
DWIDTH 14 0
BBX 12 13 1 -3
BITMAP
1F00
20C0
4F60
9120
81A0
8F90
9190
9190
9190
93A0
4EE0
2000
1F00
ENDCHAR
STARTCHAR C0065-A
ENCODING 65
SWIDTH 687 0
DWIDTH 11 0
BBX 11 12 0 0
BITMAP
0E00
0E00
1B00
1B00
1B00
3180
3180
3F80
7FC0
60C0
60C0
E0E0
ENDCHAR
STARTCHAR C0066-B
ENCODING 66
SWIDTH 687 0
DWIDTH 11 0
BBX 9 12 1 0
BITMAP
FF00
FF00
C380
C180
C380
FF00
FF00
C180
C180
C180
FF80
FF00
ENDCHAR
STARTCHAR C0067-C
ENCODING 67
SWIDTH 687 0
DWIDTH 11 0
BBX 11 12 0 0
BITMAP
0F00
3FC0
30C0
6040
6000
6000
6000
6000
6040
30C0
3FC0
0F00
ENDCHAR
STARTCHAR C0068-D
ENCODING 68
SWIDTH 687 0
DWIDTH 11 0
BBX 10 12 1 0
BITMAP
FE00
FF00
C380
C180
C0C0
C0C0
C0C0
C1C0
C1C0
C380
FF00
FE00
ENDCHAR
STARTCHAR C0069-E
ENCODING 69
SWIDTH 625 0
DWIDTH 10 0
BBX 8 12 1 0
BITMAP
FF
FF
C0
C0
C0
FE
FE
C0
C0
C0
FF
FF
ENDCHAR
STARTCHAR C0070-F
ENCODING 70
SWIDTH 562 0
DWIDTH 9 0
BBX 8 12 1 0
BITMAP
FF
FF
C0
C0
C0
FE
FE
C0
C0
C0
C0
C0
ENDCHAR
STARTCHAR C0071-G
ENCODING 71
SWIDTH 750 0
DWIDTH 12 0
BBX 10 12 1 0
BITMAP
1E00
7F80
6180
C000
C000
C000
C3C0
C3C0
C0C0
61C0
7FC0
1EC0
ENDCHAR
STARTCHAR C0072-H
ENCODING 72
SWIDTH 750 0
DWIDTH 12 0
BBX 10 12 1 0
BITMAP
C0C0
C0C0
C0C0
C0C0
C0C0
FFC0
FFC0
C0C0
C0C0
C0C0
C0C0
C0C0
ENDCHAR
STARTCHAR C0073-I
ENCODING 73
SWIDTH 312 0
DWIDTH 5 0
BBX 2 12 1 0
BITMAP
C0
C0
C0
C0
C0
C0
C0
C0
C0
C0
C0
C0
ENDCHAR
STARTCHAR C0074-J
ENCODING 74
SWIDTH 500 0
DWIDTH 8 0
BBX 7 12 0 0
BITMAP
06
06
06
06
06
06
06
06
0E
0C
FC
F8
ENDCHAR
STARTCHAR C0075-K
ENCODING 75
SWIDTH 687 0
DWIDTH 11 0
BBX 10 12 1 0
BITMAP
C180
C300
C700
CE00
DC00
D800
FC00
EE00
C600
C300
C380
C1C0
ENDCHAR
STARTCHAR C0076-L
ENCODING 76
SWIDTH 562 0
DWIDTH 9 0
BBX 8 12 1 0
BITMAP
C0
C0
C0
C0
C0
C0
C0
C0
C0
C0
FF
FF
ENDCHAR
STARTCHAR C0077-M
ENCODING 77
SWIDTH 875 0
DWIDTH 14 0
BBX 12 12 1 0
BITMAP
E070
E070
F0F0
F0F0
D9F0
D9F0
CF70
CF70
C670
C670
C070
C070
ENDCHAR
STARTCHAR C0078-N
ENCODING 78
SWIDTH 750 0
DWIDTH 12 0
BBX 10 12 1 0
BITMAP
C0C0
E0C0
F0C0
F8C0
D8C0
DCC0
CEC0
C7C0
C3C0
C3C0
C1C0
C0C0
ENDCHAR
STARTCHAR C0079-O
ENCODING 79
SWIDTH 750 0
DWIDTH 12 0
BBX 12 12 0 0
BITMAP
0F00
3FC0
30E0
6060
6060
6070
6070
6060
6060
30E0
3FC0
0F00
ENDCHAR
STARTCHAR C0080-P
ENCODING 80
SWIDTH 625 0
DWIDTH 10 0
BBX 9 12 1 0
BITMAP
FE00
FF00
C300
C380
C380
C300
FF00
FE00
C000
C000
C000
C000
ENDCHAR
STARTCHAR C0081-Q
ENCODING 81
SWIDTH 750 0
DWIDTH 12 0
BBX 12 12 0 0
BITMAP
0F00
3FC0
30E0
6060
6060
6070
6070
6060
63E0
31E0
3FC0
0F60
ENDCHAR
STARTCHAR C0082-R
ENCODING 82
SWIDTH 687 0
DWIDTH 11 0
BBX 9 12 1 0
BITMAP
FE00
FF00
C380
C180
C180
C380
FF00
FE00
C600
C700
C380
C180
ENDCHAR
STARTCHAR C0083-S
ENCODING 83
SWIDTH 625 0
DWIDTH 10 0
BBX 9 12 0 0
BITMAP
1E00
7F80
6100
6000
7000
7E00
1F80
0380
0180
6180
FF80
3F00
ENDCHAR
STARTCHAR C0084-T
ENCODING 84
SWIDTH 625 0
DWIDTH 10 0
BBX 10 12 0 0
BITMAP
FFC0
FFC0
0C00
0C00
0C00
0C00
0C00
0C00
0C00
0C00
0C00
0C00
ENDCHAR
STARTCHAR C0085-U
ENCODING 85
SWIDTH 750 0
DWIDTH 12 0
BBX 10 12 1 0
BITMAP
C0C0
C0C0
C0C0
C0C0
C0C0
C0C0
C0C0
C0C0
E1C0
6180
7F80
1E00
ENDCHAR
STARTCHAR C0086-V
ENCODING 86
SWIDTH 687 0
DWIDTH 11 0
BBX 11 12 0 0
BITMAP
E0E0
60C0
60C0
71C0
3180
3180
3B00
1B00
1B00
1E00
0E00
0E00
ENDCHAR
STARTCHAR C0087-W
ENCODING 87
SWIDTH 1062 0
DWIDTH 17 0
BBX 17 12 0 0
BITMAP
E63380
636300
636300
736700
31C600
31C600
39CC00
1B6C00
1B6C00
0E7800
0E3800
0E3800
ENDCHAR
STARTCHAR C0088-X
ENCODING 88
SWIDTH 625 0
DWIDTH 10 0
BBX 10 12 0 0
BITMAP
E0C0
6180
3380
3B00
1E00
0E00
0E00
1E00
3B00
3380
6180
E0C0
ENDCHAR
STARTCHAR C0089-Y
ENCODING 89
SWIDTH 687 0
DWIDTH 11 0
BBX 11 12 0 0
BITMAP
E0C0
61C0
7180
3380
3B00
1F00
1E00
0E00
0C00
0C00
0C00
0C00
ENDCHAR
STARTCHAR C0090-Z
ENCODING 90
SWIDTH 625 0
DWIDTH 10 0
BBX 9 12 0 0
BITMAP
7F80
7F80
0380
0300
0600
0E00
1C00
1800
3000
7000
FF80
FF80
ENDCHAR
STARTCHAR C0091-[
ENCODING 91
SWIDTH 312 0
DWIDTH 5 0
BBX 3 13 1 -1
BITMAP
E0
E0
C0
C0
C0
C0
C0
C0
C0
C0
C0
E0
E0
ENDCHAR
STARTCHAR C0092-\
ENCODING 92
SWIDTH 625 0
DWIDTH 10 0
BBX 10 12 0 0
BITMAP
6000
7000
3000
3800
1800
0C00
0E00
0600
0700
0300
0180
0180
ENDCHAR
STARTCHAR C0093-]
ENCODING 93
SWIDTH 312 0
DWIDTH 5 0
BBX 3 13 1 -1
BITMAP
E0
E0
60
60
60
60
60
60
60
60
60
E0
E0
ENDCHAR
STARTCHAR C0094-^
ENCODING 94
SWIDTH 562 0
DWIDTH 9 0
BBX 8 7 1 5
BITMAP
18
38
2C
6C
46
C6
C3
ENDCHAR
STARTCHAR C0095-_
ENCODING 95
SWIDTH 500 0
DWIDTH 8 0
BBX 6 2 1 -2
BITMAP
FC
FC
ENDCHAR
STARTCHAR C0096-`
ENCODING 96
SWIDTH 250 0
DWIDTH 4 0
BBX 3 2 1 9
BITMAP
C0
60
ENDCHAR
STARTCHAR C0097-a
ENCODING 97
SWIDTH 562 0
DWIDTH 9 0
BBX 9 9 0 0
BITMAP
3E00
7F00
4300
3F00
6300
C300
E300
7F80
3980
ENDCHAR
STARTCHAR C0098-b
ENCODING 98
SWIDTH 625 0
DWIDTH 10 0
BBX 9 12 1 0
BITMAP
C000
C000
C000
DE00
FF00
E300
C380
C380
C380
E300
FF00
DE00
ENDCHAR
STARTCHAR C0099-c
ENCODING 99
SWIDTH 562 0
DWIDTH 9 0
BBX 9 9 0 0
BITMAP
1E00
7F00
6200
6000
E000
6000
6300
3F00
1E00
ENDCHAR
STARTCHAR C0100-d
ENCODING 100
SWIDTH 625 0
DWIDTH 10 0
BBX 10 12 0 0
BITMAP
0180
0180
0180
3D80
7F80
6380
6180
E180
6180
6180
7FC0
1CC0
ENDCHAR
STARTCHAR C0101-e
ENCODING 101
SWIDTH 625 0
DWIDTH 10 0
BBX 9 9 0 0
BITMAP
1E00
7F00
6180
6180
FF80
6000
6100
3F00
1E00
ENDCHAR
STARTCHAR C0102-f
ENCODING 102
SWIDTH 375 0
DWIDTH 6 0
BBX 6 12 0 0
BITMAP
1C
3C
30
70
FC
FC
70
70
70
70
70
70
ENDCHAR
STARTCHAR C0103-g
ENCODING 103
SWIDTH 625 0
DWIDTH 10 0
BBX 9 13 0 -4
BITMAP
1D80
7F80
6380
6180
E180
6180
6180
7F80
3D80
0180
4380
7F00
3E00
ENDCHAR
STARTCHAR C0104-h
ENCODING 104
SWIDTH 625 0
DWIDTH 10 0
BBX 8 12 1 0
BITMAP
C0
C0
C0
DE
FE
E7
C3
C3
C3
C3
C3
C3
ENDCHAR
STARTCHAR C0105-i
ENCODING 105
SWIDTH 250 0
DWIDTH 4 0
BBX 2 12 1 0
BITMAP
C0
C0
00
C0
C0
C0
C0
C0
C0
C0
C0
C0
ENDCHAR
STARTCHAR C0106-j
ENCODING 106
SWIDTH 250 0
DWIDTH 4 0
BBX 5 15 -2 -3
BITMAP
18
18
00
18
18
18
18
18
18
18
18
18
18
78
70
ENDCHAR
STARTCHAR C0107-k
ENCODING 107
SWIDTH 562 0
DWIDTH 9 0
BBX 8 12 1 0
BITMAP
C0
C0
C0
C6
CE
DC
D8
F8
FC
CC
C6
C7
ENDCHAR
STARTCHAR C0108-l
ENCODING 108
SWIDTH 312 0
DWIDTH 5 0
BBX 4 12 1 0
BITMAP
C0
C0
C0
C0
C0
C0
C0
C0
C0
C0
F0
70
ENDCHAR
STARTCHAR C0109-m
ENCODING 109
SWIDTH 937 0
DWIDTH 15 0
BBX 13 9 1 0
BITMAP
DE70
FEF8
E718
C718
C718
C718
C718
C718
C718
ENDCHAR
STARTCHAR C0110-n
ENCODING 110
SWIDTH 625 0
DWIDTH 10 0
BBX 8 9 1 0
BITMAP
DE
FE
E7
C3
C3
C3
C3
C3
C3
ENDCHAR
STARTCHAR C0111-o
ENCODING 111
SWIDTH 625 0
DWIDTH 10 0
BBX 9 9 0 0
BITMAP
1E00
7F00
6380
6180
E180
6180
6380
7F00
1E00
ENDCHAR
STARTCHAR C0112-p
ENCODING 112
SWIDTH 625 0
DWIDTH 10 0
BBX 9 13 1 -4
BITMAP
DE00
FF00
E300
C380
C380
C380
E300
FF00
DE00
C000
C000
C000
C000
ENDCHAR
STARTCHAR C0113-q
ENCODING 113
SWIDTH 625 0
DWIDTH 10 0
BBX 9 13 0 -4
BITMAP
1D80
7F80
6380
6180
E180
6180
6380
7F80
3D80
0180
0180
0180
0180
ENDCHAR
STARTCHAR C0114-r
ENCODING 114
SWIDTH 375 0
DWIDTH 6 0
BBX 5 9 1 0
BITMAP
D8
F8
E0
C0
C0
C0
C0
C0
C0
ENDCHAR
STARTCHAR C0115-s
ENCODING 115
SWIDTH 500 0
DWIDTH 8 0
BBX 7 9 0 0
BITMAP
3C
7E
62
70
3E
0E
06
FE
3C
ENDCHAR
STARTCHAR C0116-t
ENCODING 116
SWIDTH 375 0
DWIDTH 6 0
BBX 6 12 0 0
BITMAP
70
70
70
F8
F8
70
70
70
70
70
3C
3C
ENDCHAR
STARTCHAR C0117-u
ENCODING 117
SWIDTH 625 0
DWIDTH 10 0
BBX 8 9 1 0
BITMAP
C3
C3
C3
C3
C3
C3
C7
FF
7B
ENDCHAR
STARTCHAR C0118-v
ENCODING 118
SWIDTH 562 0
DWIDTH 9 0
BBX 9 9 0 0
BITMAP
E300
6300
6300
6200
3600
3600
3400
1C00
1C00
ENDCHAR
STARTCHAR C0119-w
ENCODING 119
SWIDTH 812 0
DWIDTH 13 0
BBX 13 9 0 0
BITMAP
CD98
6598
6730
6730
3730
3760
15E0
1CC0
1CC0
ENDCHAR
STARTCHAR C0120-x
ENCODING 120
SWIDTH 500 0
DWIDTH 8 0
BBX 8 9 0 0
BITMAP
E3
66
36
3C
18
3C
36
66
E3
ENDCHAR
STARTCHAR C0121-y
ENCODING 121
SWIDTH 562 0
DWIDTH 9 0
BBX 9 13 0 -4
BITMAP
C300
6300
6300
6200
3600
3600
3600
1C00
1C00
1C00
1800
7800
7000
ENDCHAR
STARTCHAR C0122-z
ENCODING 122
SWIDTH 500 0
DWIDTH 8 0
BBX 7 9 0 0
BITMAP
7E
7E
0C
0C
18
30
60
60
FE
ENDCHAR
STARTCHAR C0123-{
ENCODING 123
SWIDTH 312 0
DWIDTH 5 0
BBX 3 13 1 -1
BITMAP
E0
E0
C0
C0
C0
C0
C0
C0
C0
C0
C0
E0
E0
ENDCHAR
STARTCHAR C0124-|
ENCODING 124
SWIDTH 250 0
DWIDTH 4 0
BBX 2 14 1 -2
BITMAP
C0
C0
C0
C0
C0
C0
C0
C0
C0
C0
C0
C0
C0
C0
ENDCHAR
STARTCHAR C0125-}
ENCODING 125
SWIDTH 312 0
DWIDTH 5 0
BBX 3 13 1 -1
BITMAP
E0
E0
60
60
60
60
60
60
60
60
60
E0
E0
ENDCHAR
STARTCHAR C0126-~
ENCODING 126
SWIDTH 562 0
DWIDTH 9 0
BBX 7 2 1 4
BITMAP
72
9C
ENDCHAR
STARTCHAR C0127
ENCODING 127
SWIDTH 625 0
DWIDTH 10 0
BBX 11 12 0 -1
BITMAP
3E00
73C0
5040
4840
4C40
6440
6240
6240
6140
6080
7FC0
4000
ENDCHAR
STARTCHAR C0128
ENCODING 128
SWIDTH 812 0
DWIDTH 13 0
BBX 11 12 1 0
BITMAP
0F80
1FC0
38E0
7000
6000
FE00
6000
FE00
7040
38E0
1FC0
0F80
ENDCHAR
STARTCHAR C0129
ENCODING 129
SWIDTH 625 0
DWIDTH 10 0
BBX 11 12 0 -1
BITMAP
3E00
73C0
5040
4840
4C40
6440
6240
6240
6140
6080
7FC0
4000
ENDCHAR
STARTCHAR C0130
ENCODING 130
SWIDTH 250 0
DWIDTH 4 0
BBX 2 4 1 -2
BITMAP
C0
C0
C0
C0
ENDCHAR
STARTCHAR C0131
ENCODING 131
SWIDTH 562 0
DWIDTH 9 0
BBX 8 15 0 -3
BITMAP
0F
0F
1C
1C
3F
3F
1C
1C
1C
1C
1C
1C
18
78
70
ENDCHAR
STARTCHAR C0132
ENCODING 132
SWIDTH 437 0
DWIDTH 7 0
BBX 5 4 1 -2
BITMAP
D8
D8
D8
D8
ENDCHAR
STARTCHAR C0133
ENCODING 133
SWIDTH 625 0
DWIDTH 10 0
BBX 8 2 1 0
BITMAP
DB
DB
ENDCHAR
STARTCHAR C0134
ENCODING 134
SWIDTH 437 0
DWIDTH 7 0
BBX 6 14 1 -2
BITMAP
30
30
30
30
30
30
30
FC
FC
30
30
30
30
30
ENDCHAR
STARTCHAR C0135
ENCODING 135
SWIDTH 500 0
DWIDTH 8 0
BBX 6 14 1 -2
BITMAP
30
30
30
30
30
FC
FC
30
30
FC
FC
30
30
30
ENDCHAR
STARTCHAR C0136
ENCODING 136
SWIDTH 375 0
DWIDTH 6 0
BBX 5 2 0 10
BITMAP
30
48
ENDCHAR
STARTCHAR C0137
ENCODING 137
SWIDTH 1187 0
DWIDTH 19 0
BBX 17 12 1 0
BITMAP
704000
98C000
998000
990000
720000
040000
0C0000
09C700
136D80
222880
636D80
41C700
ENDCHAR
STARTCHAR C0138
ENCODING 138
SWIDTH 625 0
DWIDTH 10 0
BBX 9 15 0 0
BITMAP
1200
0C00
0000
1E00
7F80
6100
6000
7000
7E00
1F80
0380
0180
6180
FF80
3F00
ENDCHAR
STARTCHAR C0139
ENCODING 139
SWIDTH 375 0
DWIDTH 6 0
BBX 4 7 1 1
BITMAP
10
30
E0
80
E0
30
10
ENDCHAR
STARTCHAR C0140
ENCODING 140
SWIDTH 1062 0
DWIDTH 17 0
BBX 17 12 0 0
BITMAP
0F7F80
3FFF80
30E000
60E000
606000
607F00
607F00
606000
60E000
30E000
3FFF80
0F7F80
ENDCHAR
STARTCHAR C0141
ENCODING 141
SWIDTH 625 0
DWIDTH 10 0
BBX 11 12 0 -1
BITMAP
3E00
73C0
5040
4840
4C40
6440
6240
6240
6140
6080
7FC0
4000
ENDCHAR
STARTCHAR C0142
ENCODING 142
SWIDTH 625 0
DWIDTH 10 0
BBX 9 15 0 0
BITMAP
1200
0C00
0000
7F80
7F80
0380
0300
0600
0E00
1C00
1800
3000
7000
FF80
FF80
ENDCHAR
STARTCHAR C0143
ENCODING 143
SWIDTH 625 0
DWIDTH 10 0
BBX 11 12 0 -1
BITMAP
3E00
73C0
5040
4840
4C40
6440
6240
6240
6140
6080
7FC0
4000
ENDCHAR
STARTCHAR C0144
ENCODING 144
SWIDTH 625 0
DWIDTH 10 0
BBX 11 12 0 -1
BITMAP
3E00
73C0
5040
4840
4C40
6440
6240
6240
6140
6080
7FC0
4000
ENDCHAR
STARTCHAR C0145
ENCODING 145
SWIDTH 250 0
DWIDTH 4 0
BBX 2 4 1 8
BITMAP
C0
80
C0
C0
ENDCHAR
STARTCHAR C0146
ENCODING 146
SWIDTH 250 0
DWIDTH 4 0
BBX 2 4 1 8
BITMAP
C0
C0
C0
C0
ENDCHAR
STARTCHAR C0147
ENCODING 147
SWIDTH 437 0
DWIDTH 7 0
BBX 5 4 1 8
BITMAP
D8
90
D8
D8
ENDCHAR
STARTCHAR C0148
ENCODING 148
SWIDTH 437 0
DWIDTH 7 0
BBX 5 4 1 8
BITMAP
D8
D8
D8
D8
ENDCHAR
STARTCHAR C0149
ENCODING 149
SWIDTH 375 0
DWIDTH 6 0
BBX 4 3 1 4
BITMAP
E0
F0
60
ENDCHAR
STARTCHAR C0150
ENCODING 150
SWIDTH 625 0
DWIDTH 10 0
BBX 8 2 1 3
BITMAP
FF
FF
ENDCHAR
STARTCHAR C0151
ENCODING 151
SWIDTH 937 0
DWIDTH 15 0
BBX 13 2 1 3
BITMAP
FFF8
FFF8
ENDCHAR
STARTCHAR C0152
ENCODING 152
SWIDTH 437 0
DWIDTH 7 0
BBX 7 2 0 10
BITMAP
74
5C
ENDCHAR
STARTCHAR C0153
ENCODING 153
SWIDTH 812 0
DWIDTH 13 0
BBX 11 5 1 7
BITMAP
F660
2760
27A0
27A0
2620
ENDCHAR
STARTCHAR C0154
ENCODING 154
SWIDTH 500 0
DWIDTH 8 0
BBX 7 12 0 0
BITMAP
24
18
00
3C
7E
62
70
3E
0E
06
FE
3C
ENDCHAR
STARTCHAR C0155
ENCODING 155
SWIDTH 375 0
DWIDTH 6 0
BBX 4 7 1 1
BITMAP
80
C0
60
30
70
C0
80
ENDCHAR
STARTCHAR C0156
ENCODING 156
SWIDTH 1000 0
DWIDTH 16 0
BBX 16 9 0 0
BITMAP
1E3C
7FFE
63C6
6183
E1FF
6180
63C0
7FFE
1E3C
ENDCHAR
STARTCHAR C0157
ENCODING 157
SWIDTH 625 0
DWIDTH 10 0
BBX 11 12 0 -1
BITMAP
3E00
73C0
5040
4840
4C40
6440
6240
6240
6140
6080
7FC0
4000
ENDCHAR
STARTCHAR C0158
ENCODING 158
SWIDTH 500 0
DWIDTH 8 0
BBX 7 12 0 0
BITMAP
24
18
00
7E
7E
0C
0C
18
30
60
60
FE
ENDCHAR
STARTCHAR C0159
ENCODING 159
SWIDTH 687 0
DWIDTH 11 0
BBX 11 15 0 0
BITMAP
1B00
1B00
0000
E0C0
61C0
7180
3380
3B00
1F00
1E00
0E00
0C00
0C00
0C00
0C00
ENDCHAR
STARTCHAR C0160
ENCODING 160
SWIDTH 250 0
DWIDTH 4 0
BBX 1 1 0 -1
BITMAP
00
ENDCHAR
STARTCHAR C0161
ENCODING 161
SWIDTH 312 0
DWIDTH 5 0
BBX 3 11 1 0
BITMAP
E0
E0
00
00
E0
E0
E0
E0
E0
E0
E0
ENDCHAR
STARTCHAR C0162
ENCODING 162
SWIDTH 562 0
DWIDTH 9 0
BBX 8 13 1 -2
BITMAP
10
10
3C
7E
F2
D0
D0
D0
F2
7E
3C
10
10
ENDCHAR
STARTCHAR C0163
ENCODING 163
SWIDTH 562 0
DWIDTH 9 0
BBX 7 12 1 0
BITMAP
38
7E
C4
C0
60
FC
FC
20
60
60
FE
FE
ENDCHAR
STARTCHAR C0164
ENCODING 164
SWIDTH 562 0
DWIDTH 9 0
BBX 7 8 1 1
BITMAP
80
FE
6C
C4
C4
6C
FE
80
ENDCHAR
STARTCHAR C0165
ENCODING 165
SWIDTH 687 0
DWIDTH 11 0
BBX 11 12 0 0
BITMAP
60E0
70C0
31C0
3180
1B80
1B00
3F80
0E00
0600
3F80
0600
0600
ENDCHAR
STARTCHAR C0166
ENCODING 166
SWIDTH 250 0
DWIDTH 4 0
BBX 2 14 1 -2
BITMAP
C0
C0
C0
C0
C0
C0
00
00
C0
C0
C0
C0
C0
C0
ENDCHAR
STARTCHAR C0167
ENCODING 167
SWIDTH 562 0
DWIDTH 9 0
BBX 7 13 1 -1
BITMAP
78
FC
C0
C0
F8
FC
C6
FE
3E
06
4E
FC
78
ENDCHAR
STARTCHAR C0168
ENCODING 168
SWIDTH 437 0
DWIDTH 7 0
BBX 5 2 1 10
BITMAP
D8
D8
ENDCHAR
STARTCHAR C0169
ENCODING 169
SWIDTH 812 0
DWIDTH 13 0
BBX 12 12 1 0
BITMAP
1F00
20C0
4F20
9FA0
B110
B010
B010
B110
9FA0
4F20
20C0
1F00
ENDCHAR
STARTCHAR C0170
ENCODING 170
SWIDTH 437 0
DWIDTH 7 0
BBX 5 6 1 6
BITMAP
F0
98
F8
98
98
E8
ENDCHAR
STARTCHAR C0171
ENCODING 171
SWIDTH 625 0
DWIDTH 10 0
BBX 8 7 1 1
BITMAP
10
33
E6
8C
E6
33
10
ENDCHAR
STARTCHAR C0172
ENCODING 172
SWIDTH 625 0
DWIDTH 10 0
BBX 8 5 1 1
BITMAP
FF
FF
03
03
03
ENDCHAR
STARTCHAR C0173
ENCODING 173
SWIDTH 625 0
DWIDTH 10 0
BBX 8 2 1 3
BITMAP
FF
FF
ENDCHAR
STARTCHAR C0174
ENCODING 174
SWIDTH 812 0
DWIDTH 13 0
BBX 12 12 1 0
BITMAP
1F00
20C0
5F20
9920
9910
9910
9F10
9B10
9B20
59A0
20C0
1F00
ENDCHAR
STARTCHAR C0175
ENCODING 175
SWIDTH 437 0
DWIDTH 7 0
BBX 5 1 1 10
BITMAP
F8
ENDCHAR
STARTCHAR C0176
ENCODING 176
SWIDTH 312 0
DWIDTH 5 0
BBX 3 3 1 9
BITMAP
E0
A0
E0
ENDCHAR
STARTCHAR C0177
ENCODING 177
SWIDTH 500 0
DWIDTH 8 0
BBX 6 9 1 0
BITMAP
30
30
FC
FC
30
30
00
FC
FC
ENDCHAR
STARTCHAR C0178
ENCODING 178
SWIDTH 437 0
DWIDTH 7 0
BBX 6 7 0 7
BITMAP
78
4C
04
1C
70
60
7C
ENDCHAR
STARTCHAR C0179
ENCODING 179
SWIDTH 437 0
DWIDTH 7 0
BBX 6 7 0 7
BITMAP
78
4C
0C
38
0C
4C
78
ENDCHAR
STARTCHAR C0180
ENCODING 180
SWIDTH 250 0
DWIDTH 4 0
BBX 3 2 1 9
BITMAP
C0
80
ENDCHAR
STARTCHAR C0181
ENCODING 181
SWIDTH 687 0
DWIDTH 11 0
BBX 9 12 1 -3
BITMAP
C300
C300
C300
C300
C300
C300
E700
FF80
DB80
C000
C000
C000
ENDCHAR
STARTCHAR C0182
ENCODING 182
SWIDTH 687 0
DWIDTH 11 0
BBX 9 13 1 -1
BITMAP
3F80
FF80
DB00
9B00
9B00
DB00
FF00
7F00
1B00
1B00
1B00
1B00
1B00
ENDCHAR
STARTCHAR C0183
ENCODING 183
SWIDTH 250 0
DWIDTH 4 0
BBX 2 2 1 4
BITMAP
C0
C0
ENDCHAR
STARTCHAR C0184
ENCODING 184
SWIDTH 312 0
DWIDTH 5 0
BBX 4 4 0 -4
BITMAP
20
10
10
F0
ENDCHAR
STARTCHAR C0185
ENCODING 185
SWIDTH 312 0
DWIDTH 5 0
BBX 3 7 1 7
BITMAP
C0
C0
40
40
40
40
E0
ENDCHAR
STARTCHAR C0186
ENCODING 186
SWIDTH 437 0
DWIDTH 7 0
BBX 6 6 1 6
BITMAP
70
D8
88
88
D8
70
ENDCHAR
STARTCHAR C0187
ENCODING 187
SWIDTH 625 0
DWIDTH 10 0
BBX 9 7 1 1
BITMAP
8000
C600
6300
3180
7300
C600
8000
ENDCHAR
STARTCHAR C0188
ENCODING 188
SWIDTH 875 0
DWIDTH 14 0
BBX 13 12 1 0
BITMAP
C040
C0C0
4080
4100
4200
4610
E430
0850
1090
31F8
6010
4010
ENDCHAR
STARTCHAR C0189
ENCODING 189
SWIDTH 937 0
DWIDTH 15 0
BBX 13 12 1 0
BITMAP
C040
C0C0
4180
4100
4200
44F0
EC98
0808
1030
20E0
60C0
41F8
ENDCHAR
STARTCHAR C0190
ENCODING 190
SWIDTH 1000 0
DWIDTH 16 0
BBX 15 12 0 0
BITMAP
7808
4C18
0C10
3820
0C40
4CC4
788C
0114
0224
067E
0C04
0804
ENDCHAR
STARTCHAR C0191
ENCODING 191
SWIDTH 500 0
DWIDTH 8 0
BBX 7 13 0 -4
BITMAP
0C
0C
00
00
0C
1C
38
70
60
40
66
7E
3C
ENDCHAR
STARTCHAR C0192
ENCODING 192
SWIDTH 687 0
DWIDTH 11 0
BBX 11 15 0 0
BITMAP
0C00
0600
0000
0E00
0E00
1B00
1B00
1B00
3180
3180
3F80
7FC0
60C0
60C0
E0E0
ENDCHAR
STARTCHAR C0193
ENCODING 193
SWIDTH 687 0
DWIDTH 11 0
BBX 11 15 0 0
BITMAP
0600
0400
0000
0E00
0E00
1B00
1B00
1B00
3180
3180
3F80
7FC0
60C0
60C0
E0E0
ENDCHAR
STARTCHAR C0194
ENCODING 194
SWIDTH 687 0
DWIDTH 11 0
BBX 11 15 0 0
BITMAP
0C00
1200
0000
0E00
0E00
1B00
1B00
1B00
3180
3180
3F80
7FC0
60C0
60C0
E0E0
ENDCHAR
STARTCHAR C0195
ENCODING 195
SWIDTH 687 0
DWIDTH 11 0
BBX 11 15 0 0
BITMAP
1D00
1700
0000
0E00
0E00
1B00
1B00
1B00
3180
3180
3F80
7FC0
60C0
60C0
E0E0
ENDCHAR
STARTCHAR C0196
ENCODING 196
SWIDTH 687 0
DWIDTH 11 0
BBX 11 15 0 0
BITMAP
1B00
1B00
0000
0E00
0E00
1B00
1B00
1B00
3180
3180
3F80
7FC0
60C0
60C0
E0E0
ENDCHAR
STARTCHAR C0197
ENCODING 197
SWIDTH 687 0
DWIDTH 11 0
BBX 11 16 0 0
BITMAP
0C00
1200
0C00
0000
0E00
0E00
1B00
1B00
1B00
3180
3180
3F80
7FC0
60C0
60C0
E0E0
ENDCHAR
STARTCHAR C0198
ENCODING 198
SWIDTH 937 0
DWIDTH 15 0
BBX 15 12 0 0
BITMAP
03FE
03FE
0780
0780
0D80
19FC
19FC
3F80
3F80
6180
E1FE
C1FE
ENDCHAR
STARTCHAR C0199
ENCODING 199
SWIDTH 687 0
DWIDTH 11 0
BBX 11 16 0 -4
BITMAP
0F00
3FC0
30C0
6040
6000
6000
6000
6000
6040
30C0
3FC0
0F00
0400
0200
0200
1E00
ENDCHAR
STARTCHAR C0200
ENCODING 200
SWIDTH 625 0
DWIDTH 10 0
BBX 8 15 1 0
BITMAP
30
18
00
FF
FF
C0
C0
C0
FE
FE
C0
C0
C0
FF
FF
ENDCHAR
STARTCHAR C0201
ENCODING 201
SWIDTH 625 0
DWIDTH 10 0
BBX 8 15 1 0
BITMAP
0C
08
00
FF
FF
C0
C0
C0
FE
FE
C0
C0
C0
FF
FF
ENDCHAR
STARTCHAR C0202
ENCODING 202
SWIDTH 625 0
DWIDTH 10 0
BBX 8 15 1 0
BITMAP
18
24
00
FF
FF
C0
C0
C0
FE
FE
C0
C0
C0
FF
FF
ENDCHAR
STARTCHAR C0203
ENCODING 203
SWIDTH 625 0
DWIDTH 10 0
BBX 8 15 1 0
BITMAP
36
36
00
FF
FF
C0
C0
C0
FE
FE
C0
C0
C0
FF
FF
ENDCHAR
STARTCHAR C0204
ENCODING 204
SWIDTH 312 0
DWIDTH 5 0
BBX 3 15 1 0
BITMAP
C0
60
00
C0
C0
C0
C0
C0
C0
C0
C0
C0
C0
C0
C0
ENDCHAR
STARTCHAR C0205
ENCODING 205
SWIDTH 312 0
DWIDTH 5 0
BBX 4 15 1 0
BITMAP
60
40
00
C0
C0
C0
C0
C0
C0
C0
C0
C0
C0
C0
C0
ENDCHAR
STARTCHAR C0206
ENCODING 206
SWIDTH 312 0
DWIDTH 5 0
BBX 5 15 -1 0
BITMAP
30
48
00
30
30
30
30
30
30
30
30
30
30
30
30
ENDCHAR
STARTCHAR C0207
ENCODING 207
SWIDTH 312 0
DWIDTH 5 0
BBX 5 15 0 0
BITMAP
D8
D8
00
60
60
60
60
60
60
60
60
60
60
60
60
ENDCHAR
STARTCHAR C0208
ENCODING 208
SWIDTH 750 0
DWIDTH 12 0
BBX 11 12 0 0
BITMAP
7F00
7F80
61C0
60E0
6060
FC60
FC60
6060
60E0
61C0
7F80
7F00
ENDCHAR
STARTCHAR C0209
ENCODING 209
SWIDTH 750 0
DWIDTH 12 0
BBX 10 15 1 0
BITMAP
1D00
1700
0000
C0C0
E0C0
F0C0
F8C0
D8C0
DCC0
CEC0
C7C0
C3C0
C3C0
C1C0
C0C0
ENDCHAR
STARTCHAR C0210
ENCODING 210
SWIDTH 750 0
DWIDTH 12 0
BBX 12 15 0 0
BITMAP
0C00
0600
0000
0F00
3FC0
30E0
6060
6060
6070
6070
6060
6060
30E0
3FC0
0F00
ENDCHAR
STARTCHAR C0211
ENCODING 211
SWIDTH 750 0
DWIDTH 12 0
BBX 12 15 0 0
BITMAP
0300
0200
0000
0F00
3FC0
30E0
6060
6060
6070
6070
6060
6060
30E0
3FC0
0F00
ENDCHAR
STARTCHAR C0212
ENCODING 212
SWIDTH 750 0
DWIDTH 12 0
BBX 12 15 0 0
BITMAP
0600
0900
0000
0F00
3FC0
30E0
6060
6060
6070
6070
6060
6060
30E0
3FC0
0F00
ENDCHAR
STARTCHAR C0213
ENCODING 213
SWIDTH 750 0
DWIDTH 12 0
BBX 12 15 0 0
BITMAP
0E80
0B80
0000
0F00
3FC0
30E0
6060
6060
6070
6070
6060
6060
30E0
3FC0
0F00
ENDCHAR
STARTCHAR C0214
ENCODING 214
SWIDTH 750 0
DWIDTH 12 0
BBX 12 15 0 0
BITMAP
1B00
1B00
0000
0F00
3FC0
30E0
6060
6060
6070
6070
6060
6060
30E0
3FC0
0F00
ENDCHAR
STARTCHAR C0215
ENCODING 215
SWIDTH 500 0
DWIDTH 8 0
BBX 6 6 1 1
BITMAP
48
FC
78
78
FC
48
ENDCHAR
STARTCHAR C0216
ENCODING 216
SWIDTH 750 0
DWIDTH 12 0
BBX 12 12 0 0
BITMAP
0FC0
3FC0
31E0
6360
6760
6670
6C70
7C60
7860
30E0
7FC0
6F00
ENDCHAR
STARTCHAR C0217
ENCODING 217
SWIDTH 750 0
DWIDTH 12 0
BBX 10 15 1 0
BITMAP
1800
0C00
0000
C0C0
C0C0
C0C0
C0C0
C0C0
C0C0
C0C0
C0C0
E1C0
6180
7F80
1E00
ENDCHAR
STARTCHAR C0218
ENCODING 218
SWIDTH 750 0
DWIDTH 12 0
BBX 10 15 1 0
BITMAP
0600
0400
0000
C0C0
C0C0
C0C0
C0C0
C0C0
C0C0
C0C0
C0C0
E1C0
6180
7F80
1E00
ENDCHAR
STARTCHAR C0219
ENCODING 219
SWIDTH 750 0
DWIDTH 12 0
BBX 10 15 1 0
BITMAP
0C00
1200
0000
C0C0
C0C0
C0C0
C0C0
C0C0
C0C0
C0C0
C0C0
E1C0
6180
7F80
1E00
ENDCHAR
STARTCHAR C0220
ENCODING 220
SWIDTH 750 0
DWIDTH 12 0
BBX 10 15 1 0
BITMAP
3600
3600
0000
C0C0
C0C0
C0C0
C0C0
C0C0
C0C0
C0C0
C0C0
E1C0
6180
7F80
1E00
ENDCHAR
STARTCHAR C0221
ENCODING 221
SWIDTH 687 0
DWIDTH 11 0
BBX 11 15 0 0
BITMAP
0600
0400
0000
E0C0
61C0
7180
3380
3B00
1F00
1E00
0E00
0C00
0C00
0C00
0C00
ENDCHAR
STARTCHAR C0222
ENCODING 222
SWIDTH 625 0
DWIDTH 10 0
BBX 8 12 1 0
BITMAP
C0
C0
FC
FF
C3
C3
C3
C3
FF
FE
C0
C0
ENDCHAR
STARTCHAR C0223
ENCODING 223
SWIDTH 562 0
DWIDTH 9 0
BBX 7 11 1 0
BITMAP
7C
FC
C6
CC
DC
DE
C6
C6
C6
DE
DC
ENDCHAR
STARTCHAR C0224
ENCODING 224
SWIDTH 562 0
DWIDTH 9 0
BBX 9 12 0 0
BITMAP
1800
0C00
0000
3E00
7F00
4300
3F00
6300
C300
E300
7F80
3980
ENDCHAR
STARTCHAR C0225
ENCODING 225
SWIDTH 562 0
DWIDTH 9 0
BBX 9 12 0 0
BITMAP
0C00
0800
0000
3E00
7F00
4300
3F00
6300
C300
E300
7F80
3980
ENDCHAR
STARTCHAR C0226
ENCODING 226
SWIDTH 562 0
DWIDTH 9 0
BBX 9 12 0 0
BITMAP
1800
2400
0000
3E00
7F00
4300
3F00
6300
C300
E300
7F80
3980
ENDCHAR
STARTCHAR C0227
ENCODING 227
SWIDTH 562 0
DWIDTH 9 0
BBX 9 12 0 0
BITMAP
3A00
2E00
0000
3E00
7F00
4300
3F00
6300
C300
E300
7F80
3980
ENDCHAR
STARTCHAR C0228
ENCODING 228
SWIDTH 562 0
DWIDTH 9 0
BBX 9 12 0 0
BITMAP
3600
3600
0000
3E00
7F00
4300
3F00
6300
C300
E300
7F80
3980
ENDCHAR
STARTCHAR C0229
ENCODING 229
SWIDTH 562 0
DWIDTH 9 0
BBX 9 13 0 0
BITMAP
1800
2400
1800
0000
3E00
7F00
4300
3F00
6300
C300
E300
7F80
3980
ENDCHAR
STARTCHAR C0230
ENCODING 230
SWIDTH 937 0
DWIDTH 15 0
BBX 15 9 0 0
BITMAP
3CF0
7FFC
030C
3F0E
63FE
C300
E388
7FFC
38F0
ENDCHAR
STARTCHAR C0231
ENCODING 231
SWIDTH 562 0
DWIDTH 9 0
BBX 9 13 0 -4
BITMAP
1E00
7F00
6200
6000
E000
6000
6300
3F00
1E00
0800
0400
0400
3C00
ENDCHAR
STARTCHAR C0232
ENCODING 232
SWIDTH 625 0
DWIDTH 10 0
BBX 9 12 0 0
BITMAP
1800
0C00
0000
1E00
7F00
6180
6180
FF80
6000
6100
3F00
1E00
ENDCHAR
STARTCHAR C0233
ENCODING 233
SWIDTH 625 0
DWIDTH 10 0
BBX 9 12 0 0
BITMAP
0C00
0800
0000
1E00
7F00
6180
6180
FF80
6000
6100
3F00
1E00
ENDCHAR
STARTCHAR C0234
ENCODING 234
SWIDTH 625 0
DWIDTH 10 0
BBX 9 12 0 0
BITMAP
0C00
1200
0000
1E00
7F00
6180
6180
FF80
6000
6100
3F00
1E00
ENDCHAR
STARTCHAR C0235
ENCODING 235
SWIDTH 625 0
DWIDTH 10 0
BBX 9 12 0 0
BITMAP
3600
3600
0000
1E00
7F00
6180
6180
FF80
6000
6100
3F00
1E00
ENDCHAR
STARTCHAR C0236
ENCODING 236
SWIDTH 250 0
DWIDTH 4 0
BBX 3 12 0 0
BITMAP
C0
60
00
60
60
60
60
60
60
60
60
60
ENDCHAR
STARTCHAR C0237
ENCODING 237
SWIDTH 250 0
DWIDTH 4 0
BBX 4 12 1 0
BITMAP
60
40
00
C0
C0
C0
C0
C0
C0
C0
C0
C0
ENDCHAR
STARTCHAR C0238
ENCODING 238
SWIDTH 250 0
DWIDTH 4 0
BBX 5 12 -1 0
BITMAP
30
48
00
30
30
30
30
30
30
30
30
30
ENDCHAR
STARTCHAR C0239
ENCODING 239
SWIDTH 250 0
DWIDTH 4 0
BBX 5 12 -1 0
BITMAP
D8
D8
00
30
30
30
30
30
30
30
30
30
ENDCHAR
STARTCHAR C0240
ENCODING 240
SWIDTH 625 0
DWIDTH 10 0
BBX 9 12 0 0
BITMAP
1D00
0700
0B00
0300
3D80
7F80
6180
6180
6180
6380
7F00
1E00
ENDCHAR
STARTCHAR C0241
ENCODING 241
SWIDTH 625 0
DWIDTH 10 0
BBX 8 12 1 0
BITMAP
3A
2E
00
DE
FE
E7
C3
C3
C3
C3
C3
C3
ENDCHAR
STARTCHAR C0242
ENCODING 242
SWIDTH 625 0
DWIDTH 10 0
BBX 9 12 0 0
BITMAP
1800
0C00
0000
1E00
7F00
6380
6180
E180
6180
6380
7F00
1E00
ENDCHAR
STARTCHAR C0243
ENCODING 243
SWIDTH 625 0
DWIDTH 10 0
BBX 9 12 0 0
BITMAP
0C00
0800
0000
1E00
7F00
6380
6180
E180
6180
6380
7F00
1E00
ENDCHAR
STARTCHAR C0244
ENCODING 244
SWIDTH 625 0
DWIDTH 10 0
BBX 9 12 0 0
BITMAP
0C00
1200
0000
1E00
7F00
6380
6180
E180
6180
6380
7F00
1E00
ENDCHAR
STARTCHAR C0245
ENCODING 245
SWIDTH 625 0
DWIDTH 10 0
BBX 9 12 0 0
BITMAP
3A00
2E00
0000
1E00
7F00
6380
6180
E180
6180
6380
7F00
1E00
ENDCHAR
STARTCHAR C0246
ENCODING 246
SWIDTH 625 0
DWIDTH 10 0
BBX 9 12 0 0
BITMAP
3600
3600
0000
1E00
7F00
6380
6180
E180
6180
6380
7F00
1E00
ENDCHAR
STARTCHAR C0247
ENCODING 247
SWIDTH 500 0
DWIDTH 8 0
BBX 6 8 1 1
BITMAP
30
30
00
FC
FC
00
30
30
ENDCHAR
STARTCHAR C0248
ENCODING 248
SWIDTH 625 0
DWIDTH 10 0
BBX 9 9 0 0
BITMAP
1F80
7F00
6380
6580
E980
7980
7380
7F00
5E00
ENDCHAR
STARTCHAR C0249
ENCODING 249
SWIDTH 625 0
DWIDTH 10 0
BBX 8 12 1 0
BITMAP
30
18
00
C3
C3
C3
C3
C3
C3
C7
FF
7B
ENDCHAR
STARTCHAR C0250
ENCODING 250
SWIDTH 625 0
DWIDTH 10 0
BBX 8 12 1 0
BITMAP
18
10
00
C3
C3
C3
C3
C3
C3
C7
FF
7B
ENDCHAR
STARTCHAR C0251
ENCODING 251
SWIDTH 625 0
DWIDTH 10 0
BBX 8 12 1 0
BITMAP
18
24
00
C3
C3
C3
C3
C3
C3
C7
FF
7B
ENDCHAR
STARTCHAR C0252
ENCODING 252
SWIDTH 625 0
DWIDTH 10 0
BBX 8 12 1 0
BITMAP
6C
6C
00
C3
C3
C3
C3
C3
C3
C7
FF
7B
ENDCHAR
STARTCHAR C0253
ENCODING 253
SWIDTH 562 0
DWIDTH 9 0
BBX 9 16 0 -4
BITMAP
0C00
0800
0000
C300
6300
6300
6200
3600
3600
3600
1C00
1C00
1C00
1800
7800
7000
ENDCHAR
STARTCHAR C0254
ENCODING 254
SWIDTH 625 0
DWIDTH 10 0
BBX 8 16 1 -4
BITMAP
C0
C0
C0
DC
FE
E7
C3
C3
C3
E7
FE
FC
C0
C0
C0
C0
ENDCHAR
STARTCHAR C0255
ENCODING 255
SWIDTH 562 0
DWIDTH 9 0
BBX 9 16 0 -4
BITMAP
3600
3600
0000
C300
6300
6300
6200
3600
3600
3600
1C00
1C00
1C00
1800
7800
7000
ENDCHAR
ENDFONT

